<svg viewBox="0 0 24 24" fill="none" xmlns="http://www.w3.org/2000/svg">
<path d="M15.6924 20.7313C17.2882 20.7313 18.0861 20.7313 18.6724 20.4116C19.1875 20.1307 19.5933 19.685 19.8249 19.146C20.0885 18.5324 20.0141 17.738 19.8651 16.1491L19.3412 10.5611C19.2155 9.21946 19.1526 8.54862 18.8508 8.04145C18.5851 7.59478 18.1925 7.23725 17.723 7.01437C17.1899 6.76131 16.5161 6.76131 15.1685 6.7613L8.83147 6.7613C7.48392 6.7613 6.81015 6.7613 6.27702 7.01437C5.8075 7.23725 5.41489 7.59478 5.14916 8.04145C4.84743 8.54862 4.78454 9.21946 4.65876 10.5611L4.13488 16.1491C3.98593 17.738 3.91145 18.5324 4.17509 19.146C4.40668 19.685 4.81253 20.1307 5.32759 20.4116C5.9139 20.7313 6.71179 20.7313 8.30759 20.7313H15.6924Z" fill="#FF5735"/>
<path d="M15.4925 9.38068V6.7613C15.4925 4.83245 13.9289 3.2688 12 3.2688C10.0711 3.2688 8.5075 4.83245 8.5075 6.7613V9.38068M4.65876 10.5611L4.13488 16.1491C3.98593 17.738 3.91145 18.5324 4.17509 19.146C4.40668 19.685 4.81253 20.1307 5.32759 20.4116C5.9139 20.7313 6.71179 20.7313 8.30759 20.7313H15.6924C17.2882 20.7313 18.0861 20.7313 18.6724 20.4116C19.1875 20.1307 19.5933 19.685 19.8249 19.146C20.0885 18.5324 20.0141 17.738 19.8651 16.1491L19.3412 10.5611C19.2155 9.21946 19.1526 8.54862 18.8508 8.04145C18.5851 7.59478 18.1925 7.23725 17.723 7.01437C17.1899 6.76131 16.5161 6.76131 15.1685 6.7613L8.83147 6.7613C7.48392 6.7613 6.81015 6.7613 6.27702 7.01437C5.8075 7.23725 5.41489 7.59478 5.14916 8.04145C4.84743 8.54862 4.78454 9.21946 4.65876 10.5611Z" stroke="#FF5735" stroke-width="1.5" stroke-linecap="round" stroke-linejoin="round"/>
</svg>
