<svg viewBox="0 0 25 25" fill="none" xmlns="http://www.w3.org/2000/svg">
<path d="M16.3174 21.2313C17.9132 21.2313 18.7111 21.2313 19.2974 20.9116C19.8125 20.6307 20.2183 20.185 20.4499 19.646C20.7135 19.0324 20.6391 18.238 20.4901 16.6491L19.9662 11.0611C19.8405 9.71946 19.7776 9.04862 19.4758 8.54145C19.2101 8.09478 18.8175 7.73725 18.348 7.51437C17.8149 7.26131 17.1411 7.26131 15.7935 7.2613L9.45647 7.2613C8.10892 7.2613 7.43515 7.2613 6.90202 7.51437C6.4325 7.73725 6.03989 8.09478 5.77416 8.54145C5.47243 9.04862 5.40954 9.71946 5.28376 11.0611L4.75988 16.6491C4.61093 18.238 4.53645 19.0324 4.80009 19.646C5.03168 20.185 5.43753 20.6307 5.95259 20.9116C6.5389 21.2313 7.33679 21.2313 8.93259 21.2313H16.3174Z" fill="#FF5735"/>
<path d="M16.1175 9.88068V7.2613C16.1175 5.33245 14.5539 3.7688 12.625 3.7688C10.6961 3.7688 9.1325 5.33245 9.1325 7.2613V9.88068M5.28376 11.0611L4.75988 16.6491C4.61093 18.238 4.53645 19.0324 4.80009 19.646C5.03168 20.185 5.43753 20.6307 5.95259 20.9116C6.5389 21.2313 7.33679 21.2313 8.93259 21.2313H16.3174C17.9132 21.2313 18.7111 21.2313 19.2974 20.9116C19.8125 20.6307 20.2183 20.185 20.4499 19.646C20.7135 19.0324 20.6391 18.238 20.4901 16.6491L19.9662 11.0611C19.8405 9.71946 19.7776 9.04862 19.4758 8.54145C19.2101 8.09478 18.8175 7.73725 18.348 7.51437C17.8149 7.26131 17.1411 7.26131 15.7935 7.2613L9.45647 7.2613C8.10892 7.2613 7.43515 7.2613 6.90202 7.51437C6.4325 7.73725 6.03989 8.09478 5.77416 8.54145C5.47243 9.04862 5.40954 9.71946 5.28376 11.0611Z" stroke="#FF5735" stroke-width="1.5" stroke-linecap="round" stroke-linejoin="round"/>
</svg>
