<svg viewBox="0 0 12 13" fill="none" xmlns="http://www.w3.org/2000/svg">
<g clip-path="url(#clip0_44_1595)">
<path d="M3.82213 11.3C3.57388 11.3 3.36226 11.2116 3.18726 11.0348C3.01226 10.8581 2.92476 10.6456 2.92476 10.3973C2.92476 10.1491 3.01313 9.93745 3.18988 9.76245C3.36663 9.58745 3.57913 9.49995 3.82738 9.49995C4.07563 9.49995 4.28726 9.58833 4.46226 9.76508C4.63726 9.94183 4.72476 10.1543 4.72476 10.4026C4.72476 10.6508 4.63638 10.8625 4.45963 11.0375C4.28288 11.2125 4.07038 11.3 3.82213 11.3ZM9.22213 11.3C8.97388 11.3 8.76226 11.2116 8.58726 11.0348C8.41226 10.8581 8.32476 10.6456 8.32476 10.3973C8.32476 10.1491 8.41313 9.93745 8.58988 9.76245C8.76663 9.58745 8.97913 9.49995 9.22738 9.49995C9.47563 9.49995 9.68726 9.58833 9.86226 9.76508C10.0373 9.94183 10.1248 10.1543 10.1248 10.4026C10.1248 10.6508 10.0364 10.8625 9.85963 11.0375C9.68288 11.2125 9.47038 11.3 9.22213 11.3ZM3.29976 2.89995H10.4248C10.5414 2.89995 10.6268 2.94578 10.681 3.03745C10.7352 3.12912 10.7414 3.22495 10.6998 3.32495L9.30763 6.5482C9.23571 6.71603 9.12684 6.84995 8.98101 6.94995C8.83517 7.04995 8.67059 7.09995 8.48726 7.09995H4.48726L3.96226 7.99995H9.67476C9.80226 7.99995 9.90913 8.04283 9.99538 8.12858C10.0816 8.21433 10.1248 8.32058 10.1248 8.44733C10.1248 8.57408 10.0816 8.6812 9.99538 8.7687C9.90913 8.8562 9.80226 8.89995 9.67476 8.89995H3.97476C3.61642 8.89995 3.35184 8.74933 3.18101 8.44808C3.01017 8.14674 3.01226 7.84737 3.18726 7.54995L3.83726 6.42495L2.19976 2.59995H1.57476C1.44726 2.59995 1.34038 2.55708 1.25413 2.47133C1.16788 2.38558 1.12476 2.27933 1.12476 2.15258C1.12476 2.02583 1.16788 1.9187 1.25413 1.8312C1.34038 1.7437 1.44726 1.69995 1.57476 1.69995H2.48726C2.57892 1.69995 2.66017 1.72495 2.73101 1.77495C2.80184 1.82495 2.85809 1.89162 2.89976 1.97495L3.29976 2.89995Z" fill="currentColor"/>
</g>
<defs>
<clipPath id="clip0_44_1595">
<rect width="12" height="12" fill="white" transform="translate(-0.000244141 0.5)"/>
</clipPath>
</defs>
</svg>
