<svg viewBox="0 0 24 25" xmlns="http://www.w3.org/2000/svg">
  <path d="M12.0002 22.5C17.5231 22.5 22.0002 18.0228 22.0002 12.5C22.0002 6.97715 17.5231 2.5 12.0002 2.5C6.4774 2.5 2.00024 6.97715 2.00024 12.5C2.00024 18.0228 6.4774 22.5 12.0002 22.5Z" fill="#33373B"/>
  
  <path d="M12.0002 6.5V12.5L16.0002 14.5"
        stroke="white"
        stroke-width="2"
        stroke-linecap="round"
        stroke-linejoin="round"/>
  
  <path d="M12.0002 6.5V12.5L16.0002 14.5M22.0002 12.5C22.0002 18.0228 17.5231 22.5 12.0002 22.5C6.4774 22.5 2.00024 18.0228 2.00024 12.5C2.00024 6.97715 6.4774 2.5 12.0002 2.5C17.5231 2.5 22.0002 6.97715 22.0002 12.5Z"
        stroke="white"
        stroke-width="2"
        stroke-linecap="round"
        stroke-linejoin="round"/>
</svg>
