<svg viewBox="0 0 24 25" fill="none" xmlns="http://www.w3.org/2000/svg">
<path d="M9.75024 10.209C10.9929 10.209 12.0002 9.20163 12.0002 7.95898C12.0002 6.71634 10.9929 5.70898 9.75024 5.70898C8.5076 5.70898 7.50024 6.71634 7.50024 7.95898C7.50024 9.20163 8.5076 10.209 9.75024 10.209Z" stroke="currentColor" stroke-width="1.5" stroke-linecap="round" stroke-linejoin="round"/>
<path d="M15.7502 19.209C16.9929 19.209 18.0002 18.2016 18.0002 16.959C18.0002 15.7163 16.9929 14.709 15.7502 14.709C14.5076 14.709 13.5002 15.7163 13.5002 16.959C13.5002 18.2016 14.5076 19.209 15.7502 19.209Z" stroke="currentColor" stroke-width="1.5" stroke-linecap="round" stroke-linejoin="round"/>
<path d="M12.0002 7.95898H20.2502" stroke="currentColor" stroke-width="1.5" stroke-linecap="round" stroke-linejoin="round"/>
<path d="M3.75024 7.95898H7.50024" stroke="currentColor" stroke-width="1.5" stroke-linecap="round" stroke-linejoin="round"/>
<path d="M18.0002 16.959H20.2502" stroke="currentColor" stroke-width="1.5" stroke-linecap="round" stroke-linejoin="round"/>
<path d="M3.75024 16.959H13.5002" stroke="currentColor" stroke-width="1.5" stroke-linecap="round" stroke-linejoin="round"/>
</svg>
