<svg viewBox="0 0 75 75" fill="none" xmlns="http://www.w3.org/2000/svg">
<g filter="url(#filter0_d_423_5297)">
<rect x="7" y="7" width="52" height="52" rx="26" fill="url(#paint0_linear_423_5297)"/>
<path d="M34.1 23.1L36.0076 28.0597C36.3178 28.8663 36.4729 29.2696 36.7141 29.6088C36.9279 29.9094 37.1906 30.1721 37.4912 30.3859C37.8304 30.6271 38.2337 30.7822 39.0403 31.0924L44 33L39.0403 34.9076C38.2337 35.2178 37.8304 35.3729 37.4912 35.6141C37.1906 35.8279 36.9279 36.0906 36.7141 36.3912C36.4729 36.7304 36.3178 37.1337 36.0076 37.9403L34.1 42.9L32.1924 37.9403C31.8822 37.1337 31.7271 36.7304 31.4859 36.3912C31.2721 36.0906 31.0094 35.8279 30.7088 35.6141C30.3696 35.3729 29.9663 35.2178 29.1597 34.9076L24.2 33L29.1597 31.0924C29.9663 30.7822 30.3696 30.6271 30.7088 30.3859C31.0094 30.1721 31.2721 29.9094 31.4859 29.6088C31.7271 29.2696 31.8822 28.8663 32.1924 28.0597L34.1 23.1Z" fill="white"/>
<path d="M24.75 44V38.5M24.75 27.5V22M22 24.75H27.5M22 41.25H27.5M34.1 23.1L32.1924 28.0597C31.8822 28.8663 31.7271 29.2696 31.4859 29.6088C31.2721 29.9094 31.0094 30.1721 30.7088 30.3859C30.3696 30.6271 29.9663 30.7822 29.1597 31.0924L24.2 33L29.1597 34.9076C29.9663 35.2178 30.3696 35.3729 30.7088 35.6141C31.0094 35.8279 31.2721 36.0906 31.4859 36.3912C31.7271 36.7304 31.8822 37.1337 32.1924 37.9403L34.1 42.9L36.0076 37.9403C36.3178 37.1337 36.4729 36.7304 36.7141 36.3912C36.9279 36.0906 37.1906 35.8279 37.4912 35.6141C37.8304 35.3729 38.2337 35.2178 39.0403 34.9076L44 33L39.0403 31.0924C38.2337 30.7822 37.8304 30.6271 37.4912 30.3859C37.1906 30.1721 36.9279 29.9094 36.7141 29.6088C36.4729 29.2696 36.3178 28.8663 36.0076 28.0597L34.1 23.1Z" stroke="white" stroke-width="2.2" stroke-linecap="round" stroke-linejoin="round"/>
</g>
<defs>
<filter id="filter0_d_423_5297" x="0.5" y="0.5" width="73.6667" height="73.6667" filterUnits="userSpaceOnUse" color-interpolation-filters="sRGB">
<feFlood flood-opacity="0" result="BackgroundImageFix"/>
<feColorMatrix in="SourceAlpha" type="matrix" values="0 0 0 0 0 0 0 0 0 0 0 0 0 0 0 0 0 0 127 0" result="hardAlpha"/>
<feOffset dx="4.33333" dy="4.33333"/>
<feGaussianBlur stdDeviation="5.41667"/>
<feComposite in2="hardAlpha" operator="out"/>
<feColorMatrix type="matrix" values="0 0 0 0 0 0 0 0 0 0 0 0 0 0 0 0 0 0 0.2 0"/>
<feBlend mode="normal" in2="BackgroundImageFix" result="effect1_dropShadow_423_5297"/>
<feBlend mode="normal" in="SourceGraphic" in2="effect1_dropShadow_423_5297" result="shape"/>
</filter>
<linearGradient id="paint0_linear_423_5297" x1="7" y1="33" x2="59" y2="33" gradientUnits="userSpaceOnUse">
<stop stop-color="#3D69FF"/>
<stop offset="1" stop-color="#9747FF"/>
</linearGradient>
</defs>
</svg>
