<svg viewBox="0 0 19 19" fill="none" xmlns="http://www.w3.org/2000/svg">
<path fill-rule="evenodd" clip-rule="evenodd" d="M18.14 9.98251C18.14 9.34433 18.0827 8.73069 17.9764 8.1416H9.5V11.623H14.3436C14.135 12.748 13.5009 13.7011 12.5477 14.3393V16.5975H15.4564C17.1582 15.0307 18.14 12.7234 18.14 9.98251Z" fill="#4285F4"/>
<path fill-rule="evenodd" clip-rule="evenodd" d="M9.5 18.7783C11.93 18.7783 13.9673 17.9724 15.4564 16.5978L12.5477 14.3396C11.7418 14.8796 10.7109 15.1987 9.5 15.1987C7.15591 15.1987 5.17182 13.6156 4.46409 11.4883H1.45728V13.8201C2.93818 16.7615 5.98182 18.7783 9.5 18.7783Z" fill="#34A853"/>
<path fill-rule="evenodd" clip-rule="evenodd" d="M4.46409 11.4881C4.28409 10.9481 4.18182 10.3713 4.18182 9.77815C4.18182 9.18496 4.28409 8.60815 4.46409 8.06815V5.73633H1.45727C0.847727 6.95133 0.5 8.32587 0.5 9.77815C0.5 11.2304 0.847727 12.605 1.45727 13.82L4.46409 11.4881Z" fill="#FBBC05"/>
<path fill-rule="evenodd" clip-rule="evenodd" d="M9.5 4.35787C10.8214 4.35787 12.0077 4.81196 12.9405 5.70377L15.5218 3.12241C13.9632 1.67014 11.9259 0.77832 9.5 0.77832C5.98182 0.77832 2.93818 2.79514 1.45728 5.7365L4.46409 8.06832C5.17182 5.94105 7.15591 4.35787 9.5 4.35787Z" fill="#EA4335"/>
</svg>
