<svg viewBox="0 0 24 25" fill="none" xmlns="http://www.w3.org/2000/svg">
<rect x="0.500732" y="0.566162" width="23" height="23" rx="11.5" fill="#F8F9FA"/>
<rect x="0.500732" y="0.566162" width="23" height="23" rx="11.5" stroke="#E2E6EA"/>
<path fill-rule="evenodd" clip-rule="evenodd" d="M10.0007 9.56616C10.0007 9.03573 10.2114 8.52702 10.5865 8.15195C10.9616 7.77688 11.4703 7.56616 12.0007 7.56616C12.5312 7.56616 13.0399 7.77688 13.4149 8.15195C13.79 8.52702 14.0007 9.03573 14.0007 9.56616C14.0007 10.0966 13.79 10.6053 13.4149 10.9804C13.0399 11.3554 12.5312 11.5662 12.0007 11.5662C11.4703 11.5662 10.9616 11.3554 10.5865 10.9804C10.2114 10.6053 10.0007 10.0966 10.0007 9.56616ZM10.0007 12.5662C9.33769 12.5662 8.70181 12.8296 8.23297 13.2984C7.76412 13.7672 7.50073 14.4031 7.50073 15.0662C7.50073 15.464 7.65877 15.8455 7.94007 16.1268C8.22138 16.4081 8.60291 16.5662 9.00073 16.5662H15.0007C15.3986 16.5662 15.7801 16.4081 16.0614 16.1268C16.3427 15.8455 16.5007 15.464 16.5007 15.0662C16.5007 14.4031 16.2373 13.7672 15.7685 13.2984C15.2997 12.8296 14.6638 12.5662 14.0007 12.5662H10.0007Z" fill="#E2E6EA"/>
</svg>
