<svg viewBox="0 0 25 25" fill="none" xmlns="http://www.w3.org/2000/svg">
<path fill-rule="evenodd" clip-rule="evenodd" d="M13.2018 3.87544C12.9877 3.81821 12.7623 3.81821 12.5482 3.87544C12.2943 3.94329 12.0838 4.10768 11.9729 4.19426L11.9412 4.21886L5.76232 8.94381C5.41255 9.21077 5.11761 9.43588 4.8981 9.72914C4.70522 9.9868 4.56143 10.2778 4.47391 10.5875C4.3743 10.94 4.37465 11.3111 4.37505 11.7511L4.3751 17.4921C4.37509 17.9712 4.37508 18.3792 4.40245 18.7141C4.4312 19.066 4.49416 19.4084 4.66092 19.7356C4.91233 20.2291 5.31349 20.6302 5.80691 20.8816C6.13418 21.0484 6.47653 21.1114 6.82842 21.1401C7.16337 21.1675 7.57133 21.1675 8.05044 21.1675H12.8657C12.8689 21.1675 12.8721 21.1675 12.8753 21.1675C12.8785 21.1675 12.8816 21.1675 12.8848 21.1675H17.6995C18.1786 21.1675 18.5866 21.1675 18.9216 21.1401C19.2735 21.1114 19.6158 21.0484 19.9431 20.8816C20.4365 20.6302 20.8377 20.2291 21.0891 19.7356C21.2558 19.4084 21.3188 19.066 21.3476 18.7141C21.3749 18.3792 21.3749 17.9712 21.3749 17.4921L21.375 11.7511C21.3754 11.3111 21.3757 10.94 21.2761 10.5875C21.1886 10.2778 21.0448 9.9868 20.8519 9.72914C20.6324 9.43588 20.3375 9.21077 19.9877 8.94381L13.8088 4.21886L13.7771 4.19426C13.6662 4.10768 13.4557 3.94329 13.2018 3.87544ZM13.6891 19.5397H18.0292C18.7658 19.5397 18.941 19.5296 19.06 19.491C19.3628 19.3926 19.6002 19.1552 19.6986 18.8524C19.7372 18.7334 19.7473 18.5582 19.7473 17.8216V11.6579C19.7473 11.2779 19.7441 11.1916 19.7306 11.1188C19.697 10.9382 19.614 10.7703 19.4909 10.6339C19.4413 10.579 19.3747 10.524 19.0728 10.2931L12.875 5.55366L6.67718 10.2931C6.37532 10.524 6.30869 10.579 6.25912 10.6339C6.13597 10.7703 6.05302 10.9382 6.01947 11.1188C6.00596 11.1916 6.00275 11.2779 6.00275 11.6579V17.8216C6.00275 18.5582 6.01279 18.7334 6.05143 18.8524C6.14982 19.1552 6.38724 19.3926 6.69005 19.491C6.80898 19.5296 6.98425 19.5397 7.72082 19.5397H12.0614V14.4761C12.0614 14.0266 12.4258 13.6623 12.8753 13.6623C13.3247 13.6623 13.6891 14.0266 13.6891 14.4761V19.5397Z" fill="#979B9F"/>
</svg>
