<svg viewBox="0 0 25 25" fill="none" xmlns="http://www.w3.org/2000/svg">
<path d="M12.5482 3.87544C12.7623 3.81821 12.9877 3.81821 13.2018 3.87544C13.4557 3.94329 13.6662 4.10768 13.7771 4.19426L13.8088 4.21886L19.9877 8.94381C20.3375 9.21077 20.6324 9.43588 20.8519 9.72914C21.0448 9.98681 21.1886 10.2778 21.2761 10.5875C21.3757 10.94 21.3754 11.3111 21.375 11.7511L21.3749 17.4921C21.3749 17.9712 21.3749 18.3792 21.3476 18.7141C21.3188 19.066 21.2558 19.4084 21.0891 19.7357C20.8377 20.2291 20.4365 20.6302 19.9431 20.8816C19.6158 21.0484 19.2735 21.1114 18.9216 21.1401C18.5866 21.1675 18.1787 21.1675 17.6995 21.1675H13.6891V14.4761C13.6891 14.0266 13.3247 13.6623 12.8753 13.6623C12.4258 13.6623 12.0614 14.0266 12.0614 14.4761V21.1675H8.05049C7.57137 21.1675 7.16337 21.1675 6.82842 21.1401C6.47653 21.1114 6.13418 21.0484 5.80691 20.8816C5.31349 20.6302 4.91233 20.2291 4.66092 19.7357C4.49416 19.4084 4.4312 19.066 4.40244 18.7141C4.37508 18.3792 4.37509 17.9712 4.3751 17.4921L4.37505 11.7511C4.37465 11.3111 4.3743 10.94 4.47391 10.5875C4.56143 10.2778 4.70522 9.98681 4.8981 9.72914C5.11761 9.43588 5.41255 9.21077 5.76232 8.94381L11.9412 4.21886L11.9729 4.19426C12.0838 4.10768 12.2943 3.94329 12.5482 3.87544Z" fill="#FF5735"/>
</svg>
