<svg viewBox="0 0 16 17" fill="none" xmlns="http://www.w3.org/2000/svg">
<rect width="10.6667" height="10.6667" rx="5.33333" transform="matrix(1 0 0 -1 2.66687 13.3995)" fill="#B0B4B8"/>
<path d="M7.94627 6.70151C8.29973 6.70151 8.58627 6.41497 8.58627 6.06151C8.58627 5.70805 8.29973 5.42151 7.94627 5.42151C7.5928 5.42151 7.30627 5.70805 7.30627 6.06151C7.30627 6.41497 7.5928 6.70151 7.94627 6.70151Z" fill="white"/>
<path d="M7.2396 7.22958C7.12914 7.22958 7.0396 7.31912 7.0396 7.42958V7.66958C7.0396 7.78004 7.12914 7.86958 7.2396 7.86958H7.4271C7.53756 7.86958 7.6271 7.95912 7.6271 8.06958V9.98297H7.13335C7.02289 9.98297 6.93335 10.0725 6.93335 10.183V10.423C6.93335 10.5334 7.02289 10.623 7.13335 10.623H8.86668C8.97714 10.623 9.06668 10.5334 9.06668 10.423V10.183C9.06668 10.0725 8.97714 9.98297 8.86668 9.98297H8.5871V7.42958C8.5871 7.31912 8.49756 7.22958 8.3871 7.22958H7.2396Z" fill="white"/>
</svg>
