<svg viewBox="0 0 24 24" fill="none" xmlns="http://www.w3.org/2000/svg">
<path d="M12.0005 21.6625C11.7672 21.6625 11.5338 21.6209 11.3005 21.5375C11.0672 21.4542 10.8588 21.3292 10.6755 21.1625C9.59215 20.1625 8.63382 19.1875 7.80049 18.2375C6.96715 17.2875 6.27132 16.3667 5.71299 15.475C5.15465 14.5834 4.72966 13.725 4.43799 12.9C4.14632 12.075 4.00049 11.2875 4.00049 10.5375C4.00049 8.03752 4.80465 6.04586 6.41299 4.56252C8.02132 3.07919 9.88382 2.33752 12.0005 2.33752C14.1172 2.33752 15.9797 3.07919 17.588 4.56252C19.1963 6.04586 20.0005 8.03752 20.0005 10.5375C20.0005 11.2875 19.8547 12.075 19.563 12.9C19.2713 13.725 18.8463 14.5834 18.288 15.475C17.7297 16.3667 17.0338 17.2875 16.2005 18.2375C15.3672 19.1875 14.4088 20.1625 13.3255 21.1625C13.1422 21.3292 12.9338 21.4542 12.7005 21.5375C12.4672 21.6209 12.2338 21.6625 12.0005 21.6625Z" fill="currentColor"/>
<path d="M12.0005 12.2765C12.8255 12.2765 13.5317 11.9827 14.1192 11.3952C14.7067 10.8077 15.0005 10.1015 15.0005 9.27649C15.0005 8.45149 14.7067 7.74524 14.1192 7.15774C13.5317 6.57024 12.8255 6.27649 12.0005 6.27649C11.1755 6.27649 10.4692 6.57024 9.88174 7.15774C9.29424 7.74524 9.00049 8.45149 9.00049 9.27649C9.00049 10.1015 9.29424 10.8077 9.88174 11.3952C10.4692 11.9827 11.1755 12.2765 12.0005 12.2765Z" fill="#FFEBE3"/>
</svg>
