<svg viewBox="0 0 79 17" fill="none" xmlns="http://www.w3.org/2000/svg">
<path d="M7.53493 9.42473C7.38811 9.46159 7.20458 9.43701 6.98434 9.351C6.76411 9.265 6.53164 9.14213 6.28694 8.9824C6.04223 8.81039 5.80364 8.61381 5.57118 8.39265C5.33871 8.17149 5.14294 7.9319 4.98389 7.67388C4.81259 7.45272 4.678 7.28685 4.58012 7.17627C4.49448 7.06569 4.40883 7.01654 4.32318 7.02883C4.24977 7.02883 4.16413 7.09026 4.06624 7.21313C3.9806 7.32371 3.85825 7.48958 3.69919 7.71074L3.16696 8.42951C3.02013 8.62609 2.91002 8.82268 2.8366 9.01926C2.70202 9.31415 2.54296 9.53531 2.35943 9.68274C2.1759 9.83018 1.98014 9.9039 1.77214 9.9039C1.57638 9.9039 1.38061 9.83018 1.18485 9.68274C1.00132 9.52302 0.836147 9.29572 0.689324 9.00084C0.518031 8.61995 0.462972 8.31892 0.524148 8.09777C0.59756 7.87661 0.823911 7.63702 1.2032 7.379C1.43567 7.21927 1.76602 6.91825 2.19426 6.47593C2.56131 6.10733 2.94672 5.76944 3.35048 5.46228C3.76648 5.14282 4.13966 4.86023 4.47001 4.6145C4.81259 4.35648 5.08177 4.14146 5.27753 3.96945C5.47329 3.79743 5.53447 3.66842 5.46106 3.58242C5.37541 3.47184 4.92271 3.47184 4.10295 3.58242C3.72366 3.61928 3.47284 3.63156 3.35048 3.61928C3.20366 3.5947 3.01402 3.63771 2.78155 3.74829C2.53684 3.85887 2.30437 3.90801 2.08414 3.89573C1.87614 3.88344 1.69873 3.81586 1.55191 3.693C1.40508 3.57013 1.30108 3.4104 1.23991 3.21382C1.17873 3.01723 1.18485 2.78993 1.25826 2.53191C1.3072 2.31075 1.44179 2.16331 1.66202 2.08959C1.88226 2.00358 2.28602 1.95443 2.87331 1.94215C3.11801 1.94215 3.36272 1.936 3.60742 1.92372C3.85213 1.91143 4.10907 1.893 4.37824 1.86843C4.84318 1.83157 5.13683 1.81928 5.25918 1.83157C5.54059 1.86843 5.74859 1.81314 5.88317 1.6657C5.96882 1.57969 6.04223 1.5244 6.10341 1.49983C6.25023 1.43839 6.45823 1.49983 6.7274 1.68413L7.11281 1.90529C7.46763 2.11416 7.63281 2.36604 7.60834 2.66092C7.5961 2.9558 7.38199 3.53327 6.96599 4.39334C6.90481 4.5162 6.81917 4.6575 6.70905 4.81723C6.61117 4.97695 6.50717 5.13668 6.39705 5.29641C6.28694 5.44385 6.17682 5.58514 6.0667 5.7203C5.96882 5.84316 5.88929 5.92917 5.82812 5.97832C5.70576 6.06432 5.6507 6.13804 5.66294 6.19948C5.67517 6.26091 5.77306 6.33463 5.95659 6.42064C6.03 6.4575 6.134 6.53122 6.26858 6.6418C6.40317 6.74009 6.54388 6.85681 6.6907 6.99197C6.84976 7.11483 7.0027 7.24999 7.14952 7.39743C7.30858 7.54487 7.44316 7.68002 7.55328 7.80289C7.74904 8.02405 7.90198 8.17149 8.0121 8.24521C8.09775 8.30664 8.14669 8.39879 8.15892 8.52166C8.17116 8.64452 8.14669 8.76739 8.08551 8.89025C8.03657 9.01312 7.96316 9.12985 7.86528 9.24043C7.7674 9.33872 7.65728 9.40015 7.53493 9.42473ZM4.782 15.8752C4.47612 15.8507 4.23142 15.8076 4.04789 15.7462C3.8766 15.6848 3.72978 15.5619 3.60742 15.3776C3.49731 15.2056 3.39331 14.9599 3.29543 14.6404C3.19754 14.321 3.07519 13.8971 2.92837 13.3687C2.87943 13.1476 2.76931 12.9326 2.59802 12.7237C2.4512 12.5394 2.37167 12.3981 2.35943 12.2998C2.3472 12.2015 2.3839 12.0725 2.46955 11.9128C2.55519 11.7776 2.59802 11.6793 2.59802 11.6179C2.59802 11.495 2.67143 11.3537 2.81825 11.194C2.96507 11.022 3.1119 10.9176 3.25872 10.8807C4.02954 10.6472 4.42107 11.0036 4.4333 11.9496C4.4333 12.1094 4.4333 12.2445 4.4333 12.3551C4.44554 12.4657 4.46389 12.5701 4.48836 12.6684C4.51283 12.7667 4.54342 12.8773 4.58012 13.0001C4.62906 13.1107 4.69024 13.2459 4.76365 13.4056C4.87377 13.6882 4.95942 13.8541 5.02059 13.9032C5.094 13.9524 5.22859 13.9585 5.42435 13.9216C5.52223 13.8971 5.68129 13.8848 5.90153 13.8848C6.12176 13.8725 6.40929 13.8725 6.76411 13.8848C7.11893 13.8848 7.46763 13.8786 7.81022 13.8664C8.15281 13.8418 8.48928 13.8049 8.81963 13.7558C9.7495 13.6452 10.5203 13.6268 11.1321 13.7005C11.5481 13.7619 11.9702 13.7742 12.3984 13.7373C13.1203 13.6759 13.5914 13.7312 13.8116 13.9032C13.9217 13.9769 14.0012 14.0875 14.0502 14.235C14.0991 14.3824 14.1175 14.5298 14.1052 14.6773C14.1052 14.837 14.0747 14.9906 14.0135 15.138C13.9523 15.2855 13.8667 15.396 13.7565 15.4698C13.7076 15.5066 13.573 15.5312 13.3528 15.5435C13.1325 15.5681 12.8817 15.5742 12.6003 15.5619C12.3189 15.5619 12.0253 15.5496 11.7194 15.5251C11.4257 15.5128 11.181 15.4882 10.9853 15.4513C10.6549 15.3899 10.2389 15.3776 9.73727 15.4145C9.24786 15.4636 8.66669 15.5558 7.99375 15.6909C7.72457 15.7646 7.29634 15.7892 6.70905 15.7646C6.42764 15.7524 6.18905 15.7462 5.99329 15.7462C5.80976 15.7585 5.66906 15.7769 5.57118 15.8015C5.47329 15.8261 5.35706 15.8445 5.22247 15.8568C5.08788 15.8814 4.94106 15.8875 4.782 15.8752ZM11.0036 11.3967C10.4775 11.7776 10.1777 11.5135 10.1043 10.6042C10.0676 10.2234 10.0064 9.91005 9.9208 9.66431C9.79844 9.25885 9.77397 8.67524 9.84738 7.91347C9.89633 7.45886 9.82903 7.11483 9.6455 6.88139C9.57209 6.79538 9.51092 6.71552 9.46197 6.6418C9.42527 6.56808 9.4008 6.48821 9.38856 6.40221C9.37633 6.3162 9.37021 6.21176 9.37021 6.0889C9.38245 5.96603 9.4008 5.81245 9.42527 5.62815C9.48645 5.27183 9.58433 4.94624 9.71891 4.65136C9.76786 4.54078 9.80456 4.40562 9.82903 4.2459C9.8535 4.08617 9.85962 3.9203 9.84738 3.74829C9.84738 3.56399 9.82903 3.39197 9.79233 3.23225C9.76786 3.07252 9.73115 2.94351 9.68221 2.84522L9.46197 2.42133C9.35186 2.21245 9.32127 1.98515 9.37021 1.73942C9.43139 1.4814 9.54762 1.27867 9.71891 1.13123C9.78009 1.08208 9.86574 1.04522 9.97585 1.02065C10.0982 0.996074 10.2267 0.98993 10.3613 1.00222C10.4959 1.0145 10.6243 1.03908 10.7467 1.07594C10.8813 1.1128 10.9853 1.16809 11.0587 1.24181C11.1933 1.36467 11.2911 1.58583 11.3523 1.90529C11.3768 2.06501 11.3951 2.29846 11.4074 2.60563C11.4196 2.90051 11.4257 3.26296 11.4257 3.693V3.8773C11.4257 4.47934 11.4441 4.82337 11.4808 4.90938C11.5175 5.00767 11.646 5.03839 11.8662 5.00153C11.8907 4.98924 11.9151 4.9831 11.9396 4.9831C12.6003 4.8848 13.1448 4.8848 13.573 4.9831C14.0135 5.0691 14.301 5.23497 14.4356 5.48071C14.5579 5.70187 14.6069 5.91688 14.5824 6.12576C14.5702 6.33463 14.5029 6.51279 14.3805 6.66023C14.2582 6.80767 14.093 6.9121 13.885 6.97354C13.677 7.03497 13.4507 7.02883 13.206 6.95511C13.1203 6.93053 12.998 6.9121 12.8389 6.89982C12.6798 6.88753 12.5147 6.88139 12.3434 6.88139C12.1721 6.8691 12.013 6.8691 11.8662 6.88139C11.7194 6.88139 11.6154 6.89367 11.5542 6.91825C11.4808 6.94282 11.4441 7.03497 11.4441 7.1947C11.4196 7.36671 11.438 7.71074 11.4991 8.22678C11.6093 9.25886 11.6337 9.98991 11.5725 10.4199C11.5236 10.8254 11.334 11.151 11.0036 11.3967Z" fill="currentColor"/>
<path d="M19.2096 9.71961C19.0261 9.65817 18.867 9.61517 18.7324 9.5906C18.5979 9.55373 18.4877 9.52916 18.4021 9.51688C18.1941 9.4923 18.0534 9.46159 17.98 9.42473C17.9066 9.38787 17.8209 9.30186 17.723 9.16671C17.6252 9.01927 17.5273 8.84725 17.4294 8.65067C17.3315 8.44179 17.2397 8.22063 17.1541 7.98719C17.0685 7.75374 17.0012 7.52644 16.9522 7.30528C16.8543 7.0104 16.7014 6.86296 16.4934 6.86296C16.4078 6.86296 16.2854 6.79538 16.1263 6.66023C15.9673 6.51279 15.8572 6.36535 15.796 6.21791C15.6859 5.99675 15.6736 5.78787 15.7593 5.59129C15.8449 5.38241 15.9918 5.2534 16.1998 5.20426C16.3221 5.17968 16.4078 5.13668 16.4567 5.07525C16.5179 5.00153 16.5546 4.90323 16.5668 4.78037C16.579 4.64521 16.579 4.4732 16.5668 4.26433C16.5668 4.04317 16.5668 3.77286 16.5668 3.45341C16.5546 2.90051 16.6035 2.53805 16.7136 2.36604C16.7626 2.28003 16.8605 2.21245 17.0073 2.16331C17.1541 2.11416 17.3009 2.08344 17.4477 2.07116C17.6068 2.05887 17.7536 2.0773 17.8882 2.12645C18.035 2.16331 18.139 2.22474 18.2002 2.31075C18.2247 2.35989 18.2492 2.48276 18.2736 2.67935C18.2981 2.86365 18.3164 3.07252 18.3287 3.30597C18.3532 3.53941 18.3654 3.76057 18.3654 3.96945C18.3776 4.17832 18.3776 4.32576 18.3654 4.41177C18.3409 4.60835 18.3409 4.71893 18.3654 4.74351C18.3899 4.76808 18.4755 4.75579 18.6223 4.70665C18.708 4.68207 18.8181 4.65136 18.9527 4.6145C19.0873 4.56535 19.2586 4.5162 19.4666 4.46706L20.4026 4.22747C20.5371 4.20289 20.6901 4.17832 20.8614 4.15375C21.0327 4.12917 21.2345 4.1046 21.467 4.08003C21.883 4.04317 22.1216 4.00631 22.1828 3.96945C22.244 3.93259 22.2378 3.83429 22.1644 3.67457C22.0543 3.41655 21.9136 3.26911 21.7423 3.23225C21.5098 3.1831 21.3447 3.09709 21.2468 2.97423C21.1489 2.85136 21.1122 2.71621 21.1367 2.56877C21.1734 2.42133 21.2713 2.27389 21.4303 2.12645C21.5894 1.96672 21.8157 1.83771 22.1094 1.73942C22.3541 1.6657 22.6355 1.67184 22.9536 1.75785C23.2717 1.84385 23.4981 1.97901 23.6327 2.16331C23.6694 2.21245 23.7122 2.31075 23.7611 2.45819C23.8223 2.59334 23.8774 2.75307 23.9263 2.93737C23.9752 3.12167 24.0181 3.31211 24.0548 3.5087C24.0915 3.70528 24.1221 3.88958 24.1465 4.0616C24.171 4.19675 24.1894 4.3319 24.2016 4.46706C24.2261 4.58992 24.2505 4.70665 24.275 4.81723C24.2995 4.91552 24.3239 5.13054 24.3484 5.46228C24.3729 5.79402 24.3912 6.15647 24.4035 6.54965C24.4157 6.93053 24.4218 7.29913 24.4218 7.65545C24.4341 7.99947 24.4341 8.22678 24.4218 8.33736C24.3729 8.8534 24.2199 9.222 23.963 9.44316C23.7061 9.66432 23.3879 9.70117 23.0087 9.55373C22.7395 9.44315 22.3296 9.45544 21.779 9.5906C21.4487 9.68889 21.1611 9.76261 20.9164 9.81176C20.684 9.84862 20.4698 9.87319 20.2741 9.88547C20.0906 9.89776 19.9131 9.89162 19.7419 9.86705C19.5828 9.83019 19.4054 9.78104 19.2096 9.71961ZM22.2378 15.9858C22.0054 15.9244 21.6322 15.8814 21.1183 15.8568C20.7635 15.8445 20.4637 15.8199 20.219 15.7831C19.9743 15.7585 19.7847 15.7155 19.6501 15.6541C19.5033 15.5926 19.3687 15.4943 19.2463 15.3592C19.124 15.224 19.0139 15.0704 18.916 14.8984C18.8303 14.7264 18.7569 14.5421 18.6957 14.3455C18.6346 14.1489 18.5917 13.9585 18.5673 13.7742C18.5183 13.4302 18.3899 13.0186 18.1819 12.5394C18.1207 12.392 18.0901 12.3059 18.0901 12.2814C18.0901 12.2568 18.1207 12.1524 18.1819 11.9681C18.2675 11.71 18.3654 11.5257 18.4755 11.4152C18.5856 11.3046 18.7386 11.2247 18.9343 11.1756C19.5583 11.0527 19.8764 11.3783 19.8887 12.1524C19.8887 12.6807 20.0233 13.1906 20.2924 13.6821C20.4026 13.8909 20.4943 14.0138 20.5677 14.0507C20.6411 14.0875 20.7941 14.0998 21.0265 14.0875C21.2713 14.0629 21.5894 14.0814 21.9809 14.1428C22.3357 14.192 22.6232 14.1981 22.8435 14.1612C24.4708 13.8664 25.6331 13.7681 26.3305 13.8664C27.0035 13.9524 27.5969 13.9708 28.1107 13.9216C28.3432 13.8971 28.6063 13.9032 28.8999 13.9401C29.1936 13.9646 29.3954 14.0077 29.5056 14.0691C29.7625 14.2042 29.891 14.45 29.891 14.8063C29.891 15.1872 29.7625 15.439 29.5056 15.5619C29.4321 15.5988 29.267 15.6295 29.01 15.6541C28.7653 15.6786 28.49 15.6909 28.1842 15.6909C27.8905 15.7032 27.5969 15.6971 27.3032 15.6725C27.0096 15.6602 26.7832 15.6356 26.6242 15.5988C26.2693 15.5128 25.9635 15.4759 25.7065 15.4882C25.4496 15.5005 25.1376 15.5681 24.7705 15.6909C24.4524 15.8015 24.1771 15.8814 23.9446 15.9305C23.7122 15.9919 23.4981 16.035 23.3023 16.0595C23.1065 16.0841 22.923 16.0841 22.7517 16.0595C22.5927 16.0472 22.4214 16.0227 22.2378 15.9858ZM26.2204 11.6916C26.0736 11.6793 25.9818 11.624 25.9451 11.5257C25.9084 11.452 25.8595 11.2554 25.7983 10.936C25.7616 10.5428 25.7188 10.2848 25.6698 10.1619C25.5597 9.84247 25.4863 9.46773 25.4496 9.0377C25.4251 8.60766 25.4496 8.23292 25.523 7.91347C25.5719 7.70459 25.6025 7.53258 25.6148 7.39743C25.6392 7.26227 25.6576 7.16398 25.6698 7.10255C25.682 7.00425 25.6576 6.89982 25.5964 6.78924C25.523 6.65408 25.4863 6.5005 25.4863 6.32849C25.4863 6.14419 25.5108 5.95989 25.5597 5.77559C25.6209 5.579 25.7004 5.3947 25.7983 5.22269C25.8962 5.03839 26.0185 4.87866 26.1653 4.74351C26.4468 4.49777 26.4835 4.11689 26.2755 3.60085C26.2265 3.44112 26.1959 3.27525 26.1837 3.10324C26.1715 3.00494 26.1409 2.89436 26.0919 2.7715C26.0552 2.64863 26.0063 2.50733 25.9451 2.34761C25.786 2.01587 25.731 1.7087 25.7799 1.42611C25.8289 1.14351 25.9696 0.95307 26.202 0.854778C26.3611 0.781057 26.5691 0.76877 26.826 0.817917C27.0952 0.854777 27.291 0.928497 27.4133 1.03908C27.6091 1.22338 27.7437 1.59812 27.8171 2.16331C27.8905 2.71621 27.8905 3.38583 27.8171 4.17218L27.7804 4.39334C27.7437 4.74965 27.7437 4.95852 27.7804 5.01996C27.8293 5.0691 27.9823 5.08753 28.2392 5.07525C28.3249 5.07525 28.3799 5.0691 28.4044 5.05682C29.0773 5.03224 29.6952 5.1674 30.258 5.46228C30.4415 5.54828 30.5578 5.68958 30.6067 5.88617C30.6679 6.07047 30.6557 6.25477 30.57 6.43907C30.2397 7.06569 29.7258 7.26842 29.0284 7.04726C28.8816 7.0104 28.7103 6.98582 28.5145 6.97354C28.331 6.94896 28.1536 6.94282 27.9823 6.95511C27.811 6.96739 27.6642 6.99197 27.5418 7.02883C27.4195 7.06569 27.3583 7.10869 27.3583 7.15784L27.2482 7.67388C27.1992 7.88275 27.1747 8.4295 27.1747 9.31414C27.1747 10.1128 27.1503 10.6042 27.1013 10.7885C27.0402 11.0097 26.8995 11.2247 26.6792 11.4336C26.5569 11.5687 26.4712 11.6486 26.4223 11.6732C26.3733 11.6978 26.306 11.7039 26.2204 11.6916ZM19.1729 8.06091C19.283 8.08548 19.5522 8.07934 19.9804 8.04247C20.1395 8.04247 20.2496 8.03633 20.3108 8.02405C20.739 7.98719 21.0816 7.96876 21.3385 7.96876C21.6077 7.95647 21.7974 7.93804 21.9075 7.91347H22.1644C22.3847 7.90118 22.556 7.88889 22.6783 7.87661C22.8007 7.85203 22.8863 7.81517 22.9352 7.76603C22.9964 7.70459 23.027 7.61859 23.027 7.50801C23.0392 7.39743 23.0392 7.2377 23.027 7.02883C23.027 6.90596 23.0209 6.8261 23.0087 6.78924C22.9964 6.59265 22.9903 6.43907 22.9903 6.32849C22.9903 6.21791 22.9842 6.13804 22.9719 6.0889C22.9475 5.9906 22.9169 5.92917 22.8802 5.9046C22.7823 5.84316 22.6416 5.81245 22.4581 5.81245C22.348 5.82473 22.2072 5.84316 22.036 5.86774C21.8769 5.88002 21.6811 5.91074 21.4487 5.95989L20.6962 6.07047C20.4882 6.09504 20.1211 6.19333 19.595 6.36535L18.7141 6.66023C18.604 6.6848 18.6652 6.99811 18.8976 7.60016L18.9343 7.7476C19.0077 7.94418 19.0873 8.04862 19.1729 8.06091Z" fill="currentColor"/>
<path d="M43.9497 10.2172C43.6927 10.1435 43.5214 10.0145 43.4358 9.83019C43.3501 9.6336 43.3379 9.34486 43.3991 8.96398C43.4358 8.73053 43.4419 8.5708 43.4174 8.4848C43.393 8.3865 43.3134 8.26364 43.1788 8.1162C43.1054 8.04248 43.0443 7.9749 42.9953 7.91347C42.9586 7.85203 42.928 7.7906 42.9035 7.72917C42.8913 7.66773 42.8791 7.58787 42.8668 7.48958C42.8668 7.39128 42.8668 7.26842 42.8668 7.12098C42.8424 6.1749 42.8057 5.66501 42.7567 5.59129C42.7323 5.56671 42.6099 5.56057 42.3897 5.57286C42.2061 5.58514 42.0532 5.59743 41.9308 5.60972C41.8085 5.60972 41.6923 5.60357 41.5821 5.59129C41.4843 5.579 41.3864 5.56057 41.2885 5.536C41.2029 5.49914 41.0989 5.45613 40.9765 5.40699C40.5972 5.27183 40.3464 5.16125 40.224 5.07525C40.065 4.97695 39.961 4.86637 39.912 4.74351C39.8019 4.52235 39.7774 4.32576 39.8386 4.15375C39.8998 3.96945 40.016 3.82815 40.1873 3.72986C40.3586 3.61928 40.5727 3.55784 40.8297 3.54556C41.0989 3.53327 41.3803 3.58242 41.6739 3.693C41.6861 3.693 41.6984 3.69914 41.7106 3.71143C41.8819 3.77286 42.0104 3.81586 42.096 3.84044C42.1939 3.86501 42.2734 3.85272 42.3346 3.80358C42.408 3.74214 42.4692 3.63771 42.5181 3.49027C42.5793 3.34283 42.6527 3.12781 42.7384 2.84522C42.7506 2.83293 42.7567 2.8145 42.7567 2.78993C42.9525 2.16331 43.1666 1.6657 43.3991 1.2971C43.6438 0.928497 43.8885 0.71348 44.1332 0.652047C44.8061 0.49232 45.32 0.91621 45.6748 1.92372L46.0602 3.10324C46.2682 3.66842 46.3172 4.11074 46.2071 4.4302C46.0969 4.73736 45.7849 4.99538 45.2711 5.20426C45.0631 5.29026 44.904 5.35784 44.7939 5.40699C44.6838 5.45613 44.6165 5.49299 44.592 5.51757C44.5431 5.56671 44.5125 5.67115 44.5002 5.83088C44.4635 6.38378 44.5431 6.87524 44.7388 7.30528C44.8857 7.68616 44.9591 8.06705 44.9591 8.44794C44.9713 8.81654 44.9346 9.14828 44.8489 9.44316C44.7633 9.72575 44.6409 9.94076 44.4819 10.0882C44.3228 10.2356 44.1454 10.2786 43.9497 10.2172ZM33.8005 16.0227C33.6048 15.9367 33.4213 15.7954 33.25 15.5988C33.0909 15.4145 32.9563 15.2056 32.8462 14.9722C32.7483 14.751 32.681 14.5237 32.6443 14.2902C32.6198 14.0568 32.6443 13.8479 32.7177 13.6636C32.8278 13.3319 32.7544 13.0247 32.4975 12.7421C32.3507 12.5824 32.2589 12.3858 32.2222 12.1524C32.1977 11.9189 32.21 11.5503 32.2589 11.0466C32.3323 10.3094 32.6933 9.84861 33.3417 9.66431C33.721 9.55373 33.978 9.59674 34.1125 9.79332C34.2471 9.98991 34.3144 10.4138 34.3144 11.065C34.3144 11.667 34.3328 11.9742 34.3695 11.9865C34.394 11.9865 34.449 11.9804 34.5347 11.9681C34.6203 11.9558 34.7182 11.9373 34.8283 11.9128C34.9384 11.8882 35.0547 11.8575 35.177 11.8206C35.2994 11.7838 35.4156 11.7469 35.5257 11.71C35.7459 11.6486 35.8866 11.6179 35.9478 11.6179C36.3149 11.6179 36.3822 11.452 36.1497 11.1203C36.0029 10.936 35.9295 10.7394 35.9295 10.5305C35.9295 10.3217 35.9845 10.1435 36.0946 9.99605C36.217 9.83633 36.3883 9.72575 36.6085 9.66431C36.841 9.60288 37.1102 9.62746 37.4161 9.73804C37.7709 9.88548 38.0217 10.0759 38.1685 10.3094C38.3153 10.5305 38.3888 10.8254 38.3888 11.194C38.3888 11.4275 38.401 11.581 38.4255 11.6548C38.4499 11.7162 38.5111 11.7715 38.609 11.8206C38.8659 11.9312 39.025 12.0664 39.0862 12.2261C39.1473 12.3735 39.1351 12.5763 39.0495 12.8343C38.9883 12.9817 38.9149 13.0984 38.8292 13.1844C38.7558 13.2582 38.6335 13.3319 38.4622 13.4056C38.3153 13.4793 38.2113 13.5653 38.1502 13.6636C38.089 13.7619 37.985 14.0261 37.8382 14.4561C37.7403 14.7633 37.6118 15.0582 37.4528 15.3408C37.3059 15.6233 37.1775 15.8138 37.0673 15.9121C36.9572 16.0227 36.7554 16.1025 36.4617 16.1517C36.1803 16.2131 35.8683 16.25 35.5257 16.2623C35.1954 16.2745 34.8711 16.2623 34.553 16.2254C34.2349 16.1885 33.9841 16.121 33.8005 16.0227ZM36.1681 13.8479C36.2415 13.6759 36.2231 13.5899 36.113 13.5899C36.0029 13.5776 35.8132 13.6022 35.5441 13.6636C35.3361 13.7005 35.1464 13.7189 34.9751 13.7189C34.8038 13.7189 34.6937 13.7496 34.6448 13.8111C34.6081 13.8602 34.5897 13.9769 34.5897 14.1612C34.5897 14.3332 34.6325 14.4377 34.7182 14.4745C34.7916 14.4991 35.018 14.5237 35.3972 14.5483L36.0029 14.5667L36.0579 14.2718L36.1681 13.8479ZM41.0316 15.3039C40.7379 15.4145 40.481 15.396 40.2607 15.2486C40.0405 15.1012 39.912 14.8554 39.8753 14.5114C39.8509 14.3517 39.8631 14.1428 39.912 13.8848C39.9732 13.6268 40.0527 13.3503 40.1506 13.0554C40.2485 12.7483 40.3586 12.435 40.481 12.1155C40.6156 11.7961 40.7563 11.5012 40.9031 11.2309C41.0499 10.9483 41.1906 10.7087 41.3252 10.5121C41.472 10.3032 41.6005 10.1619 41.7106 10.0882C41.8452 10.0022 42.041 9.97762 42.2979 10.0145C42.5548 10.0513 42.7812 10.1435 42.977 10.2909C43.0626 10.3524 43.1972 10.4322 43.3807 10.5305C43.7967 10.7394 44.1393 10.979 44.4085 11.2493C44.6777 11.5073 44.9652 11.8882 45.2711 12.392C45.3567 12.5271 45.4362 12.6438 45.5096 12.7421C45.5831 12.8404 45.6504 12.9326 45.7115 13.0186C45.9195 13.2643 46.0358 13.4732 46.0602 13.6452C46.0847 13.8172 46.0296 14.0138 45.8951 14.235C45.7605 14.4438 45.6075 14.579 45.4362 14.6404C45.2649 14.7018 45.0875 14.7018 44.904 14.6404C44.7327 14.579 44.5614 14.45 44.3901 14.2534C44.2188 14.0691 44.072 13.8295 43.9497 13.5346C43.705 12.9694 43.2828 12.4595 42.6833 12.0049C42.6221 11.9681 42.5671 11.9742 42.5181 12.0234C42.457 12.0848 42.3652 12.2322 42.2428 12.4657C41.8391 13.2029 41.625 13.8049 41.6005 14.2718C41.6005 14.5298 41.5454 14.751 41.4353 14.9353C41.3252 15.1196 41.1906 15.2425 41.0316 15.3039ZM34.553 7.34214C34.4184 7.34214 34.2532 7.32985 34.0575 7.30528C33.8617 7.2807 33.6598 7.25613 33.4518 7.23156C33.2438 7.1947 33.0481 7.15784 32.8646 7.12098C32.6933 7.08412 32.5709 7.04726 32.4975 7.0104C32.1427 6.85067 31.9102 6.54965 31.8001 6.10733C31.69 5.66501 31.7267 5.17968 31.9102 4.65136C32.265 3.68071 32.6321 2.98651 33.0114 2.56877C33.1337 2.4459 33.1949 2.35989 33.1949 2.31075C33.2071 2.24931 33.1704 2.19402 33.0848 2.14488C32.9502 2.07116 32.8584 1.97286 32.8095 1.85C32.7606 1.72713 32.7422 1.59812 32.7544 1.46297C32.7789 1.32781 32.834 1.1988 32.9196 1.07594C33.0175 0.95307 33.1398 0.854777 33.2867 0.781058C33.3723 0.744197 33.4885 0.725767 33.6354 0.725767C33.7822 0.713481 33.9351 0.725768 34.0942 0.762628C34.2532 0.787201 34.4062 0.830204 34.553 0.891637C34.7121 0.95307 34.8467 1.02065 34.9568 1.09437C35.0424 1.18037 35.1158 1.22338 35.177 1.22338C35.2504 1.21109 35.385 1.16194 35.5808 1.07594C35.7398 1.00222 35.9417 0.971501 36.1864 0.983787C36.4311 0.996074 36.6514 1.04522 36.8471 1.13123C37.1897 1.29095 37.3793 1.45682 37.4161 1.62884C37.4528 1.78856 37.3549 2.04044 37.1224 2.38447C37.0368 2.50733 36.9939 2.5872 36.9939 2.62406C36.9939 2.66092 37.0306 2.71621 37.1041 2.78993C37.2876 2.96194 37.4283 3.20767 37.5262 3.52713C37.6241 3.84658 37.6791 4.19061 37.6913 4.55921C37.7036 4.91552 37.673 5.26569 37.5996 5.60972C37.5262 5.95374 37.4099 6.23634 37.2509 6.4575C37.1775 6.55579 37.0368 6.65408 36.8288 6.75238C36.6208 6.85067 36.3822 6.94896 36.113 7.04726C35.8438 7.13326 35.5685 7.20698 35.2871 7.26842C35.0057 7.31756 34.761 7.34214 34.553 7.34214ZM35.0485 5.62815C35.2076 5.64043 35.3972 5.59743 35.6175 5.49914C35.8499 5.38856 35.9906 5.18583 36.0396 4.89095C36.0885 4.59607 36.0396 4.29504 35.8928 3.98788C35.7949 3.79129 35.7031 3.66228 35.6175 3.60085C35.5441 3.52713 35.4095 3.45341 35.2137 3.37969L34.7549 3.23225C34.6815 3.21996 34.5714 3.29982 34.4245 3.47184C34.2777 3.63156 34.1309 3.82815 33.9841 4.0616C33.8372 4.28276 33.7088 4.51006 33.5987 4.74351C33.4885 4.96467 33.4396 5.13054 33.4518 5.24112C33.4763 5.32712 33.5375 5.37627 33.6354 5.38856C34.0147 5.46228 34.3205 5.51757 34.553 5.55443C34.7855 5.59129 34.9507 5.61586 35.0485 5.62815ZM44.1148 3.65614C44.3351 4.1476 44.4941 4.0616 44.592 3.39812L44.6471 3.1401C44.6838 2.8575 44.696 2.67935 44.6838 2.60563C44.6715 2.53191 44.6165 2.4459 44.5186 2.34761C44.4207 2.28617 44.3534 2.26774 44.3167 2.29232C44.28 2.3046 44.225 2.37832 44.1515 2.51348C43.9558 2.86979 43.9435 3.25068 44.1148 3.65614Z" fill="currentColor"/>
<path d="M53.84 15.7278C53.5218 15.6541 53.2771 15.6172 53.1059 15.6172C52.9101 15.6172 52.6654 15.5742 52.3717 15.4882C52.0903 15.4145 51.8701 15.3285 51.711 15.2302C51.4663 15.0827 51.295 14.8616 51.1972 14.5667C51.0993 14.2841 51.0503 13.8848 51.0503 13.3687C51.0503 12.9387 51.0259 12.6684 50.9769 12.5578C50.879 12.2875 50.879 12.0111 50.9769 11.7285C51.0748 11.4336 51.2339 11.237 51.4541 11.1387C51.7355 11.0036 52.0597 11.0281 52.4268 11.2124C52.5124 11.2493 52.5797 11.2862 52.6287 11.323C52.6776 11.3599 52.7143 11.409 52.7388 11.4705C52.7755 11.5319 52.7939 11.6118 52.7939 11.71C52.8061 11.8083 52.8122 11.9373 52.8122 12.0971C52.8122 12.2322 52.8122 12.3428 52.8122 12.4288C52.8122 12.5025 52.8183 12.5763 52.8306 12.65C52.8428 12.7114 52.8612 12.7728 52.8856 12.8343C52.9101 12.8957 52.9407 12.9756 52.9774 13.0739C53.0386 13.2213 53.0875 13.3319 53.1242 13.4056C53.1609 13.4793 53.1976 13.5346 53.2343 13.5715C53.2833 13.596 53.3444 13.6145 53.4179 13.6268C53.4913 13.6391 53.5953 13.6513 53.7299 13.6636C53.8889 13.6882 54.048 13.7189 54.207 13.7558C54.3783 13.7803 54.5496 13.8172 54.7209 13.8664C55.0268 13.9646 55.2654 14.0199 55.4367 14.0322C55.5101 14.0445 55.6263 14.0445 55.7854 14.0322C55.9567 14.0322 56.1402 14.0138 56.336 13.9769C56.5317 13.9524 56.7336 13.9216 56.9416 13.8848C57.1496 13.8479 57.3392 13.8111 57.5105 13.7742C58.1957 13.5899 58.8686 13.553 59.5293 13.6636C59.7251 13.6882 59.9392 13.7005 60.1717 13.7005C60.4164 13.6882 60.6856 13.6698 60.9792 13.6452C61.0649 13.6452 61.1689 13.6636 61.2912 13.7005C61.4136 13.7373 61.5359 13.7926 61.6583 13.8664C61.7929 13.9278 61.9152 13.9954 62.0253 14.0691C62.1354 14.1551 62.2211 14.235 62.2823 14.3087C62.4046 14.493 62.4658 14.6711 62.4658 14.8431C62.4658 15.0152 62.4107 15.1565 62.3006 15.267C62.2027 15.3899 62.062 15.4759 61.8785 15.5251C61.7072 15.5865 61.5114 15.5926 61.2912 15.5435C61.1322 15.5066 60.9425 15.5005 60.7223 15.5251C60.6366 15.5373 60.4959 15.5373 60.3002 15.5251C60.1166 15.5251 59.8842 15.5128 59.6028 15.4882C59.0522 15.4513 58.6606 15.4636 58.4282 15.5251C56.6174 15.9674 55.088 16.0349 53.84 15.7278ZM58.7218 9.86705C58.6729 9.87933 58.5566 9.89162 58.3731 9.9039C58.2018 9.9039 57.9938 9.9039 57.7491 9.9039C57.5044 9.9039 57.2475 9.9039 56.9783 9.9039C56.7091 9.9039 56.4583 9.9039 56.2258 9.9039C55.9934 9.89162 55.7976 9.87933 55.6385 9.86705C55.4795 9.85476 55.3938 9.84247 55.3816 9.83019C55.247 9.75647 54.0235 9.70117 51.711 9.66431C51.0748 9.65203 50.567 9.64588 50.1878 9.64588C49.8085 9.6336 49.5515 9.61517 49.4169 9.5906C49.1478 9.57831 48.9459 9.4923 48.8113 9.33258C48.7256 9.24657 48.6706 9.13599 48.6461 9.00084C48.6339 8.86568 48.6461 8.73053 48.6828 8.59537C48.7195 8.46022 48.7807 8.33121 48.8664 8.20835C48.952 8.08548 49.0621 7.99333 49.1967 7.9319C49.3435 7.85818 49.5148 7.82132 49.7106 7.82132C49.8085 7.8336 49.9553 7.85203 50.151 7.87661C50.359 7.90118 50.616 7.94418 50.9219 8.00562C51.5581 8.09162 52.0597 8.09162 52.4268 8.00562C52.904 7.89504 53.8338 7.88275 55.2164 7.96876C56.3176 8.03019 57.2108 8.06705 57.8959 8.07934C58.5811 8.07934 59.0644 8.04862 59.3458 7.98719L59.6578 7.9319L60.0249 7.85818C60.1228 7.8336 60.2573 7.81517 60.4286 7.80289C60.5999 7.7906 60.7835 7.78446 60.9792 7.78446C61.175 7.77217 61.3646 7.77217 61.5482 7.78446C61.7317 7.79674 61.8785 7.80903 61.9886 7.82132C62.0865 7.84589 62.1844 7.86432 62.2823 7.87661C62.3924 7.88889 62.4964 7.90118 62.5943 7.91347C62.7656 7.93804 62.9001 8.0179 62.998 8.15306C63.1081 8.27592 63.1693 8.42336 63.1816 8.59537C63.206 8.7551 63.1816 8.92097 63.1081 9.09299C63.047 9.25271 62.9369 9.37558 62.7778 9.46158C62.6799 9.52302 62.5576 9.57217 62.4107 9.60903C62.2639 9.64589 62.111 9.6766 61.9519 9.70118C61.8051 9.71346 61.6583 9.71346 61.5115 9.70118C61.3769 9.68889 61.2667 9.66432 61.1811 9.62746C60.9976 9.54145 60.6489 9.54759 60.135 9.64588C59.9759 9.67046 59.8291 9.69503 59.6945 9.71961C59.5599 9.74418 59.4437 9.76261 59.3458 9.77489C59.2602 9.78718 59.1623 9.79947 59.0522 9.81176C58.9543 9.82404 58.8442 9.84247 58.7218 9.86705ZM53.4362 6.29163C52.5797 6.27934 52.0108 6.07047 51.7294 5.66501C51.6437 5.55443 51.607 5.34555 51.6193 5.03839C51.6315 4.73122 51.6132 4.49777 51.5642 4.33805C51.4908 4.1046 51.4847 3.89573 51.5459 3.71143C51.6315 3.50255 51.5153 3.20153 51.1972 2.80836C51.087 2.6732 51.0259 2.55648 51.0136 2.45819C51.0014 2.34761 51.0381 2.2186 51.1238 2.07116C51.2094 1.92372 51.2706 1.78856 51.3073 1.6657C51.3562 1.44454 51.5214 1.26638 51.8028 1.13123C51.9252 1.06979 52.0597 1.03293 52.2066 1.02065C52.3534 1.00836 52.488 1.02065 52.6103 1.05751C52.7449 1.08208 52.8673 1.13123 52.9774 1.20495C53.0875 1.26638 53.167 1.34624 53.216 1.44454C53.2894 1.59198 53.271 2.33532 53.1609 3.67457C53.1487 3.88344 53.1364 4.04317 53.1242 4.15375C53.1242 4.25204 53.1364 4.32576 53.1609 4.37491C53.1976 4.42405 53.2527 4.44863 53.3261 4.44863C53.3995 4.44863 53.5096 4.43634 53.6564 4.41177C53.7788 4.39948 53.8889 4.39334 53.9868 4.39334C54.0847 4.38105 54.1826 4.38105 54.2804 4.39334C54.415 4.40562 54.568 4.41177 54.7393 4.41177C54.9105 4.41177 55.0757 4.40562 55.2348 4.39334C55.4061 4.36876 55.559 4.34419 55.6936 4.31962C55.8404 4.28276 55.9505 4.2459 56.024 4.20904C56.2075 4.12303 56.44 4.05545 56.7214 4.00631C57.015 3.94487 57.3087 3.90801 57.6023 3.89573C57.9082 3.87115 58.1957 3.87115 58.4649 3.89573C58.7463 3.90801 58.9726 3.94487 59.1439 4.00631C59.3152 4.06774 59.5171 4.12303 59.7496 4.17218C59.982 4.20904 60.2512 4.23975 60.5571 4.26433C60.9486 4.30119 61.23 4.39334 61.4013 4.54078C61.5849 4.68822 61.6766 4.90938 61.6766 5.20426C61.7011 5.83088 61.1444 6.08275 60.0065 5.95989C59.6517 5.91074 59.3948 5.85545 59.2357 5.79402C59.1011 5.74487 58.9359 5.70801 58.7402 5.68344C58.5444 5.65886 58.3303 5.65272 58.0978 5.66501C57.8654 5.66501 57.6268 5.68344 57.3821 5.7203C57.1496 5.75716 56.9232 5.80016 56.703 5.84931C55.3938 6.18105 54.3049 6.32849 53.4362 6.29163Z" fill="currentColor"/>
<path d="M74.7537 16.207C74.509 16.1824 74.301 16.1455 74.1297 16.0964C73.9707 16.0595 73.8239 16.0288 73.6893 16.0042C73.5669 15.9797 73.4507 15.9612 73.3406 15.9489C73.2304 15.9367 73.1081 15.9489 72.9735 15.9858C72.0192 16.1824 71.2055 16.3237 70.5326 16.4097C69.8596 16.4957 69.2724 16.5203 68.7707 16.4834C68.2813 16.4466 67.8531 16.3421 67.486 16.1701C67.119 16.0104 66.7641 15.7831 66.4215 15.4882C66.2013 15.3039 66.03 15.0827 65.9077 14.8247C65.7853 14.5667 65.7058 14.2902 65.6691 13.9954C65.6446 13.7128 65.663 13.424 65.7241 13.1292C65.7853 12.8343 65.8954 12.5578 66.0545 12.2998C66.1646 12.1401 66.2808 12.0234 66.4032 11.9496C66.5378 11.8759 66.6907 11.8391 66.862 11.8391C67.0455 11.8268 67.2535 11.8452 67.486 11.8943C67.7307 11.9312 68.0182 11.9804 68.3486 12.0418C68.3853 12.0541 68.4465 12.0602 68.5321 12.0602C68.63 12.0479 68.7401 12.0418 68.8625 12.0418C68.9971 12.0295 69.1316 12.0234 69.2662 12.0234C69.4131 12.0234 69.5476 12.0356 69.67 12.0602C70.1349 12.1462 70.4836 12.2077 70.7161 12.2445C70.9608 12.2691 71.1505 12.2814 71.285 12.2814C71.4319 12.2814 71.5603 12.2629 71.6705 12.2261C71.7928 12.1892 71.9641 12.1462 72.1843 12.0971C72.4168 12.0356 72.686 11.9804 72.9919 11.9312C73.2977 11.8698 73.573 11.8083 73.8177 11.7469C73.9034 11.7223 74.0074 11.7039 74.1297 11.6916C74.2521 11.6793 74.3683 11.6732 74.4784 11.6732C74.6008 11.6609 74.7109 11.6548 74.8088 11.6548C74.9067 11.6425 74.9801 11.6179 75.029 11.581C75.3227 11.4827 75.494 11.4029 75.5429 11.3414C75.6041 11.2677 75.6041 11.2063 75.5429 11.1571C75.4817 11.108 75.3594 11.0589 75.1758 11.0097C75.1391 10.9974 74.9067 11.0036 74.4784 11.0281C74.0624 11.0527 73.5424 11.0834 72.9184 11.1203C72.3067 11.1571 71.6338 11.194 70.8996 11.2309C70.1778 11.2554 69.4987 11.2554 68.8625 11.2309C68.5933 11.2186 68.3669 11.2247 68.1834 11.2493C67.9999 11.2739 67.8592 11.28 67.7613 11.2677C67.5411 11.2554 67.3698 11.2063 67.2474 11.1203C67.1495 11.0589 67.0761 10.9728 67.0272 10.8623C66.9905 10.7517 66.9782 10.635 66.9905 10.5121C67.0027 10.3892 67.0394 10.2664 67.1006 10.1435C67.174 10.0206 67.2719 9.91005 67.3942 9.81176C67.7246 9.56602 68.0794 9.41858 68.4587 9.36944C68.6545 9.34486 68.942 9.33872 69.3213 9.351C69.7006 9.351 70.1655 9.36329 70.7161 9.38787C70.9853 9.41244 71.2178 9.42473 71.4135 9.42473C71.6215 9.42473 71.8234 9.41858 72.0192 9.4063C72.2149 9.39401 72.4168 9.37558 72.6248 9.351C72.845 9.31415 73.1081 9.27114 73.414 9.22199C73.622 9.19742 73.8177 9.18514 74.0013 9.18514C74.197 9.17285 74.3928 9.17899 74.5886 9.20357C74.821 9.22814 75.0474 9.27114 75.2676 9.33258C75.4878 9.38172 75.7081 9.42472 75.9283 9.46158C76.4544 9.49844 76.8765 9.54145 77.1947 9.5906C77.525 9.63974 77.7391 9.79947 77.837 10.0698C77.8982 10.2664 77.9165 10.4752 77.8921 10.6964C77.8676 10.9053 77.837 11.108 77.8003 11.3046C77.7269 11.6118 77.6474 11.8636 77.5617 12.0602C77.4761 12.2568 77.3415 12.4227 77.158 12.5578C76.9867 12.6807 76.7481 12.7913 76.4422 12.8896C76.1485 12.9756 75.757 13.0616 75.2676 13.1476L74.0013 13.5162C72.8879 13.8725 72.1354 14.0015 71.7439 13.9032C71.6337 13.8664 71.3585 13.8295 70.918 13.7926C70.6733 13.7681 70.4163 13.7435 70.1472 13.7189C69.8902 13.6943 69.6211 13.6575 69.3396 13.6083C69.0705 13.5592 68.8564 13.5285 68.6973 13.5162C68.5382 13.4916 68.4281 13.4793 68.3669 13.4793C68.2568 13.5039 68.1406 13.5285 68.0182 13.553C67.9081 13.5776 67.8408 13.6391 67.8164 13.7373C67.7674 13.8848 67.7674 14.0015 67.8164 14.0875C67.8775 14.1735 67.9571 14.2411 68.0549 14.2902C68.1651 14.3394 68.2813 14.3763 68.4036 14.4008C68.5382 14.4254 68.6545 14.4561 68.7524 14.493C69.1439 14.6281 69.5538 14.6896 69.982 14.6773C70.4102 14.6773 70.8262 14.6281 71.23 14.5298C71.4992 14.4684 71.7745 14.4315 72.0559 14.4193C72.3373 14.4193 72.6187 14.4315 72.9001 14.4561L73.6893 14.493C73.8239 14.493 73.9646 14.4807 74.1114 14.4561C74.2582 14.4315 74.3989 14.4193 74.5335 14.4193C74.6681 14.4193 74.8027 14.4254 74.9373 14.4377C75.0841 14.45 75.2248 14.4623 75.3594 14.4745L77.1212 14.6588C77.4271 14.6957 77.6657 14.7879 77.837 14.9353C78.0083 15.1073 78.0511 15.2977 77.9655 15.5066C77.8798 15.7155 77.6412 15.9121 77.2497 16.0964C77.0417 16.1947 76.7542 16.2561 76.3871 16.2807C76.0201 16.3053 75.4756 16.2807 74.7537 16.207ZM66.4215 7.72917C65.8343 8.03633 65.2959 7.96261 64.8065 7.50801C64.6719 7.39743 64.5679 7.28685 64.4945 7.17627C64.4211 7.0534 64.366 6.9121 64.3293 6.75238C64.3049 6.58036 64.2926 6.37763 64.2926 6.14419C64.2926 5.91074 64.311 5.61586 64.3477 5.25955C64.4089 4.49777 64.4272 3.78515 64.4027 3.12167C64.4027 2.90051 64.4089 2.72235 64.4211 2.5872C64.4333 2.45204 64.4578 2.34146 64.4945 2.25546C64.5434 2.15716 64.6046 2.08344 64.678 2.0343C64.7637 1.97286 64.8738 1.92372 65.0084 1.88686C65.2041 1.82542 65.4121 1.82542 65.6324 1.88686C65.8526 1.94829 66.0178 2.05887 66.1279 2.2186C66.2013 2.31689 66.238 2.43976 66.238 2.5872L66.183 3.61928C66.1585 3.85272 66.1401 4.08617 66.1279 4.31962C66.1157 4.54078 66.1034 4.77422 66.0912 5.01996C66.079 5.48685 66.0851 5.73258 66.1095 5.75716C66.1218 5.79402 66.2625 5.78173 66.5317 5.7203C66.6418 5.69572 66.7519 5.67115 66.862 5.64658C66.9844 5.622 67.1128 5.60357 67.2474 5.59129C67.431 5.579 67.7735 5.52371 68.2752 5.42542C68.5811 5.36398 68.8441 5.32098 69.0644 5.29641C69.2968 5.27183 69.5109 5.25955 69.7067 5.25955C69.9147 5.25955 70.1105 5.27798 70.294 5.31484C70.4898 5.33941 70.7039 5.37627 70.9363 5.42542C71.5603 5.59743 71.9947 5.85545 72.2394 6.19948C72.4841 6.53122 72.4657 6.86296 72.1843 7.1947C71.9763 7.41586 71.7561 7.52029 71.5236 7.50801C71.2912 7.48343 70.973 7.32985 70.5693 7.04726C70.3735 6.9121 70.1961 6.84453 70.0371 6.84453C69.8658 6.84453 69.5599 6.89982 69.1194 7.0104C68.7034 7.0964 68.2874 7.17012 67.8714 7.23156C67.4799 7.26842 67.1862 7.33599 66.9905 7.43429L66.4215 7.72917ZM75.6163 8.74282C75.5918 8.8534 75.5062 8.92712 75.3594 8.96398C75.2125 9.00084 75.0535 9.00698 74.8822 8.9824C74.7109 8.95783 74.5457 8.90869 74.3867 8.83497C74.2399 8.74896 74.1542 8.65067 74.1297 8.54009C74.0808 8.3435 74.0502 8.14691 74.038 7.95033C74.0257 7.75374 74.0257 7.55715 74.038 7.36057C74.0747 6.83224 74.0563 6.44521 73.9829 6.19948C73.9217 5.95374 73.7871 5.73258 73.5791 5.536C73.2733 5.2534 73.0836 4.95238 73.0102 4.63293C72.949 4.30119 73.0041 3.90187 73.1754 3.43498C73.2243 3.28754 73.261 3.16467 73.2855 3.06638C73.3222 2.96808 73.3344 2.87593 73.3222 2.78993C73.31 2.70392 73.2794 2.61177 73.2304 2.51348C73.1937 2.4029 73.1387 2.2616 73.0653 2.08959C72.9062 1.74556 72.8634 1.43225 72.9368 1.14966C73.0102 0.854777 73.1754 0.652047 73.4323 0.541467C73.518 0.504607 73.6281 0.492321 73.7627 0.504608C73.8973 0.504608 74.0257 0.523038 74.1481 0.559897C74.2827 0.596757 74.405 0.652047 74.5151 0.725767C74.6253 0.799487 74.6987 0.87935 74.7354 0.965357C74.9311 1.34624 75.029 2.0343 75.029 3.02952C75.029 3.60699 75.0413 3.9203 75.0657 3.96945C75.078 3.98173 75.4144 3.98788 76.0751 3.98788C76.9805 3.98788 77.6168 4.08003 77.9838 4.26433C78.3509 4.46091 78.5222 4.79265 78.4977 5.25955C78.4732 5.55443 78.3509 5.7633 78.1306 5.88617C77.9226 5.99675 77.6657 5.99675 77.3598 5.88617C77.2987 5.86159 77.2008 5.84316 77.0662 5.83088C76.9316 5.8063 76.7848 5.78787 76.6257 5.77559C76.4789 5.7633 76.3321 5.75716 76.1852 5.75716C76.0507 5.75716 75.9589 5.7633 75.91 5.77559C75.8488 5.80016 75.8121 5.83702 75.7998 5.88617C75.7876 5.93531 75.7815 6.16262 75.7815 6.56808C75.7815 7.48958 75.7264 8.21449 75.6163 8.74282Z" fill="currentColor"/>
</svg>
