<svg viewBox="0 0 16 16" fill="none" xmlns="http://www.w3.org/2000/svg">
<g clip-path="url(#clip0_456_4202)">
<path d="M-53.2761 18.4172L-61.7339 9.92664L-53.2706 1.46339L-51.6673 -0.1399V20.0322V25.9247L-48.334 29.2816V39.1383C-43.1767 50.5521 -34.3481 59.9527 -23.3546 65.8335H-12.0395L-7.07476 70.8335H9.99932V65.8335H15.141V64.1669H41.9477L46.9477 59.1669H64.9993V64.1669H41.9477L33.6144 72.5002H3.33266C0.0786743 72.5002 -3.11132 72.2258 -6.21544 71.6989L-7.07476 70.8335H-10.3628C-14.9381 69.6976 -19.294 68.0057 -23.3546 65.8335H-48.334V39.1383C-49.72 36.0708 -50.8409 32.858 -51.6673 29.529V25.9247L-52.5983 24.9871C-52.9479 22.8354 -53.1762 20.643 -53.2761 18.4172Z" fill="#65696D"/>
<path d="M10.4381 5.61186C10.3817 5.55137 10.2858 5.55137 10.2293 5.61186L9.76651 6.10775C9.71537 6.16254 9.71529 6.24754 9.76632 6.30243L10.6566 7.25996C10.7415 7.35131 10.6767 7.5 10.552 7.5H6.27655C6.19768 7.5 6.13374 7.56394 6.13374 7.64281V8.35719C6.13374 8.43606 6.19768 8.5 6.27655 8.5H10.5511C10.676 8.5 10.7407 8.64896 10.6555 8.74025L9.76636 9.6929C9.71529 9.74763 9.71514 9.83251 9.76602 9.88741L10.2294 10.3874C10.2857 10.4482 10.3819 10.4484 10.4385 10.3877L12.5761 8.09744C12.6273 8.04257 12.6273 7.95743 12.5761 7.90256L10.4381 5.61186ZM4.26707 4.64281C4.26707 4.56394 4.33101 4.5 4.40988 4.5H7.8576C7.93647 4.5 8.00041 4.43606 8.00041 4.35719V3.64281C8.00041 3.56394 7.93647 3.5 7.8576 3.5H4.26707C3.75374 3.5 3.33374 3.95 3.33374 4.5V11.5C3.33374 12.05 3.75374 12.5 4.26707 12.5H7.8576C7.93647 12.5 8.00041 12.4361 8.00041 12.3572V11.6428C8.00041 11.5639 7.93647 11.5 7.8576 11.5H4.40988C4.33101 11.5 4.26707 11.4361 4.26707 11.3572V4.64281Z" fill="#65696D"/>
</g>
<defs>
<clipPath id="clip0_456_4202">
<rect width="16" height="16" fill="white" transform="translate(0.000488281)"/>
</clipPath>
</defs>
</svg>
