<svg viewBox="0 0 25 25" fill="none" xmlns="http://www.w3.org/2000/svg">
<path d="M9.54145 5.88889H7.65256C7.1516 5.88889 6.67115 6.0879 6.31691 6.44213C5.96268 6.79637 5.76367 7.27681 5.76367 7.77778V19.1111C5.76367 19.6121 5.96268 20.0925 6.31691 20.4468C6.67115 20.801 7.1516 21 7.65256 21H17.097C17.598 21 18.0784 20.801 18.4327 20.4468C18.7869 20.0925 18.9859 19.6121 18.9859 19.1111V7.77778C18.9859 7.27681 18.7869 6.79637 18.4327 6.44213C18.0784 6.0879 17.598 5.88889 17.097 5.88889H15.2081M9.54145 5.88889C9.54145 6.38985 9.74046 6.8703 10.0947 7.22454C10.4489 7.57877 10.9294 7.77778 11.4303 7.77778H13.3192C13.8202 7.77778 14.3006 7.57877 14.6549 7.22454C15.0091 6.8703 15.2081 6.38985 15.2081 5.88889M9.54145 5.88889C9.54145 5.38792 9.74046 4.90748 10.0947 4.55324C10.4489 4.19901 10.9294 4 11.4303 4H13.3192C13.8202 4 14.3006 4.19901 14.6549 4.55324C15.0091 4.90748 15.2081 5.38792 15.2081 5.88889M9.54145 14.3889L11.4303 16.2778L15.2081 12.5" stroke="#979B9F" stroke-width="1.5" stroke-linecap="round" stroke-linejoin="round"/>
</svg>
