<svg viewBox="0 0 25 25" fill="none" xmlns="http://www.w3.org/2000/svg">
<path d="M5.375 7.1875C5.375 5.42709 6.82146 4 8.60577 4H16.1442C17.9285 4 19.375 5.42709 19.375 7.1875V17.8125C19.375 19.5729 17.9285 21 16.1442 21H8.60577C6.82146 21 5.375 19.5729 5.375 17.8125V7.1875Z" fill="#FF5735"/>
<path d="M8.06731 7.73583C8.06731 7.38375 8.3566 7.09833 8.71346 7.09833H16.0365C16.3934 7.09833 16.6827 7.38375 16.6827 7.73583C16.6827 8.08791 16.3934 8.37333 16.0365 8.37333H8.71346C8.3566 8.37333 8.06731 8.08791 8.06731 7.73583Z" fill="white"/>
<path d="M8.06731 10.9233C8.06731 10.5712 8.3566 10.2858 8.71346 10.2858H13.8827C14.2396 10.2858 14.5288 10.5712 14.5288 10.9233C14.5288 11.2754 14.2396 11.5608 13.8827 11.5608H8.71346C8.3566 11.5608 8.06731 11.2754 8.06731 10.9233Z" fill="white"/>
<path d="M8.06731 14.1108C8.06731 13.7587 8.3566 13.4733 8.71346 13.4733H11.7288C12.0857 13.4733 12.375 13.7587 12.375 14.1108C12.375 14.4629 12.0857 14.7483 11.7288 14.7483H8.71346C8.3566 14.7483 8.06731 14.4629 8.06731 14.1108Z" fill="white"/>
</svg>
