<svg viewBox="0 0 25 25" fill="none" xmlns="http://www.w3.org/2000/svg">
<path d="M16.3755 4C18.0321 4.00026 19.3755 5.34429 19.3755 7.00098V18.001C19.3752 19.6574 18.032 21.0007 16.3755 21.001H8.37549C6.7188 21.001 5.37478 19.6576 5.37451 18.001V7.00098C5.37451 5.34412 6.71863 4 8.37549 4H16.3755ZM8.37549 5.30078C7.4366 5.30078 6.67529 6.06209 6.67529 7.00098V18.001C6.67556 18.9396 7.43677 19.7012 8.37549 19.7012H16.3755C17.314 19.7009 18.0754 18.9395 18.0757 18.001V7.00098C18.0757 6.06226 17.3141 5.30105 16.3755 5.30078H8.37549ZM11.7378 13.4736C12.0898 13.4738 12.3755 13.7593 12.3755 14.1113C12.3755 14.4633 12.0898 14.7489 11.7378 14.749H8.70459C8.35264 14.7489 8.06787 14.4633 8.06787 14.1113C8.06789 13.7594 8.35265 13.4738 8.70459 13.4736H11.7378ZM13.8911 10.2861C14.2432 10.2861 14.5288 10.5718 14.5288 10.9238C14.5288 11.2759 14.2432 11.5615 13.8911 11.5615H8.70459C8.35264 11.5614 8.06787 11.2758 8.06787 10.9238C8.06789 10.5719 8.35265 10.2863 8.70459 10.2861H13.8911ZM16.0454 7.09863C16.3974 7.09871 16.6831 7.38431 16.6831 7.73633C16.6831 8.08836 16.3974 8.37395 16.0454 8.37402H8.70459C8.35264 8.37387 8.06787 8.08831 8.06787 7.73633C8.06789 7.38436 8.35265 7.09879 8.70459 7.09863H16.0454Z" fill="#979B9F"/>
</svg>
