<svg viewBox="0 0 25 25" fill="none" xmlns="http://www.w3.org/2000/svg">
<path d="M11.3125 4C11.0307 4 10.7605 4.11194 10.5612 4.3112C10.3619 4.51046 10.25 4.78071 10.25 5.0625C10.25 5.34429 10.3619 5.61454 10.5612 5.8138C10.7605 6.01306 11.0307 6.125 11.3125 6.125H13.4375C13.7193 6.125 13.9895 6.01306 14.1888 5.8138C14.3881 5.61454 14.5 5.34429 14.5 5.0625C14.5 4.78071 14.3881 4.51046 14.1888 4.3112C13.9895 4.11194 13.7193 4 13.4375 4H11.3125Z" fill="#FF5735"/>
<path fill-rule="evenodd" clip-rule="evenodd" d="M6 7.1875C6 6.62391 6.22388 6.08341 6.6224 5.6849C7.02091 5.28638 7.56141 5.0625 8.125 5.0625C8.125 5.90788 8.46082 6.71863 9.0586 7.3164C9.65637 7.91418 10.4671 8.25 11.3125 8.25H13.4375C14.2829 8.25 15.0936 7.91418 15.6914 7.3164C16.2892 6.71863 16.625 5.90788 16.625 5.0625C17.1886 5.0625 17.7291 5.28638 18.1276 5.6849C18.5261 6.08341 18.75 6.62391 18.75 7.1875V18.875C18.75 19.4386 18.5261 19.9791 18.1276 20.3776C17.7291 20.7761 17.1886 21 16.625 21H8.125C7.56141 21 7.02091 20.7761 6.6224 20.3776C6.22388 19.9791 6 19.4386 6 18.875V7.1875ZM16.3137 13.2512C16.5072 13.0508 16.6143 12.7824 16.6119 12.5038C16.6095 12.2252 16.4977 11.9588 16.3007 11.7618C16.1037 11.5648 15.8373 11.453 15.5587 11.4506C15.2801 11.4482 15.0117 11.5553 14.8113 11.7488L11.3125 15.2476L9.93869 13.8738C9.7383 13.6803 9.46991 13.5732 9.19132 13.5756C8.91274 13.578 8.64625 13.6898 8.44926 13.8868C8.25226 14.0838 8.14052 14.3502 8.1381 14.6288C8.13568 14.9074 8.24277 15.1758 8.43631 15.3762L10.5613 17.5012C10.7606 17.7004 11.0308 17.8123 11.3125 17.8123C11.5942 17.8123 11.8644 17.7004 12.0637 17.5012L16.3137 13.2512Z" fill="#FF5735"/>
</svg>
