<svg viewBox="0 0 24 25" fill="none" xmlns="http://www.w3.org/2000/svg">
<path d="M8.1481 9.49593C8.8441 10.9455 9.79288 12.3042 10.9945 13.5058C12.196 14.7073 13.5547 15.6561 15.0043 16.3521C15.129 16.412 15.1913 16.4419 15.2702 16.4649C15.5506 16.5467 15.8948 16.488 16.1323 16.3179C16.1991 16.2701 16.2562 16.2129 16.3706 16.0986C16.7202 15.749 16.895 15.5742 17.0707 15.4599C17.7336 15.0289 18.5882 15.0289 19.2511 15.4599C19.4269 15.5742 19.6017 15.749 19.9513 16.0986L20.1462 16.2935C20.6776 16.8249 20.9433 17.0907 21.0877 17.376C21.3747 17.9436 21.3747 18.6139 21.0877 19.1814C20.9433 19.4668 20.6776 19.7325 20.1462 20.264L19.9885 20.4216C19.4589 20.9512 19.1941 21.216 18.8341 21.4183C18.4345 21.6427 17.8141 21.8041 17.3558 21.8027C16.9429 21.8015 16.6607 21.7214 16.0962 21.5612C13.0628 20.7002 10.2005 19.0757 7.81248 16.6877C5.4245 14.2998 3.80003 11.4374 2.93906 8.40401C2.77885 7.83957 2.69875 7.55734 2.69752 7.1444C2.69615 6.68618 2.85752 6.06568 3.08194 5.66618C3.28418 5.30615 3.549 5.04133 4.07862 4.51171L4.23625 4.35408C4.7677 3.82263 5.03342 3.55691 5.3188 3.41257C5.88636 3.1255 6.55663 3.1255 7.12419 3.41257C7.40957 3.55691 7.67529 3.82263 8.20673 4.35408L8.4016 4.54895C8.75121 4.89855 8.92601 5.07335 9.0403 5.24913C9.47129 5.91202 9.47129 6.7666 9.04029 7.42949C8.92601 7.60527 8.75121 7.78008 8.4016 8.12968C8.28729 8.24399 8.23013 8.30115 8.18229 8.36796C8.01228 8.60539 7.95358 8.94965 8.0353 9.23C8.0583 9.3089 8.08823 9.37124 8.1481 9.49593Z" fill="currentColor"/>
</svg>
