<svg viewBox="0 0 25 25" fill="none" xmlns="http://www.w3.org/2000/svg">
<path fill-rule="evenodd" clip-rule="evenodd" d="M12.1251 4.05005C9.69255 4.05005 7.72059 6.02221 7.72059 8.45499C7.72059 10.8878 9.69255 12.8599 12.1251 12.8599C14.5576 12.8599 16.5296 10.8878 16.5296 8.45499C16.5296 6.02221 14.5576 4.05005 12.1251 4.05005ZM9.33856 8.45499C9.33856 6.91588 10.5861 5.66819 12.1251 5.66819C13.664 5.66819 14.9116 6.91588 14.9116 8.45499C14.9116 9.99409 13.664 11.2418 12.1251 11.2418C10.5861 11.2418 9.33856 9.99409 9.33856 8.45499Z" fill="#979B9F"/>
<path fill-rule="evenodd" clip-rule="evenodd" d="M12.125 13.9373C10.0469 13.9373 8.10758 14.3441 6.65654 15.1258C5.20654 15.9069 4.12501 17.1432 4.12501 18.7917L4.125 19.0863C4.12498 19.2541 4.12495 19.4249 4.13688 19.5709C4.15015 19.7334 4.18213 19.935 4.28667 20.1402C4.42887 20.4193 4.65578 20.6462 4.93487 20.7884C5.14004 20.893 5.34162 20.9249 5.50407 20.9382C5.65008 20.9501 5.8209 20.9501 5.98868 20.95L18.2615 20.9493C18.4293 20.9493 18.6001 20.9494 18.7461 20.9374C18.9085 20.9241 19.1101 20.8921 19.3152 20.7876C19.5943 20.6454 19.8212 20.4185 19.9634 20.1394C20.0679 19.9342 20.0999 19.7326 20.1131 19.5702C20.1251 19.4242 20.125 19.2533 20.125 19.0856L20.125 18.7917C20.125 17.1432 19.0435 15.9069 17.5935 15.1258C16.1424 14.3441 14.2031 13.9373 12.125 13.9373ZM5.74298 18.7917C5.74298 17.9578 6.27121 17.1714 7.42384 16.5504C8.57544 15.93 10.2317 15.5554 12.125 15.5554C14.0183 15.5554 15.6746 15.93 16.8262 16.5504C17.9788 17.1714 18.507 17.9578 18.507 18.7917L18.5054 19.3295L5.74461 19.3303L5.74298 18.7917Z" fill="#979B9F"/>
</svg>
