<svg width="135" height="135" viewBox="0 0 135 135" fill="none" xmlns="http://www.w3.org/2000/svg">
<rect width="135" height="135" rx="20" fill="#FF5735"/>
<path d="M102.747 72.1863C102.478 83.5466 87.5939 98.4404 79.0859 105.247C81.8645 111.873 77.9278 114.064 75.6123 114.331C70.0742 114.331 58.6027 113.797 53.4375 114.331C46.3842 114.545 46.0453 108.364 46.7578 105.247C29.5866 95.0842 25.0093 81.115 24.751 72.2888C32.2535 74.6531 44.4114 77.2993 58.1328 78.0955C72.1822 78.9106 88.2491 77.8094 102.747 72.1863ZM60.6514 37.3865C68.7732 32.257 76.3252 37.9202 79.0859 41.3933C85.9251 40.7523 88.5254 47.1822 88.9707 50.4773C94.3141 51.3322 95.8279 57.7802 95.917 60.8972C97.9693 61.3533 99.3043 61.8737 100.174 62.5037C100.066 62.5388 99.9568 62.5769 99.8496 62.6199C86.9933 67.7787 72.1997 68.9289 58.71 68.1462C45.2433 67.3649 33.4677 64.6815 26.8916 62.5125C26.865 62.5037 26.8381 62.4963 26.8115 62.488C28.7769 60.1472 31.9955 59.2034 33.9346 59.0271C34.362 50.2643 42.6611 44.6891 46.7578 42.9968C49.9639 37.0122 57.3563 36.763 60.6514 37.3865Z" fill="white"/>
<path d="M25.88 70.893L25.9286 70.9027L25.987 70.9125C26.3587 70.9794 26.7252 71.0781 27.0771 71.2142L27.116 71.2336L27.1647 71.2531C27.7242 71.4694 28.1545 71.8615 28.4786 72.314L28.4883 72.3334C28.9005 72.317 29.3078 72.3548 29.7049 72.4697L29.7536 72.4794L29.8022 72.4989C29.8999 72.5272 30.0256 72.5427 30.1818 72.5183L30.2305 72.5086L30.2889 72.4989L30.8047 72.4697C31.1412 72.4928 31.4587 72.597 31.7488 72.7617L32.1673 73.0536L32.2451 73.1315C32.3884 73.2584 32.5161 73.3285 32.6247 73.3651L32.6734 73.3748L32.722 73.3943L32.8388 73.3651L32.8972 73.3456L32.9459 73.3262C33.5039 73.1307 34.1172 73.1023 34.7172 73.3262L34.7659 73.3359L34.8146 73.3554C35.2298 73.5107 35.6138 73.7368 35.963 74.0172C36.4933 73.8827 37.0166 73.9444 37.4813 74.1729L37.929 74.4551L37.9679 74.4941L38.0166 74.533C38.136 74.6293 38.2264 74.6578 38.2891 74.6693L38.3864 74.6887C38.7434 74.7539 39.0928 74.8515 39.4376 74.971L39.4862 74.9807H39.496C39.5001 74.9802 39.5282 74.9901 39.5738 74.971L39.6225 74.9515L39.6809 74.9223C40.1923 74.7084 40.7571 74.6142 41.3354 74.7277L41.4328 74.7471C41.8985 74.8385 42.3317 75.0328 42.7272 75.2922L42.7759 75.3213L42.8148 75.3505C42.9855 75.4625 43.151 75.5251 43.3014 75.5647L43.3501 75.5841L43.3988 75.5939C43.4102 75.5964 43.4508 75.6013 43.5448 75.5647L43.6031 75.5452L43.6518 75.5257C44.0928 75.3535 44.5527 75.2488 45.0241 75.2435H45.1312C45.7233 75.2381 46.2652 75.4328 46.7273 75.7593L46.8052 75.8177H46.8831C47.4462 75.7307 47.9994 75.8125 48.5084 76.061L48.5571 76.0805L48.6057 76.1097C48.7545 76.1819 48.8921 76.2165 49.0242 76.2265H49.0729L49.1216 76.2362C49.2146 76.2432 49.339 76.2301 49.5011 76.1681L49.5595 76.1486L49.6082 76.1292C50.2114 75.8971 50.8631 75.8865 51.4769 76.1681L51.5255 76.1973L51.5742 76.2168C51.7789 76.3107 51.9793 76.3793 52.1776 76.4211L52.2749 76.4406C52.4588 76.4793 52.6485 76.4914 52.8394 76.4795H52.8881L52.9368 76.4698C53.2778 76.4486 53.6196 76.4483 53.9587 76.4601H54.0658C54.4218 76.4728 54.7753 76.5146 55.1266 76.5769L55.2239 76.5963C55.671 76.6756 56.1008 76.8298 56.4989 77.0538L56.5379 77.0732H56.5768L57.0537 76.9662C57.369 76.9261 57.6828 76.9478 57.988 77.0343L58.4357 77.2095L58.4844 77.229L58.5331 77.2581C58.5458 77.2645 58.5562 77.2658 58.5623 77.2679H58.5914L58.6888 77.2484C58.9628 77.1861 59.2412 77.1084 59.5161 77.0246L59.5647 77.0148L59.6134 76.9954C59.9859 76.8818 60.3626 76.8032 60.7424 76.7618L60.8008 76.7521H61.3653C61.8611 76.8139 62.2994 77.04 62.6597 77.336L62.6986 77.3652C63.2014 77.2334 63.7141 77.2327 64.2169 77.3847L64.2656 77.3944L64.3143 77.4139C64.3451 77.4232 64.369 77.4228 64.4213 77.4041L64.4797 77.3847L64.5284 77.3652C64.8462 77.2489 65.1646 77.1429 65.4822 77.044L65.5308 77.0343L65.5795 77.0148C66.2151 76.8171 66.8533 76.8995 67.419 77.19L67.4482 77.1998H67.4676C67.9816 76.9841 68.5352 76.9215 69.093 77.0343L69.1903 77.0538C69.4593 77.1082 69.7298 77.1472 69.9981 77.1803L70.0468 77.19H70.0955C70.3667 77.2234 70.6429 77.2542 70.913 77.2679H71.0103C71.2042 77.2776 71.3994 77.2689 71.5943 77.229L71.6429 77.2192L71.6916 77.1998C71.9932 77.138 72.2955 77.0823 72.5968 77.0246L72.6941 77.0051C73.168 76.9142 73.6486 76.9217 74.115 77.0343L74.1637 77.0051C74.5585 76.7091 75.0277 76.5209 75.536 76.5087L76.0518 76.5574L76.1492 76.5769C76.296 76.6075 76.4317 76.6102 76.5579 76.5866L76.6163 76.5769L76.665 76.5671C77.1471 76.4751 77.6329 76.4972 78.1054 76.6158H78.1249L78.1736 76.5866C78.616 76.2839 79.1257 76.0813 79.6821 76.0513H79.7795C80.052 76.0366 80.3266 76.0147 80.597 75.9832L80.6943 75.9637C80.9258 75.9366 81.1568 75.899 81.3853 75.8372L81.434 75.8177L81.4827 75.808L81.9985 75.7301C82.4761 75.7144 82.9231 75.8544 83.3124 76.0708C83.676 75.8534 84.0673 75.6958 84.4901 75.6231L84.5485 75.6133L84.5971 75.6036C84.8422 75.5617 85.0859 75.5076 85.3271 75.4381L85.3757 75.4187L85.4244 75.4089C85.9567 75.2553 86.4975 75.2722 87.0108 75.4187C87.3501 75.1616 87.7171 74.9561 88.1009 74.7958L88.1982 74.7569C88.6669 74.5615 89.1643 74.4818 89.6678 74.5233L89.7165 74.533H89.7652C89.9355 74.547 90.0905 74.5321 90.2323 74.4941L90.281 74.4843L90.3297 74.4649C90.8135 74.3333 91.3124 74.3273 91.7993 74.4162L91.848 74.4259L91.9064 74.4357C92.085 74.4681 92.2372 74.461 92.3638 74.4357L92.4125 74.4259L92.4319 74.4162C92.4455 74.4056 92.4799 74.3881 92.5195 74.3383L92.5974 74.241L93.0743 73.8031C93.2636 73.6779 93.4826 73.5786 93.7361 73.5305C94.1241 73.457 94.4758 73.5339 94.7775 73.6473C95.0713 73.3345 95.4143 73.0577 95.8286 72.8882L95.8675 72.8785L95.9162 72.859C96.1606 72.759 96.4116 72.6869 96.6656 72.6546H97.454L97.4832 72.6351L97.9114 72.3237C98.2164 72.1516 98.5484 72.0544 98.8944 72.0414L99.42 72.0804L99.4784 72.0901L99.527 72.0998C99.5828 72.1102 99.6164 72.1106 99.6244 72.1096H99.6341L99.673 72.0804L99.7217 72.0609C100.191 71.816 100.7 71.7142 101.221 71.73H101.357L101.367 71.7203L101.415 71.6911L101.454 71.6521C101.574 71.557 101.663 71.4808 101.727 71.4283C101.752 71.4069 101.772 71.3911 101.785 71.3796H101.795C101.83 71.3443 101.897 71.2765 101.989 71.2142C102.066 71.1626 102.267 71.0429 102.554 71.0098C102.914 70.9692 103.314 71.0812 103.605 71.3894C103.838 71.6357 103.905 71.9063 103.926 72.0122C103.968 72.2281 103.94 72.407 103.936 72.4405C103.927 72.5082 103.916 72.5693 103.907 72.6059C103.875 72.7388 103.812 72.9006 103.761 73.0439L103.751 73.0926L103.732 73.1315V73.151C103.732 73.1554 103.727 73.179 103.741 73.2191L103.78 73.3164C103.968 73.858 104 74.4405 103.819 75.0099L103.78 75.1072C103.627 75.5895 103.362 76.0093 103.021 76.3725C103.114 76.8293 103.14 77.2942 103.06 77.7545L103.041 77.8518C102.975 78.2266 102.881 78.5964 102.749 78.9516L102.729 78.9906L102.71 79.0392C102.524 79.5388 102.219 79.9644 101.824 80.3045L101.785 80.3337L101.736 80.3726C101.565 80.5201 101.423 80.6724 101.298 80.8203L101.308 80.8398L101.328 80.9079C101.533 81.5768 101.523 82.4115 100.89 83.0685L100.86 83.1075L100.821 83.1464C100.605 83.3707 100.391 83.5962 100.179 83.818L99.4102 84.5868L99.381 84.6258L99.3421 84.655C99.1469 84.8415 98.9573 85.0328 98.7873 85.2292L98.729 85.3071L98.7192 85.3168C98.715 85.3279 98.7037 85.3632 98.6998 85.4239V85.4822L98.69 85.5406C98.6542 86.1053 98.4768 86.6553 98.0963 87.1173L98.0574 87.1563L98.0282 87.1952C97.7467 87.5363 97.3981 87.7976 97.016 88.0127C96.9896 88.6259 96.7719 89.231 96.2666 89.6965L96.2374 89.7354L96.1985 89.7744C96.1691 89.8016 96.1355 89.8402 96.1109 89.9398L96.0914 89.9885L96.0817 90.0469C95.9291 90.665 95.5699 91.1875 95.0208 91.536L94.9721 91.5652L94.9332 91.5944C94.7344 91.7206 94.558 91.8564 94.4077 92.0031L94.3687 92.0323L94.3395 92.0713C94.2613 92.1477 94.1869 92.2458 94.1351 92.3827L94.1254 92.4314L94.1059 92.48C93.9157 92.983 93.6014 93.421 93.1716 93.755L93.0937 93.8134C92.816 94.0293 92.5214 94.2302 92.2178 94.4168L92.1691 94.446L92.1302 94.4752C92.0233 94.5409 91.9426 94.6098 91.8869 94.6991L91.8674 94.7477L91.8382 94.7867C91.7257 94.967 91.621 95.1702 91.5365 95.3998L91.5268 95.4485L91.5073 95.5069C91.3626 95.8995 91.1002 96.2428 90.7287 96.4802C90.3745 96.7062 89.9854 96.788 89.6386 96.8111L89.5705 96.8208H89.5121C89.4089 96.9857 89.3115 97.1692 89.2299 97.3756L89.1909 97.4729C89.0046 97.9442 88.7226 98.3705 88.3345 98.7089L88.2566 98.7673C87.9612 99.025 87.6402 99.258 87.2931 99.4486L87.2541 99.4681L87.2055 99.4973C87.069 99.5724 86.9624 99.6631 86.8746 99.7698L86.8454 99.8087L86.8064 99.8477C86.6057 100.091 86.403 100.333 86.1933 100.568L86.1544 100.607L86.1252 100.646C85.9484 100.844 85.7722 101.044 85.6093 101.259L85.5801 101.308L85.5509 101.346C85.1801 101.834 84.6678 102.106 84.1202 102.232C83.9506 102.788 83.6231 103.295 83.0691 103.624L83.0302 103.653L82.9815 103.682C82.7791 103.803 82.5903 103.935 82.417 104.081L82.3781 104.111L82.3391 104.149C81.9983 104.438 81.6089 104.661 81.1907 104.821L81.0934 104.86C80.9032 104.933 80.7315 105.016 80.5775 105.113C80.56 105.416 80.5225 105.723 80.4607 106.038C80.9657 106.457 81.3275 107.062 81.2978 107.819V107.867L81.288 107.916C81.281 108.095 81.3078 108.269 81.3561 108.442L81.3659 108.5L81.3853 108.549C81.5048 108.971 81.5551 109.404 81.5411 109.843V109.95C81.5276 110.362 81.4651 110.768 81.3561 111.167L81.3367 111.215L81.327 111.274C81.1609 111.876 80.7974 112.365 80.305 112.714L80.2077 112.773C79.9273 112.972 79.6689 113.162 79.4291 113.327L79.3902 113.347L79.361 113.366C79.3546 113.375 79.3346 113.414 79.3123 113.483L79.2928 113.532L79.2831 113.59C79.093 114.176 78.7224 114.691 78.1541 115.021L78.1054 115.04L78.0665 115.07C77.4784 115.41 76.8223 115.458 76.2076 115.293L76.1589 115.284L76.1005 115.264C75.8424 115.195 75.6391 115.169 75.4874 115.167H75.3998C75.3823 115.17 75.3273 115.189 75.2246 115.254L75.1759 115.284L75.1175 115.313C74.8041 115.513 74.4233 115.658 73.9885 115.654C73.6317 115.649 73.3184 115.532 73.0445 115.381C72.7827 115.55 72.4812 115.707 72.1199 115.741C71.6814 115.782 71.2816 115.664 70.9422 115.469C70.5204 115.65 70.0767 115.758 69.6186 115.78L69.5699 115.79H69.5212C68.9978 115.815 68.4961 115.699 68.0321 115.478L67.9835 115.459L67.9348 115.43C67.7509 115.342 67.5806 115.302 67.4287 115.284L67.38 115.274H67.3314C67.0686 115.243 66.806 115.215 66.543 115.206H66.436C66.0707 115.193 65.707 115.151 65.3459 115.079L65.307 115.07C65.299 115.074 65.2896 115.081 65.2778 115.089L65.2291 115.118L65.1805 115.157C64.6992 115.478 64.125 115.669 63.4967 115.624H63.3897C63.0021 115.596 62.6187 115.52 62.2412 115.41L62.1925 115.4L62.1439 115.381C61.9624 115.328 61.7875 115.31 61.6183 115.313H61.521C61.1942 115.319 60.8645 115.31 60.538 115.293H60.4309C60.0336 115.273 59.6398 115.2 59.2533 115.089L59.2046 115.079L59.1559 115.06C58.9709 115.007 58.7928 114.989 58.6206 114.992H58.5233C58.2224 114.997 57.9187 114.998 57.6182 115.001H57.5695L57.5111 115.011H57.5014C57.4806 115.02 57.4376 115.04 57.3749 115.089L57.2775 115.167C56.8167 115.525 56.2508 115.774 55.6035 115.761H55.5062C55.0928 115.752 54.6823 115.684 54.2799 115.566L54.2215 115.546L54.1728 115.537C53.965 115.476 53.7684 115.443 53.5889 115.439H53.4915C53.2965 115.435 53.096 115.454 52.8881 115.498L52.8297 115.508L52.781 115.517C52.4547 115.587 52.1211 115.652 51.7786 115.702L51.7202 115.712L51.6715 115.722C51.2794 115.78 50.8645 115.727 50.4841 115.537C50.1174 115.353 49.8525 115.071 49.6569 114.787L49.6179 114.739L49.579 114.68C49.4248 114.457 49.3108 114.364 49.2578 114.33L49.2189 114.301L49.18 114.281C48.9398 114.128 48.7029 113.969 48.4695 113.814L48.4305 113.785L48.3916 113.765C48.1487 113.604 47.9067 113.427 47.6617 113.25L47.6227 113.23L47.5838 113.201C47.3512 113.032 47.1046 112.846 46.8441 112.656L46.7955 112.627L46.7565 112.597C46.2953 112.26 45.9522 111.8 45.7735 111.245L45.7541 111.196L45.7443 111.147C45.6464 110.843 45.5491 110.538 45.4621 110.232L45.4524 110.184L45.4329 110.135C45.333 109.784 45.2564 109.426 45.209 109.064V109.016L45.1993 108.967C45.1477 108.573 45.1419 108.175 45.1798 107.78L45.1896 107.731V107.682C45.2262 107.301 45.2954 106.921 45.4037 106.553L45.4232 106.505L45.4329 106.456C45.477 106.307 45.4923 106.156 45.4816 105.999V105.901C45.476 105.82 45.4402 105.749 45.4134 105.678C44.9441 105.646 44.4825 105.538 44.0606 105.308L44.0217 105.288L43.973 105.259C43.5711 105.039 43.2184 104.752 42.9219 104.403L42.8927 104.364L42.8537 104.325C42.7593 104.213 42.6586 104.131 42.5423 104.072L42.4936 104.042L42.445 104.023C42.1621 103.88 41.8849 103.728 41.6079 103.575L41.5593 103.556L41.5204 103.527C41.2594 103.383 40.9955 103.241 40.732 103.098L40.6833 103.079L40.6347 103.05C40.1645 102.795 39.7902 102.428 39.5154 101.979L39.457 101.882C39.4144 101.813 39.3746 101.786 39.3305 101.765L39.2818 101.736L39.2332 101.716C38.553 101.401 38.1645 100.817 37.9971 100.179L37.9777 100.14C37.7178 100.036 37.4526 99.9337 37.1796 99.8379L37.1309 99.8185L37.0725 99.799C36.5642 99.6201 36.1147 99.3222 35.7684 98.8939L35.71 98.816C35.5329 98.597 35.3502 98.3797 35.1649 98.1736L35.126 98.1347L35.0968 98.0958C34.8865 97.8619 34.676 97.626 34.4739 97.3853L34.4155 97.3074C34.2532 97.1142 34.0748 96.9276 33.8899 96.7527L33.851 96.7235L33.8218 96.6845C33.4356 96.3191 33.2213 95.8642 33.1016 95.3804C32.4193 95.2183 31.7896 94.7897 31.5444 93.9886L31.5249 93.9399L31.5152 93.8815C31.4919 93.807 31.4616 93.7734 31.4276 93.7453L31.3789 93.7064L31.34 93.6772C30.9626 93.3763 30.6549 93.0083 30.4349 92.5774L30.3959 92.48C30.3008 92.2935 30.1786 92.1228 30.0455 91.9642L29.9871 91.8863C29.7314 91.5814 29.5144 91.2492 29.3351 90.8936L29.3059 90.8547L29.2864 90.806C29.0512 90.3396 28.9546 89.8364 28.9555 89.3267C28.6796 89.1337 28.4111 88.931 28.1477 88.7232L28.1087 88.694L28.0601 88.6551C27.5504 88.2524 27.2322 87.6918 27.1549 87.0395L27.1452 86.9908V86.9324C27.1322 86.8271 27.1016 86.7563 27.0576 86.6988L27.0187 86.6599L26.9895 86.621C26.5985 86.1093 26.4819 85.5157 26.5418 84.9372C25.9885 84.5543 25.5852 83.9686 25.588 83.1951V83.0491C25.5875 83.0478 25.582 83.0373 25.5685 83.0199L25.5296 82.9712L25.5004 82.9323C25.2543 82.6235 25.0378 82.2948 24.858 81.9493L24.8386 81.9104L24.8094 81.8617C24.623 81.5034 24.4876 81.1237 24.3909 80.7327L24.3714 80.684L24.3617 80.6354C24.2044 79.9973 24.3353 79.384 24.5855 78.8543C24.4066 78.6116 24.2323 78.3671 24.0697 78.1146L24.0405 78.0757L24.0113 78.027C23.6185 77.4171 23.5538 76.7214 23.7777 76.061L23.7972 76.0026L23.8166 75.954C23.9091 75.6826 23.9755 75.4185 24.021 75.1754L24.0405 75.078V75.0488C24.0401 75.0464 24.0344 75.0354 24.021 75.0099L24.0016 74.9612L23.9724 74.9126C23.6927 74.3887 23.5938 73.8047 23.7096 73.2094L23.7193 73.151L23.729 73.1023C23.7892 72.7956 23.8493 72.507 23.9042 72.2458L23.9237 72.168L24.1573 71.584C24.2787 71.3945 24.448 71.2148 24.6828 71.0779C24.9025 70.9506 25.1293 70.8849 25.3349 70.8638L25.88 70.893ZM51.3795 113.434L51.399 113.571L51.4477 113.542L51.4282 113.405L51.3795 113.434ZM51.4477 113.542L51.399 113.571L51.3893 113.503L51.4379 113.473L51.4477 113.542ZM51.4379 113.473L51.3893 113.503L51.3795 113.434L51.4282 113.405L51.4379 113.473ZM26.1719 73.5792L26.1622 73.6376L26.1525 73.6863V73.7057C26.1543 73.7112 26.1645 73.7207 26.1719 73.7349L26.1914 73.7836L26.2206 73.8323C26.5009 74.3575 26.5946 74.9414 26.4834 75.5355L26.4639 75.6328C26.3947 76.0029 26.2992 76.3784 26.1719 76.7521L26.1622 76.7715L26.6683 77.4917L26.6975 77.5307L26.7267 77.5793C27.2663 78.294 27.225 79.1177 26.9019 79.7886L26.8435 79.9054C26.8022 79.9909 26.7876 80.0445 26.7851 80.0612L26.7948 80.0904L26.8046 80.139C26.8534 80.3361 26.9225 80.5283 27.0187 80.7132L27.0479 80.7522L27.0674 80.8008C27.1704 80.9989 27.2971 81.197 27.4469 81.3848L27.4859 81.4237L27.5151 81.4627C27.8653 81.9019 28.0363 82.4182 28.0601 82.9712L28.5175 83.3313C28.6574 83.4762 28.7819 83.6467 28.8776 83.8472C29.0715 84.253 29.0961 84.6739 29.0333 85.054L29.0139 85.1708L29.0333 85.1903C29.3609 85.6189 29.5542 86.1117 29.6173 86.6404L29.627 86.6988V86.7183L29.6465 86.7378L29.6952 86.767C29.9295 86.9517 30.169 87.1308 30.4154 87.3023L30.4641 87.3412L30.5127 87.3704C31.1435 87.8104 31.4521 88.4825 31.447 89.2099V89.3267C31.4462 89.5083 31.4812 89.6194 31.5152 89.6868L31.5346 89.7257L31.5541 89.7744C31.6473 89.9591 31.7625 90.1326 31.8948 90.2902L31.9239 90.3291L31.9629 90.368C32.2162 90.6706 32.4355 90.9989 32.615 91.351L32.6344 91.3997L32.6539 91.4386C32.7091 91.5469 32.7907 91.6458 32.8972 91.7306L32.9751 91.789C33.3763 92.1086 33.6474 92.5272 33.8218 92.9959C34.1772 93.0648 34.5611 93.2182 34.8827 93.5214C35.0502 93.6794 35.1768 93.8591 35.272 94.047L35.4666 94.631L35.4861 94.7477C35.4965 94.8058 35.5078 94.839 35.5153 94.8548C35.5217 94.8675 35.5318 94.8714 35.5348 94.8743L35.564 94.9132L35.6029 94.9424C35.8564 95.1823 36.0994 95.4448 36.3231 95.7113L36.3523 95.7405L36.3815 95.7794C36.5653 95.9983 36.7547 96.2188 36.946 96.4315L36.9849 96.4704L37.0141 96.5094C37.2292 96.7486 37.4424 96.9962 37.6468 97.249L37.7052 97.3269C37.7407 97.3709 37.7948 97.4166 37.8998 97.4534L37.9485 97.4632L38.0069 97.4826C38.3288 97.5956 38.6422 97.7191 38.9509 97.8427L39.0483 97.8817C39.7694 98.1705 40.1973 98.7621 40.3719 99.4292L40.3914 99.4876V99.507C40.8963 99.7448 41.3014 100.118 41.5885 100.587L41.6079 100.636L41.6371 100.675C41.6969 100.773 41.7598 100.826 41.8221 100.86L41.8707 100.879L41.9097 100.909C42.1798 101.054 42.4498 101.199 42.7175 101.346L42.7661 101.376L42.8051 101.395C43.0569 101.534 43.3166 101.664 43.5739 101.794L43.6129 101.823L43.6615 101.843C44.0833 102.056 44.4462 102.35 44.7516 102.709L44.7905 102.748L44.8197 102.787C44.9238 102.909 45.0426 102.999 45.1701 103.069L45.2188 103.098L45.2577 103.118C45.332 103.158 45.4439 103.199 45.6178 103.205H45.7346C46.267 103.225 46.7778 103.42 47.1653 103.809L47.5157 104.266L47.5351 104.315L47.5643 104.354C47.7995 104.779 47.93 105.242 47.9634 105.726V105.775L47.9731 105.833C48.0034 106.282 47.9538 106.725 47.8271 107.157L47.8077 107.206L47.7979 107.254C47.7344 107.47 47.6929 107.693 47.6714 107.916L47.6617 107.965V108.013C47.6416 108.222 47.6442 108.438 47.6714 108.646L47.6811 108.695V108.743C47.7126 108.983 47.7607 109.22 47.8271 109.454L47.8466 109.502L47.8563 109.551C47.9357 109.83 48.0198 110.11 48.1094 110.388L48.1288 110.437L48.1386 110.485C48.1477 110.514 48.1672 110.54 48.2262 110.583L48.2651 110.612L48.3138 110.651C48.5712 110.839 48.8145 111.02 49.0437 111.186L49.0826 111.206L49.1216 111.235C49.3396 111.393 49.5513 111.551 49.7639 111.692L49.8029 111.712L49.8418 111.741C50.0635 111.888 50.2943 112.033 50.5231 112.179L50.562 112.198L50.6009 112.228C50.9919 112.478 51.3059 112.826 51.5742 113.201C51.8103 113.163 52.0428 113.132 52.2652 113.084L52.3625 113.065C52.7545 112.981 53.1532 112.939 53.5499 112.948H53.6473C54.0609 112.957 54.4708 113.024 54.8736 113.142L54.9222 113.162L54.9806 113.172C55.1867 113.232 55.3765 113.265 55.5549 113.269H55.6327C55.6438 113.265 55.6855 113.251 55.7495 113.201L55.8468 113.123C56.3016 112.77 56.853 112.528 57.4819 112.52L57.5306 112.51H57.5793C57.876 112.506 58.1774 112.505 58.4747 112.5H58.5817C59.0093 112.493 59.4341 112.547 59.847 112.666L59.8956 112.685L59.9443 112.695C60.1545 112.755 60.3583 112.791 60.5574 112.802H60.6061L60.6645 112.812C60.9334 112.825 61.2032 112.826 61.4723 112.821H61.5696C61.9975 112.813 62.4223 112.867 62.8349 112.987L62.8836 113.006L62.9419 113.016C63.1578 113.079 63.3675 113.118 63.5746 113.133L63.6232 113.142H63.6719L63.7984 113.084L63.8471 113.045L63.8957 113.016C64.2856 112.756 64.7385 112.58 65.2291 112.568L65.7255 112.617L65.7839 112.627L65.8325 112.636C66.064 112.682 66.2944 112.706 66.5236 112.714H66.6209C66.954 112.726 67.2914 112.753 67.6234 112.792L67.7207 112.812C68.1655 112.864 68.5981 112.988 69.0054 113.181L69.0541 113.211L69.1027 113.23C69.2302 113.291 69.3283 113.302 69.4044 113.298H69.5018C69.637 113.292 69.792 113.258 69.9689 113.181L70.0176 113.152L70.0663 113.133C70.6839 112.864 71.3251 112.904 71.9057 113.181C72.1905 112.987 72.5431 112.821 72.9569 112.802C73.357 112.784 73.7077 112.912 74.008 113.084C74.4269 112.84 74.9096 112.668 75.4387 112.675H75.5263C75.9264 112.681 76.334 112.751 76.7429 112.86L76.8013 112.87L76.8597 112.889L76.8986 112.86C76.9025 112.851 76.9031 112.837 76.9083 112.821L76.9278 112.763L76.9473 112.714C77.1202 112.181 77.4333 111.682 77.94 111.332L78.0178 111.274C78.2462 111.116 78.4958 110.941 78.7673 110.748L78.8159 110.709L78.8646 110.68C78.8979 110.656 78.9089 110.637 78.9132 110.631C78.9149 110.629 78.9195 110.625 78.923 110.612L78.9424 110.563L78.9522 110.505C79.0094 110.295 79.0424 110.085 79.0495 109.872V109.765C79.0555 109.581 79.0398 109.404 78.9911 109.23L78.9716 109.172L78.9619 109.123C78.8484 108.722 78.7974 108.312 78.8062 107.897L78.7673 107.867C78.4819 107.646 78.219 107.345 78.0665 106.953C77.9118 106.553 77.9089 106.137 77.9886 105.765L77.9984 105.716L78.0081 105.658C78.0686 105.376 78.1066 105.125 78.1152 104.909V104.811L78.193 104.305C78.3275 103.824 78.6323 103.416 79.069 103.128L79.1468 103.069C79.4761 102.851 79.8326 102.677 80.2077 102.534L80.305 102.495C80.4762 102.43 80.6183 102.339 80.7333 102.242L80.8111 102.184C81.0929 101.945 81.3961 101.731 81.7163 101.541L81.7552 101.512V101.492L81.7747 101.434L81.7844 101.376L81.9985 100.84C82.093 100.671 82.2141 100.509 82.3683 100.363C82.6828 100.067 83.0602 99.9038 83.4292 99.8379L83.546 99.8185C83.5631 99.8153 83.5757 99.8114 83.5849 99.8087L83.5947 99.799L83.6239 99.7601C83.8271 99.4923 84.0439 99.2303 84.2662 98.9815L84.2954 98.9425L84.3343 98.9036C84.522 98.6934 84.7093 98.4797 84.8891 98.2612L84.9475 98.1834C85.2424 97.8251 85.6022 97.5305 86.0084 97.3074L86.0473 97.288L86.096 97.2588C86.2902 97.1521 86.4661 97.0338 86.6215 96.8987L86.6604 96.8597L86.6994 96.8305C86.7633 96.7748 86.8223 96.6902 86.8746 96.558L86.9135 96.4607C87.0618 96.0857 87.2428 95.7289 87.4585 95.3998L87.5169 95.322L87.8965 94.884C88.3083 94.5295 88.8194 94.3766 89.298 94.339C89.4216 94.0369 89.5565 93.7451 89.7262 93.4728L89.7457 93.4241L89.7749 93.3852C90.0407 92.9592 90.4005 92.615 90.826 92.3535L90.865 92.3243L90.9136 92.2951C91.1414 92.1551 91.3613 92.0063 91.5657 91.8474L91.6046 91.8182L91.6436 91.7793C91.6955 91.7382 91.7362 91.6841 91.7701 91.5944L91.809 91.497C91.982 91.0406 92.2456 90.6338 92.5974 90.2902L92.6363 90.2513L92.6655 90.2123C92.9457 89.939 93.2633 89.6959 93.5998 89.4824L93.6388 89.4532L93.6582 89.4434L93.6777 89.3948L93.6874 89.3461C93.8197 88.8096 94.0872 88.3199 94.505 87.9349L94.5342 87.9057V87.7792L94.612 87.2147C94.7593 86.679 95.1116 86.2189 95.6632 85.93L95.7118 85.9008L95.7605 85.8813C95.9259 85.7946 96.037 85.6984 96.1109 85.6088L96.1693 85.5309C96.17 85.53 96.2004 85.5041 96.2082 85.3849V85.3265L96.2179 85.2681C96.2542 84.6946 96.4409 84.134 96.8408 83.672L96.8797 83.6428L96.9089 83.6038C97.1318 83.3464 97.3688 83.0938 97.6194 82.8544L97.6584 82.8155L97.6973 82.7863C97.9057 82.5872 98.1112 82.3821 98.3104 82.1731L98.3396 82.1342L98.3786 82.0953C98.558 81.9072 98.7313 81.7108 98.9139 81.5211V81.5113C98.7204 80.8803 98.6955 80.0873 99.2253 79.4188L99.2545 79.3799L99.2934 79.3409C99.5353 79.0368 99.8055 78.7474 100.111 78.4845L100.16 78.4455L100.199 78.4163C100.307 78.3233 100.349 78.2399 100.374 78.173L100.413 78.0757C100.491 77.8659 100.549 77.6481 100.588 77.4236L100.607 77.3263C100.63 77.198 100.629 77.0403 100.588 76.8494L100.578 76.8007L100.568 76.7423C100.412 76.0066 100.61 75.2981 101.123 74.7569L101.201 74.679C101.322 74.5515 101.377 74.4373 101.405 74.3481L101.425 74.2994L101.444 74.2605C101.446 74.2551 101.441 74.2385 101.435 74.2021C101.374 74.2042 101.311 74.2235 101.25 74.2216H101.201L101.143 74.2118C101.021 74.2084 100.936 74.2361 100.87 74.2702L100.831 74.2897L100.783 74.3189C100.238 74.602 99.6497 74.6576 99.0793 74.5525V74.5427C98.5769 75.0033 97.9428 75.2228 97.2593 75.1462L97.2009 75.1364L97.1523 75.1267C97.018 75.1115 96.9273 75.1382 96.8603 75.1656L96.8116 75.1754L96.7727 75.1948C96.7338 75.2107 96.6373 75.2681 96.5099 75.4284L96.471 75.4771L96.432 75.516C96.1757 75.8384 95.8008 76.1329 95.2933 76.2265C94.8968 76.2993 94.5365 76.2186 94.2325 76.1C93.8894 76.4529 93.4808 76.7519 92.9478 76.8591L92.8504 76.8786C92.3892 76.971 91.9206 76.9725 91.4587 76.8883L91.4003 76.8786L91.3516 76.8688C91.1997 76.8411 91.0834 76.8447 90.9915 76.8688L90.9428 76.8883L90.8942 76.898C90.6772 76.957 90.4538 76.9953 90.2323 77.0148H89.5121L89.4635 77.0051C89.3468 76.9955 89.2442 77.0153 89.152 77.0538L89.1131 77.0732L89.0644 77.0927C88.8915 77.1648 88.7087 77.2702 88.5194 77.4139L88.4707 77.4528L88.4318 77.482C87.8506 77.9238 87.1458 78.0476 86.4463 77.8421L86.3879 77.8324L86.3393 77.8129C86.2195 77.7775 86.1506 77.793 86.1154 77.8032L86.0668 77.8129L86.0181 77.8324C85.6881 77.9274 85.353 77.9986 85.0156 78.0562L84.967 78.066L84.9086 78.0757C84.8036 78.0942 84.6814 78.1381 84.5387 78.2314L84.4901 78.2703L84.4414 78.2995C84.1152 78.514 83.7264 78.6373 83.3027 78.6305C82.8901 78.6236 82.5239 78.4947 82.2224 78.319L82.1737 78.2898L82.1153 78.2509C82.0965 78.2399 82.0785 78.237 82.0666 78.2314L82.0472 78.2411C81.6976 78.3361 81.3348 78.4038 80.9766 78.4455H80.9279L80.8792 78.4553C80.5593 78.4925 80.2379 78.5157 79.9157 78.5331L79.8671 78.5429H79.8184C79.7783 78.545 79.7032 78.5594 79.5848 78.6402L79.4875 78.6986C78.937 79.0753 78.2798 79.2291 77.5993 79.0587L77.5507 79.0392L77.4923 79.0295C77.3535 78.9952 77.2377 78.99 77.1322 79.01L77.0348 79.0295C76.5724 79.1183 76.1029 79.1157 75.6431 79.0198L75.6333 79.01L75.6139 79.0392L75.5652 79.0684C75.0274 79.4717 74.3571 79.6639 73.6381 79.4869L73.5895 79.4772L73.5311 79.4675C73.3956 79.4343 73.274 79.4264 73.1612 79.448L72.0907 79.6621C71.692 79.7437 71.2894 79.7799 70.8838 79.7594H70.8351L70.7865 79.7497C70.4564 79.733 70.1236 79.7027 69.7937 79.6621H69.7451L69.6964 79.6524C69.3636 79.6114 69.0252 79.5637 68.694 79.4967L68.6453 79.4869L68.5966 79.4675C68.5555 79.4592 68.5103 79.4634 68.4312 79.4967L68.3338 79.5356C67.6818 79.8101 66.9969 79.7693 66.3873 79.4577L66.3289 79.4285L66.2803 79.3993L66.2705 79.4091L66.2219 79.4285C65.9442 79.515 65.6651 79.6082 65.3848 79.7108L65.3362 79.7302L65.2778 79.7497C64.7331 79.9479 64.1563 79.9684 63.594 79.7984L63.5454 79.7789L63.4967 79.7692C63.4355 79.7507 63.3833 79.7479 63.3118 79.7692L63.2631 79.7886L63.2145 79.7984C62.4326 80.0313 61.7095 79.7841 61.1706 79.3409L61.0733 79.2631C61.0573 79.25 61.0444 79.2407 61.0343 79.2339L61.0149 79.2436C60.7978 79.2672 60.5742 79.3097 60.3433 79.3799L60.2849 79.3993L60.2363 79.4091C59.9065 79.5096 59.5755 79.5963 59.2435 79.6718L59.1851 79.6913L59.1365 79.701C58.5367 79.8367 57.9402 79.7479 57.4041 79.4772L57.3554 79.4577L57.3262 79.4383L57.3165 79.448L57.2678 79.4675C56.6192 79.6842 55.957 79.6125 55.3699 79.2825L55.2726 79.2241C55.0972 79.1258 54.9381 79.0748 54.7957 79.049L54.7373 79.0392L54.6886 79.0295C54.4529 78.9879 54.2163 78.9602 53.9782 78.9516H53.8711C53.6137 78.9427 53.3538 78.9451 53.0925 78.9614H53.0438L52.9952 78.9711C52.5818 78.9968 52.1639 78.959 51.7591 78.8738L51.6618 78.8543C51.275 78.7725 50.8971 78.6516 50.5328 78.4845L50.4841 78.4553L50.4549 78.4747L50.3965 78.4942C49.9321 78.6726 49.4403 78.7559 48.9366 78.718H48.888L48.8393 78.7083C48.3744 78.6733 47.9241 78.5524 47.5059 78.3482L47.467 78.319L47.4184 78.2995C47.3592 78.2706 47.3153 78.2719 47.2626 78.2801H47.214L47.1653 78.2898C46.5113 78.3909 45.89 78.2258 45.3745 77.8616L45.3356 77.8226L45.2869 77.7934C45.2005 77.7324 45.1611 77.7349 45.1506 77.735H45.0533C44.9223 77.7364 44.758 77.7636 44.5569 77.8421L44.5083 77.8616L44.4499 77.881C43.9215 78.0874 43.3468 78.1589 42.7661 78.0076L42.7175 77.9881L42.6688 77.9784C42.2373 77.865 41.8281 77.6795 41.4522 77.4333L41.3549 77.3749C41.2053 77.277 41.0752 77.2237 40.9559 77.1998L40.8585 77.1803C40.851 77.1788 40.7877 77.1597 40.6444 77.2192L40.586 77.2484L40.5374 77.2679C39.9783 77.502 39.3432 77.5727 38.7173 77.3555L38.6687 77.336L38.6298 77.3263C38.4029 77.2476 38.1699 77.1836 37.9387 77.1414L37.8414 77.1219C37.3152 77.0259 36.8437 76.7882 36.4399 76.4601C35.741 76.6337 35.0522 76.4939 34.4934 76.0416L34.4544 76.0026L34.4058 75.9637C34.2392 75.8294 34.0807 75.7444 33.9386 75.6912L33.8997 75.6717L33.851 75.6523L33.8607 75.662C33.85 75.6629 33.8213 75.6646 33.7732 75.6815L33.7148 75.7009L33.6661 75.7204C33.1185 75.9122 32.5157 75.9584 31.9239 75.7593L31.8266 75.7204C31.3669 75.565 30.9517 75.3201 30.5906 75.0002L30.5614 74.971C30.0766 75.0466 29.5876 75.0311 29.1112 74.8931L29.0625 74.8736L29.0139 74.8639C28.8749 74.8236 28.7161 74.803 28.537 74.8153L28.4883 74.825H28.4397C27.598 74.8825 26.945 74.4485 26.5321 73.8712L26.4931 73.8225L26.4542 73.7641C26.3963 73.6833 26.3495 73.6352 26.3179 73.6084C26.2942 73.5885 26.2751 73.5819 26.2693 73.5792L26.1719 73.5403C26.1695 73.5527 26.1744 73.5667 26.1719 73.5792ZM78.8841 107.712L78.8354 107.77H78.9132L78.8743 107.819H78.9522L79.0398 107.712H78.8841ZM78.9911 107.77L78.9522 107.819H78.8743L78.9132 107.77H78.9911ZM79.0398 107.712L78.9911 107.77H78.9132L78.9619 107.712H79.0398ZM78.9619 107.712L78.9132 107.77H78.8354L78.8841 107.712H78.9619ZM45.6567 105.347L45.5302 105.415V105.473L45.647 105.405L45.6567 105.347ZM45.5886 105.434L45.5302 105.473V105.415L45.5886 105.386V105.434ZM45.647 105.405L45.5886 105.434V105.386L45.6567 105.347L45.647 105.405ZM33.2671 95.1176L33.3352 95.1079L33.3547 95.0495L33.2768 95.0592L33.2671 95.1176ZM33.3352 95.1079L33.2671 95.1176L33.2768 95.0592L33.3547 95.0495L33.3352 95.1079ZM33.7537 93.2489L33.7342 93.3073L33.9289 93.2586C33.9246 93.2449 33.9179 93.2284 33.9094 93.21L33.7537 93.2489ZM33.9289 93.2586L33.7342 93.3073L33.7537 93.2489L33.9094 93.21L33.9289 93.2586ZM29.1696 89.1904L29.1307 89.2488H29.1891L29.2377 89.1904H29.1696ZM29.2377 89.1904L29.1891 89.2488H29.1307L29.1696 89.1904H29.2377ZM62.6208 77.4723L62.5429 77.5599L62.5624 77.6377L62.6402 77.5404L62.6208 77.4723ZM62.6013 77.5891L62.5624 77.6377L62.5429 77.5599L62.5818 77.5112L62.6013 77.5891ZM62.6402 77.5404L62.6013 77.5891L62.5818 77.5112L62.6208 77.4723L62.6402 77.5404ZM69.784 33.9867C70.6293 33.9606 71.2583 34.4255 71.6527 34.9989L71.6916 35.0476L71.7305 35.106C71.8584 35.2914 71.9199 35.3038 71.8863 35.2909L71.9349 35.3104L71.9739 35.3201C72.0389 35.345 72.1499 35.3756 72.3242 35.359L72.3826 35.3493L72.4313 35.3396C72.7843 35.3059 73.1681 35.3553 73.5311 35.5245C73.8412 35.6693 74.0801 35.8871 74.2708 36.1279C74.7621 36.0721 75.2794 36.1448 75.7307 36.4199L76.1686 36.7897L76.2076 36.8189L76.2465 36.8579C76.5237 37.1542 76.7679 37.4873 76.9764 37.8409L76.9959 37.8798L77.0251 37.9285C77.1176 38.0852 77.219 38.1922 77.3171 38.2691L77.395 38.3275C77.6609 38.536 77.9122 38.7633 78.1541 38.999L78.193 39.038L78.7381 39.4468L78.7867 39.4759C79.0757 39.6425 79.3426 39.8073 79.5848 39.9723L79.6043 39.982H79.6627L79.7113 39.9723C80.2298 39.9234 80.7365 40.0119 81.2102 40.2156L81.3075 40.2546C81.5153 40.3438 81.7141 40.4064 81.9012 40.4395L81.9498 40.4492H81.9985C82.4197 40.5239 82.8197 40.6731 83.1956 40.8775L83.2346 40.8969H83.4L83.4584 40.8775L83.5265 40.8677L84.0813 40.8288C84.274 40.8371 84.4749 40.864 84.675 40.9358C84.8844 41.0115 85.0695 41.1271 85.2297 41.257L85.6385 41.695L85.6969 41.7923C85.7479 41.8678 85.7991 41.9028 85.8624 41.9286L85.911 41.948L85.9694 41.9675C86.3548 42.1229 86.687 42.3999 86.9135 42.7851C87.0725 43.0561 87.1338 43.3414 87.1665 43.6123C87.5086 43.7076 87.902 43.8826 88.1787 44.2839C88.4433 44.6677 88.4666 45.0776 88.4415 45.4226C88.6992 45.5488 88.9624 45.7193 89.1715 45.9871C89.4691 46.3684 89.581 46.8138 89.5608 47.2426V47.3497C89.5512 47.5528 89.5692 47.7146 89.6094 47.8363L89.6289 47.885L89.6484 47.9239C89.7623 48.2689 89.8421 48.6258 89.9014 48.9848L89.9209 49.0821C89.9404 49.2001 89.9834 49.3 90.0182 49.3935C90.4629 49.4667 90.8513 49.6549 91.1667 49.9386L91.4879 50.2987L91.5268 50.3376L91.556 50.3863C91.6688 50.535 91.7642 50.6049 91.8285 50.6393L91.8674 50.6588L91.9161 50.6782C92.2685 50.8668 92.5835 51.1096 92.8699 51.3887L92.9088 51.4179L92.938 51.4569C93.1094 51.6239 93.2976 51.7793 93.4928 51.9338L93.5706 51.9922C93.8444 52.2087 94.1049 52.4485 94.3493 52.7026L94.3785 52.7416L94.4174 52.7708C94.6827 53.0468 94.9147 53.3514 95.1181 53.6759L95.1473 53.7148L95.1668 53.7635C95.2889 53.9583 95.4394 54.1462 95.6048 54.3377L95.634 54.3767L95.6729 54.4253C96.024 54.8329 96.2577 55.3119 96.3445 55.8463V55.895L96.3542 55.9533C96.3806 56.1147 96.4393 56.2651 96.5196 56.4108L96.5391 56.4594L96.5683 56.4984C96.7754 56.8738 96.9258 57.2774 97.016 57.6955L97.0355 57.7928C97.1375 58.2666 97.1308 58.7506 97.0355 59.2235L97.016 59.3208C97.0029 59.3859 96.9961 59.4529 96.9868 59.5155C97.2956 59.6347 97.5792 59.8005 97.8238 60.0119L97.8627 60.0411L97.9114 60.08C98.113 60.254 98.3065 60.397 98.4954 60.5082L98.544 60.5374L98.583 60.5569C98.5946 60.5637 98.6337 60.5859 98.7484 60.5764H98.8068L98.8555 60.5666C99.338 60.5265 99.8358 60.6225 100.267 60.8975L100.675 61.2382L100.744 61.3063C100.907 61.4813 101.352 62.019 101.152 62.7565C100.958 63.4662 100.332 63.7231 100.121 63.7979L100.072 63.8173L100.023 63.8271C99.6523 63.9581 99.2681 64.0217 98.8749 64.0412V64.0607C98.5554 64.6432 98.0102 65.1702 97.2009 65.2772L97.1425 65.287L97.0939 65.2967C96.6532 65.3539 96.2049 65.3353 95.7605 65.2578L95.7118 65.248L95.6534 65.2383C95.5992 65.2288 95.5645 65.2274 95.5561 65.2286L95.5464 65.2383L95.4977 65.2578L95.4588 65.287C95.2082 65.4198 94.9583 65.559 94.7094 65.7055L94.6607 65.7347L94.6218 65.7541C94.1113 66.0546 93.5452 66.1446 92.9867 66.0656C92.5908 66.5342 92.0534 66.8993 91.3613 66.9513H91.2543C91.1462 66.9595 91.043 66.994 90.9331 67.0583L90.8844 67.0875L90.8455 67.1167C90.338 67.4139 89.7701 67.5249 89.1909 67.4574L89.1325 67.4476H89.0839C88.7957 67.4135 88.506 67.3827 88.2274 67.3698H88.1301C88.1054 67.3686 88.0785 67.3707 88.023 67.4087L87.9841 67.4379L87.9354 67.4671C87.2439 67.9406 86.4604 67.9186 85.7942 67.6033L85.6775 67.545C85.6043 67.5106 85.5567 67.4986 85.5412 67.4963L85.5023 67.506L85.4536 67.5158C85.1193 67.5919 84.7823 67.6525 84.4414 67.6909L84.3927 67.7007H84.383C84.3685 67.7108 84.3381 67.7318 84.2954 67.7785L84.2078 67.8661C83.7344 68.3854 83.0441 68.7459 82.2224 68.6058L82.1737 68.5961L82.1445 68.5863V68.5961L82.0472 68.6545C81.5441 68.9898 80.9583 69.1481 80.3342 69.073H80.2758L80.2272 69.0632C79.9819 69.0333 79.741 69.0262 79.5069 69.034H79.4096C79.2208 69.0404 79.0333 69.0737 78.8451 69.1314L78.7965 69.1411L78.7478 69.1606C78.0344 69.3794 77.3588 69.1984 76.811 68.8589L76.7526 68.8297L76.7039 68.8005C76.5525 68.7065 76.4897 68.7128 76.4995 68.7129H76.4412C76.4307 68.7179 76.3892 68.7394 76.3244 68.8005L76.2757 68.8394L76.227 68.8881C75.8226 69.268 75.3291 69.564 74.7477 69.6764L74.6503 69.6959C74.1763 69.7876 73.698 69.7753 73.2294 69.6667L73.132 69.6472C72.8674 69.5859 72.6024 69.5344 72.3437 69.5012H72.295L72.2366 69.4915C72.0329 69.4657 71.8302 69.4601 71.6332 69.4818L71.5359 69.5012C71.0827 69.5508 70.6418 69.4787 70.2122 69.3455L70.2025 69.365C69.6857 69.7876 68.9977 70.0367 68.2365 69.8613L68.1392 69.8419C67.7474 69.7516 67.3641 69.6172 66.9907 69.4428L66.9421 69.4234L66.8934 69.3942C66.745 69.3248 66.6227 69.3052 66.5333 69.3066H66.436C66.0987 69.3117 65.7605 69.3045 65.4238 69.2774H65.3751L65.3362 69.2676C65.3206 69.2736 65.2886 69.2917 65.2389 69.326L65.1415 69.4039C64.5823 69.7933 63.8735 69.9765 63.1366 69.7348L63.0393 69.6959C62.8366 69.6293 62.6352 69.5916 62.4456 69.5791H62.3969L62.3483 69.5693C62.0926 69.5525 61.8361 69.5512 61.5794 69.5596H61.5307L61.4723 69.5693C60.9154 69.5868 60.3908 69.4287 59.9248 69.1606L59.8762 69.1314L59.847 69.1119L59.8567 69.1216L59.808 69.1314C59.302 69.2775 58.7771 69.29 58.2605 69.1606L58.1632 69.1411C57.8798 69.07 57.5895 68.9991 57.3067 68.9367L57.2094 68.9173C57.139 68.9022 57.0583 68.9024 56.9466 68.9367L56.898 68.9562L56.8396 68.9659C56.5318 69.0606 56.2241 69.1564 55.915 69.2482L55.8566 69.2676L55.8079 69.2774C55.1972 69.4585 54.5761 69.4052 54.0074 69.1216L53.9587 69.1022L53.9392 69.0924L53.9295 69.1022L53.8808 69.1216C53.4335 69.2795 52.9644 69.3576 52.4891 69.3358L52.4404 69.326H52.3917C51.9751 69.3068 51.5623 69.235 51.1654 69.1022L51.0681 69.0632C50.661 68.9266 50.2729 68.7343 49.9099 68.489C49.287 68.7037 48.6309 68.675 48.0315 68.3528L48.012 68.343L47.9634 68.3625C47.3159 68.6082 46.621 68.5799 45.9974 68.2165L45.9001 68.1581C45.7332 68.061 45.5788 68.003 45.4329 67.9732L45.3356 67.9537C45.1 67.9065 44.8569 67.8701 44.6153 67.8564H43.6421C43.0901 67.8852 42.5597 67.7555 42.0849 67.4866L42.0459 67.4574L41.9973 67.4379C41.9421 67.4066 41.9061 67.3945 41.861 67.399L41.8123 67.4087L41.7539 67.4184C41.1471 67.4809 40.5696 67.3283 40.0702 66.9999L40.0313 66.9707L39.9826 66.9415C39.9123 66.8953 39.8724 66.8822 39.8366 66.8831L39.7879 66.8929H39.7295C39.4773 66.9 39.2165 66.9211 38.9509 66.961L38.9023 66.9707L38.8439 66.9805C38.2159 67.0737 37.6131 66.9248 37.092 66.5717L37.0433 66.5425L37.0044 66.5133C36.759 66.347 36.5109 66.1904 36.2647 66.0461L36.2161 66.0169L36.1674 65.9975C36.0625 65.9364 35.9708 65.9052 35.8754 65.9001H35.7781C35.4763 65.8842 35.1661 65.8671 34.8632 65.8515H34.8146L34.7659 65.8417C34.5127 65.8287 34.2533 65.8345 33.9873 65.8515H33.9289L33.8802 65.8612C33.2319 65.9023 32.6395 65.6874 32.1575 65.287C31.4396 65.4541 30.7366 65.2781 30.1818 64.7809L30.1331 64.7419L30.0942 64.703C29.9573 64.5804 29.8363 64.5134 29.7341 64.4792L29.6854 64.4694L29.6368 64.45C29.4306 64.3812 29.2165 64.3344 28.9944 64.304L28.8971 64.2845C28.6092 64.2452 28.3119 64.2085 28.0212 64.1774H27.9725L27.9238 64.1677C27.4231 64.1142 26.9506 63.9465 26.5321 63.6519L26.4931 63.6227L26.4542 63.6032C26.1387 63.3811 25.835 63.0257 25.734 62.5326C25.6387 62.0659 25.7663 61.6533 25.9092 61.355L25.9286 61.3063L25.9481 61.2479C26.1328 60.8642 26.4389 60.539 26.8532 60.3428C27.1605 60.1974 27.4779 60.1592 27.7681 60.1579C27.993 59.6148 28.396 59.1255 29.0528 58.8926L29.1501 58.8537C29.351 58.7823 29.5415 58.6878 29.7244 58.5714L29.773 58.5422L29.812 58.513C30.4186 58.1265 31.0909 58.1028 31.7001 58.2795C31.9684 58.0309 32.2862 57.8566 32.6344 57.7636C32.7493 57.3573 32.9825 56.9981 33.2865 56.7125L33.3352 56.6736L33.3741 56.6249C33.4371 56.5656 33.4692 56.5275 33.4812 56.5081V56.5178L33.5006 56.4205C33.506 56.3846 33.5093 56.2833 33.4422 56.0896L33.4033 55.9728C33.2201 55.4469 33.1554 54.8782 33.2865 54.3085L33.306 54.2112C33.4273 53.684 33.6874 53.217 34.0554 52.8292L34.1333 52.7513C34.2158 52.6636 34.2548 52.5779 34.2793 52.4885L34.2987 52.4399L34.3085 52.3912C34.3991 52.0547 34.5076 51.7164 34.6296 51.3887L34.6686 51.2914L34.9411 50.7853C35.2679 50.3392 35.7391 50.0648 36.2258 49.9288L36.2939 49.9191L36.3523 49.8996C36.4134 49.8826 36.4504 49.8604 36.4691 49.851L36.4983 49.812C36.5746 49.6901 36.6419 49.5316 36.693 49.3254L36.7027 49.267L36.7222 49.2183L36.8876 48.7512C37.0992 48.3065 37.4423 47.9383 37.9095 47.7L37.9582 47.6806L38.0069 47.6514C38.1094 47.5985 38.1758 47.5436 38.221 47.4762L38.2404 47.4275L38.2696 47.3886C38.5112 47.0288 38.8049 46.7116 39.1456 46.4445L39.2234 46.3861C39.5871 46.101 39.9986 45.8898 40.44 45.7535V45.7438L40.4595 45.7146C40.7022 45.1271 41.1403 44.6459 41.7734 44.3909L41.8707 44.352C41.9757 44.3094 42.0649 44.2454 42.1432 44.1574L42.1724 44.1184L42.2114 44.0795C42.4623 43.7977 42.7365 43.5351 43.0289 43.3009L43.1068 43.2425C43.4368 42.9782 43.7962 42.7607 44.1871 42.6001L44.2844 42.5612C44.5263 42.4619 44.7664 42.3524 44.9949 42.2303L45.0338 42.2108L45.0825 42.1816C45.3237 42.0526 45.5286 41.9257 45.7054 41.8118L45.7443 41.7923L45.7735 41.7729C45.9971 41.6289 46.2622 41.4712 46.5521 41.296L46.6008 41.2668L46.6397 41.2376C46.8234 41.1266 46.9566 41.0122 47.0485 40.9067L47.0874 40.8677L47.1166 40.8288C47.2087 40.7219 47.2966 40.5803 47.3697 40.4006L47.4086 40.3032C47.6138 39.8005 47.9452 39.3725 48.4013 39.0574L48.45 39.0282L48.4889 38.999C48.6454 38.8914 48.7913 38.7571 48.9269 38.6L48.9561 38.5611L48.995 38.5221C49.4347 38.0136 50.021 37.7907 50.6301 37.7727C50.7952 37.4542 51.0527 37.1158 51.4671 36.9065C51.6981 36.7902 51.9326 36.736 52.1582 36.7216L52.8005 36.78L52.8589 36.7995L52.9173 36.8092C53.0718 36.8491 53.1425 36.8429 53.1606 36.8384L53.2093 36.8189L53.2579 36.8092C53.3479 36.7795 53.4672 36.7102 53.6181 36.5756L53.6667 36.5367L53.7057 36.4978C54.1756 36.0772 54.773 35.8235 55.4478 35.8554L55.4965 35.8651H55.5549C55.9107 35.8821 56.2645 35.9238 56.6157 35.9819H56.6644L56.713 35.9917C56.9109 36.0244 57.1063 36.0304 57.2873 36.0111H57.3359L57.3846 36.0014C57.6275 35.9754 57.8791 35.9343 58.134 35.8749L58.2313 35.8554C58.6369 35.7608 59.0531 35.7167 59.4674 35.7289H59.5647C60.0046 35.7418 60.4333 35.8643 60.8008 36.1182H60.8105L60.8202 36.0987C60.9522 35.7628 61.1755 35.3936 61.5502 35.1254C61.9443 34.844 62.395 34.7602 62.8154 34.7945H62.8738L62.9322 34.8043C63.1318 34.8201 63.2801 34.7993 63.3897 34.7653L63.4383 34.7459L63.487 34.7361C63.8764 34.6142 64.2755 34.5379 64.6841 34.522H64.7912C65.0371 34.5126 65.2784 34.4845 65.5114 34.4442L65.6087 34.4247C66.0553 34.3479 66.5086 34.3616 66.9518 34.4539L67.0491 34.4734C67.1639 34.4969 67.2751 34.5004 67.3898 34.4734L67.4384 34.4539L67.4871 34.4442C67.7556 34.3807 68.0343 34.3054 68.3241 34.2203L68.3728 34.2106L68.4312 34.1911C68.8391 34.0715 69.2552 34.0001 69.677 33.9867H69.784ZM69.1319 36.5853L69.0833 36.5951L69.0249 36.6145C68.6968 36.7109 68.3751 36.7934 68.0613 36.8676L68.0127 36.8871L67.964 36.8968C67.4956 37.0074 67.0143 37.0136 66.543 36.9163L66.4846 36.9065L66.436 36.8968C66.2929 36.8674 66.1577 36.8645 66.0272 36.8871L65.9785 36.8968H65.9299C65.5854 36.9563 65.2325 37.0001 64.8787 37.0136H64.7814C64.5902 37.021 64.4039 37.0554 64.2267 37.1109L64.178 37.1206L64.1391 37.1401C63.7723 37.2549 63.391 37.2816 63.0101 37.2764C62.7282 37.8869 62.2187 38.4331 61.3945 38.5416H61.3653C61.2338 38.6459 61.0777 38.7468 60.8689 38.7947C60.3604 38.9103 59.9739 38.6858 59.8956 38.6389C59.685 38.513 59.5167 38.329 59.4187 38.2204H59.3895C59.1953 38.2148 58.9965 38.232 58.7958 38.2788L58.6985 38.2983C58.3478 38.3801 57.9968 38.446 57.6474 38.4832H57.5987L57.5501 38.4929C57.1391 38.5367 56.7244 38.5216 56.314 38.454L56.2556 38.4443L56.2069 38.4346C55.9508 38.3923 55.6882 38.369 55.4283 38.3567L55.3797 38.347L55.331 38.3956L55.2823 38.4346C54.9197 38.7588 54.5038 39.0201 54.0366 39.1742L53.9879 39.184L53.949 39.2034C53.5059 39.3496 53.0577 39.3309 52.6253 39.2618C52.4759 39.5059 52.2956 39.7524 52.0219 39.9334C51.6467 40.181 51.2246 40.2711 50.8248 40.2546H50.7859C50.5217 40.5563 50.2284 40.8268 49.9002 41.0526L49.8612 41.0818L49.8126 41.111C49.7793 41.1349 49.7469 41.1695 49.7153 41.2473L49.6763 41.3446C49.5112 41.7503 49.2889 42.1241 49.0048 42.4541L48.9658 42.4931L48.9366 42.532C48.6513 42.8622 48.3125 43.1403 47.9342 43.369L47.8369 43.4274C47.5622 43.5934 47.3243 43.7379 47.1264 43.8654L47.0874 43.8848L47.0582 43.914C46.814 44.0714 46.5407 44.2261 46.2504 44.3812L46.2115 44.4007L46.1628 44.4299C45.8598 44.5917 45.5476 44.7369 45.2285 44.8678L45.1312 44.9068C44.9615 44.9768 44.8084 45.0734 44.664 45.189L44.5861 45.2474C44.4045 45.3929 44.2298 45.5551 44.0703 45.7341L44.0314 45.773L44.0022 45.8119C43.6694 46.186 43.2603 46.4714 42.7953 46.6587L42.7661 46.6684L42.7467 46.7171L42.7175 46.7754C42.4554 47.4079 41.9645 47.8971 41.277 48.1088L41.2284 48.1186L41.1797 48.138C41.0079 48.1909 40.869 48.258 40.7612 48.3424L40.7223 48.3813L40.6833 48.4105C40.5528 48.5132 40.4399 48.6356 40.3427 48.7804L40.3135 48.8193L40.2843 48.868C39.9913 49.303 39.5976 49.6347 39.1359 49.8704H39.1164V49.9191C39.0087 50.3547 38.8375 50.7701 38.6006 51.1454L38.5714 51.1941L38.5422 51.233C38.1713 51.8174 37.5981 52.1337 37.0239 52.2939L36.9655 52.3133H36.946C36.8591 52.5514 36.778 52.7905 36.7124 53.0335L36.693 53.1309C36.5564 53.6376 36.2918 54.0868 35.9338 54.4643L35.9046 54.5032L35.8657 54.5421C35.7918 54.62 35.7566 54.6924 35.7392 54.766L35.7294 54.8146L35.71 54.873C35.7027 54.9082 35.6932 54.9955 35.7489 55.1553L35.7781 55.2137L35.7975 55.2623C35.9689 55.7541 36.0419 56.2905 35.9533 56.8293V56.878L35.9435 56.9266C35.8398 57.5517 35.4993 58.0569 35.0871 58.4449L35.0579 58.4644C35.0998 58.7648 35.1328 59.3434 34.6686 59.8075C34.1909 60.2837 33.5929 60.2437 33.2963 60.1968C33.0324 60.462 32.6942 60.6771 32.2841 60.771C31.875 60.8638 31.4812 60.8253 31.1356 60.7126L31.0772 60.6932L31.0383 60.6737C30.7238 60.8722 30.3933 61.0315 30.0455 61.1603L30.0358 61.1993L30.0163 61.2674C29.9487 61.4892 29.8227 61.7029 29.666 61.9097C29.924 61.9599 30.1858 62.0015 30.4349 62.0849L30.4738 62.1044L30.5224 62.1239C30.9698 62.2737 31.3682 62.5165 31.7196 62.8246C32.2401 62.7063 32.7584 62.7685 33.2184 62.9998L33.6661 63.3015L33.705 63.3307L33.7537 63.3696H33.7732L33.8218 63.3599H34.9995C35.3018 63.3755 35.6034 63.3927 35.9046 63.4086H35.9533L36.0117 63.4183C36.5185 63.4458 36.9979 63.5919 37.4326 63.8465L37.4716 63.8757L37.5202 63.8952C37.8145 64.0676 38.1073 64.2543 38.3962 64.45L38.4448 64.4792L38.4838 64.5084H38.5324L38.5811 64.4986C38.9428 64.4443 39.3041 64.4113 39.6614 64.4013H39.7685C40.3442 64.3856 40.8846 64.5495 41.3549 64.8587L41.3938 64.8879L41.4425 64.9171C41.4564 64.9262 41.4661 64.9341 41.4717 64.9366H41.5009L41.5496 64.9269H41.5982C42.1711 64.8674 42.7268 64.9862 43.2236 65.2675L43.2722 65.2967L43.3112 65.3162C43.3873 65.3593 43.4476 65.377 43.5058 65.3746L43.5642 65.3648H44.7029L44.7516 65.3746C45.11 65.3949 45.471 65.4403 45.8222 65.5108L45.9195 65.5303C46.3549 65.6178 46.7698 65.7731 47.1556 65.9975H47.1848L47.6714 65.8612C47.9951 65.8084 48.3233 65.8294 48.6447 65.9196L49.1216 66.1045L49.1508 66.1142L49.2092 66.1045L49.725 65.9877C50.071 65.9486 50.4127 65.9903 50.7372 66.1142L51.2141 66.3576L51.2628 66.3965L51.3017 66.4257C51.496 66.557 51.6823 66.6494 51.8564 66.7079L51.9051 66.7177L51.9538 66.7371C52.136 66.7983 52.3179 66.8355 52.4988 66.8442H52.6059C52.7291 66.8495 52.8714 66.8269 53.0438 66.7663L53.1022 66.7469L53.1509 66.7371C53.7709 66.5183 54.4214 66.5461 55.0196 66.8442L55.0682 66.8734L55.1072 66.8831L55.2045 66.8637C55.5068 66.7739 55.8087 66.6837 56.1096 66.5911L56.1583 66.5717L56.2167 66.5522C56.7128 66.4002 57.2297 66.3713 57.7447 66.4841L57.8031 66.4938L57.8518 66.5036C58.157 66.5709 58.4614 66.6508 58.7666 66.7274L58.864 66.7469C58.9367 66.7651 59.0163 66.7662 59.117 66.7371L59.1657 66.7274L59.2143 66.7079C59.8649 66.5202 60.5098 66.6271 61.0733 66.9513L61.1219 66.9707L61.1706 66.9999C61.2854 67.066 61.3539 67.0791 61.3945 67.0778L61.4431 67.0681H61.4918C61.8319 67.0568 62.1745 67.0651 62.5137 67.0875H62.5624L62.611 67.0972C62.9992 67.1229 63.3852 67.1931 63.7595 67.3114L63.8179 67.2822C64.2984 66.9487 64.877 66.7351 65.5211 66.7858H65.5795L65.6282 66.7955C65.8845 66.8161 66.1407 66.8189 66.397 66.815H66.5041C67.0094 66.808 67.494 66.9257 67.9445 67.1362L67.9932 67.1654L68.0419 67.1848C68.2526 67.2833 68.4589 67.3505 68.655 67.399L68.6745 67.3892L68.7232 67.3503L69.1709 67.0583C69.4897 66.8961 69.8449 66.8064 70.222 66.8247L70.8546 66.9513L70.913 66.9707C71.0509 67.0183 71.1628 67.0302 71.2634 67.0194L71.312 67.0097H71.3607C71.7578 66.966 72.1601 66.9684 72.5578 67.0194L72.6065 67.0291H72.6551C72.9983 67.0731 73.3437 67.1444 73.6868 67.2238L73.7452 67.2335L73.7939 67.2432C73.9326 67.2752 74.0554 67.2754 74.1734 67.253L74.2708 67.2335C74.2812 67.2315 74.3711 67.2119 74.5238 67.0681L74.5725 67.0291L74.6114 66.9805C75.0415 66.5754 75.6002 66.2685 76.266 66.231L76.3146 66.2213H76.3633C76.9758 66.1872 77.5385 66.3813 78.0178 66.6787L78.1152 66.7371C78.508 66.6171 78.9127 66.5565 79.322 66.5425H79.4291C79.7944 66.5304 80.1609 66.5462 80.5289 66.5911H80.5775L80.6359 66.6009L80.6651 66.5814L80.7138 66.5522L80.7527 66.523C81.2448 66.1945 81.8179 66.0516 82.417 66.124L82.4559 66.0948C82.8572 65.6561 83.3914 65.3042 84.0618 65.2286L84.1105 65.2188H84.1592C84.4074 65.1909 84.6555 65.1476 84.8988 65.0923L84.9475 65.0826L84.9962 65.0631C85.6126 64.9226 86.2091 65.0446 86.7286 65.287C87.1828 65.0046 87.6972 64.8527 88.2469 64.8782H88.2955L88.3442 64.8879C88.6838 64.9037 89.0306 64.925 89.3759 64.9658L89.4245 64.9755L89.4829 64.9853C89.5301 64.9904 89.5517 64.982 89.5802 64.9658L89.6776 64.9074C90.1053 64.6575 90.5731 64.5066 91.0693 64.4694H91.0888L91.0985 64.4597L91.1764 64.3624C91.3958 64.0909 91.6877 63.8426 92.0621 63.6908C92.2545 63.6129 92.4517 63.571 92.646 63.5546L93.2105 63.5838L93.2689 63.5935L93.3176 63.6032C93.3377 63.6069 93.3599 63.6031 93.3663 63.6032L93.3565 63.613L93.3955 63.5838L93.4441 63.5546C93.7238 63.39 94.0078 63.2375 94.2909 63.0874L94.3395 63.0582L94.3785 63.0387C94.9197 62.7517 95.5092 62.6857 96.0817 62.7857L96.1401 62.7954L96.1887 62.8051C96.3823 62.8389 96.5538 62.828 96.7046 62.8149L96.724 62.8051L96.7532 62.7467L96.9479 62.4548C96.7216 62.3032 96.4892 62.1521 96.2763 61.9681L96.1985 61.8903C96.1503 61.8486 96.1137 61.8378 96.1011 61.8319V61.8221H96.0135C95.6564 61.7905 95.2053 61.6496 94.8651 61.2576C94.5358 60.877 94.4575 60.4284 94.4563 60.0995V60.0021C94.4553 59.6159 94.4948 59.2234 94.5731 58.8342L94.5828 58.7758L94.5926 58.7272C94.6239 58.5718 94.628 58.4384 94.6023 58.3184L94.5828 58.2211C94.5449 58.0452 94.4796 57.8713 94.3882 57.7052L94.359 57.6566L94.3298 57.6176C94.1122 57.2232 93.974 56.7968 93.9016 56.3524L93.8918 56.294L93.8821 56.2453C93.8704 56.174 93.8419 56.1168 93.7848 56.0507L93.7556 56.0117L93.7166 55.9728C93.4735 55.6914 93.2573 55.394 93.0645 55.0871L93.0353 55.0385L93.0061 54.9995C92.8936 54.8199 92.7634 54.6556 92.6168 54.5032L92.5876 54.4643L92.5487 54.4253C92.3819 54.252 92.2057 54.0928 92.0231 53.9484L91.9453 53.89C91.6852 53.6842 91.4394 53.4658 91.2056 53.2379L91.1375 53.1698C91.0176 53.0529 90.8837 52.9555 90.7384 52.8778L90.6995 52.8584L90.6508 52.8389C90.2174 52.6068 89.8611 52.2684 89.5705 51.8851L89.5413 51.8462L89.5316 51.8364H89.5219C88.8435 51.7734 88.2271 51.4184 87.8868 50.7464L87.8576 50.6977L87.8381 50.6588C87.6534 50.2915 87.536 49.8988 87.4683 49.4909L87.4488 49.3935C87.4106 49.1627 87.3561 48.9333 87.2833 48.7122L87.2444 48.6149C87.1268 48.2584 87.0859 47.8885 87.079 47.5151C86.7364 47.3659 86.3757 47.1335 86.1446 46.7171C85.9806 46.4208 85.9328 46.1155 85.9305 45.8314C85.6729 45.7313 85.4076 45.5883 85.1908 45.3447C84.8522 44.963 84.7277 44.5093 84.7139 44.1087C84.3436 43.92 84.0348 43.666 83.7796 43.3398C83.2323 43.4314 82.6446 43.404 82.0958 43.1062L82.0472 43.0868L82.0082 43.0673C81.867 42.9905 81.7169 42.9392 81.5605 42.9116L81.4632 42.8921C81.0739 42.8232 80.6951 42.701 80.3245 42.5417L80.2272 42.5028C80.1208 42.457 80.0303 42.446 79.9449 42.4541H79.8962L79.8476 42.4639C79.3113 42.5147 78.7458 42.4114 78.2514 42.0746L78.2222 42.0551L78.1833 42.0259C78.0022 41.9026 77.7857 41.7776 77.5409 41.6366L77.502 41.6074L77.4534 41.5782C77.1017 41.3755 76.7774 41.138 76.4898 40.858L76.4509 40.8191L76.4217 40.7801C76.2438 40.6066 76.053 40.447 75.8572 40.2935L75.7793 40.2351C75.4142 39.9489 75.1191 39.5925 74.8839 39.1937L74.8547 39.145L74.8255 39.1061C74.7164 38.9211 74.5892 38.758 74.4557 38.6097L74.4265 38.6195C74.0764 38.666 73.6807 38.6472 73.2975 38.4929C72.9416 38.3492 72.664 38.1113 72.4508 37.8311C71.9904 37.8617 71.5307 37.8158 71.0882 37.6462L71.0395 37.6365L70.5918 37.4126C70.214 37.1806 69.9138 36.8614 69.677 36.5172L69.6575 36.488C69.4845 36.5006 69.3102 36.533 69.1319 36.5853ZM31.6514 63.1361L31.7001 63.0777L31.6904 63.0095L31.632 63.0582L31.6514 63.1361ZM31.7001 63.0777L31.6514 63.1361L31.632 63.0582L31.6904 63.0095L31.7001 63.0777ZM87.3709 47.1356L87.332 47.2426H87.4001L87.4391 47.1356H87.3709ZM87.4391 47.1356L87.4001 47.2426H87.332L87.3709 47.1356H87.4391ZM85.0351 43.9822L85.0059 44.0503H85.1227L85.1519 43.9822H85.0351ZM85.0643 44.0503H85.0059L85.0351 43.9822H85.0935L85.0643 44.0503ZM85.1227 44.0503H85.0643L85.0935 43.9822H85.1519L85.1227 44.0503ZM86.7091 43.9627L86.6994 44.0211H86.8356L86.8454 43.9627H86.7091ZM86.7675 44.0211H86.6994L86.7091 43.9627H86.7772L86.7675 44.0211ZM86.8356 44.0211H86.7675L86.7772 43.9627H86.8454L86.8356 44.0211ZM69.8521 36.3031L69.7451 36.3712V36.4588L69.8521 36.381V36.3031ZM69.8035 36.4199L69.7451 36.4588V36.3712L69.8035 36.3323V36.4199ZM69.8521 36.381L69.8035 36.4199V36.3323L69.8521 36.3031V36.381Z" fill="white"/>
<path d="M110.173 20.9112C110.145 20.43 109.721 20.0652 109.25 20.1663C104.597 21.1638 82.638 27.181 81.2885 52.0999C81.2625 52.5797 81.6457 52.9833 82.124 52.938C87.1231 52.4639 111.789 48.7133 110.173 20.9112Z" fill="#27C467"/>
<path d="M109.104 19.0493C109.068 19.0621 109.039 19.0917 109.007 19.1075C108.974 19.0969 108.942 19.0756 108.904 19.0687C108.739 19.0392 108.583 19.0672 108.445 19.1205C108.343 19.1275 108.236 19.144 108.128 19.1981C108.085 19.2197 108.059 19.2632 108.024 19.2886C107.999 19.2856 107.974 19.2635 107.947 19.2627C107.564 19.2532 107.334 19.488 107.222 19.6508C107.152 19.6573 107.088 19.6623 107.028 19.6831C107.007 19.6825 106.986 19.6948 106.964 19.696C106.942 19.6877 106.923 19.6706 106.899 19.6637C106.768 19.6259 106.59 19.6086 106.401 19.6702C106.283 19.7088 106.191 19.7738 106.116 19.8383C106.027 19.8243 105.925 19.8144 105.813 19.8383C105.689 19.8651 105.59 19.9231 105.509 19.9806C105.496 19.9799 105.483 19.9678 105.47 19.9677C105.1 19.9646 104.855 20.1877 104.745 20.3686C104.74 20.3782 104.738 20.3915 104.733 20.401C104.718 20.4093 104.708 20.4242 104.694 20.4333C104.502 20.3697 104.237 20.3719 103.995 20.5174C103.959 20.5227 103.917 20.5192 103.879 20.5303C103.845 20.5402 103.818 20.5627 103.788 20.5756C103.67 20.5578 103.535 20.5407 103.394 20.5885L103.116 20.7502L103.09 20.7761L103.058 20.7955C102.988 20.8546 102.939 20.9247 102.896 20.9895C102.788 21.0126 102.673 21.0639 102.56 21.1512C102.501 21.1964 102.462 21.2518 102.424 21.2999C102.377 21.3186 102.34 21.3471 102.301 21.371C102.282 21.3758 102.262 21.3777 102.243 21.384C102.171 21.4078 102.106 21.4439 102.049 21.481C101.921 21.4828 101.777 21.5067 101.628 21.5974C101.583 21.6253 101.554 21.6693 101.518 21.7009C101.389 21.7058 101.247 21.7458 101.104 21.8367C101.087 21.8341 101.071 21.8254 101.053 21.8237C100.838 21.8048 100.591 21.8692 100.399 22.0501C100.389 22.0597 100.383 22.0727 100.374 22.0824C100.341 22.0863 100.31 22.1 100.277 22.1083C100.25 22.1048 100.222 22.0897 100.193 22.0889C99.9668 22.0829 99.7325 22.1679 99.5588 22.3541C99.447 22.4739 99.3978 22.601 99.3712 22.6903C99.3507 22.6938 99.3277 22.6852 99.3065 22.6903C99.1397 22.7318 99.0175 22.8189 98.925 22.9102C98.7942 22.9152 98.6709 22.9639 98.5499 23.0331C98.4356 23.0102 98.2788 22.9966 98.1036 23.059C97.8009 23.1672 97.6566 23.4055 97.5992 23.5634C97.5966 23.5706 97.6015 23.5822 97.5992 23.5893C97.5274 23.6129 97.4513 23.6357 97.3793 23.6863C97.297 23.6934 97.2024 23.7088 97.1077 23.751C97.0314 23.7853 96.9759 23.8396 96.9202 23.8868C96.8788 23.8924 96.8356 23.8992 96.7908 23.9126C96.7732 23.918 96.756 23.9257 96.7391 23.932C96.566 23.9406 96.3573 23.9929 96.1764 24.1843C96.1444 24.2183 96.1226 24.2593 96.0988 24.2942C96.013 24.3514 95.9426 24.4135 95.8919 24.4818L95.7949 24.5206C95.6384 24.5866 95.5354 24.6856 95.4586 24.7857C95.3122 24.8108 95.1534 24.8694 95.0188 24.9991C94.9861 25.0307 94.9658 25.07 94.9412 25.1026C94.9097 25.1154 94.8699 25.1169 94.8377 25.1349C94.6883 25.2193 94.5972 25.3362 94.5338 25.4454C94.4544 25.4923 94.3746 25.55 94.3074 25.6329C94.2939 25.6498 94.2867 25.6742 94.2751 25.6911C94.1992 25.7243 94.133 25.7795 94.0617 25.8463C93.9309 25.9007 93.8327 25.9733 93.7577 26.0598C93.7408 26.0587 93.7237 26.0533 93.706 26.0533C93.593 26.0532 93.4349 26.0802 93.2791 26.1697C93.1835 26.2252 93.1136 26.3008 93.0528 26.3766C93.0233 26.3957 92.985 26.4041 92.9558 26.4284C92.814 26.5466 92.752 26.6911 92.71 26.8164C92.7 26.8203 92.6877 26.8185 92.6777 26.8229C92.4972 26.9018 92.3842 27.0408 92.3026 27.1786C92.2398 27.1852 92.168 27.1906 92.0956 27.2174C91.8492 27.3093 91.6886 27.5013 91.6106 27.7024C91.5029 27.7659 91.3948 27.8539 91.3131 27.9934C91.2662 28.0737 91.2592 28.1591 91.242 28.2327C91.2052 28.2571 91.18 28.2965 91.145 28.3297C91.0293 28.3295 90.8584 28.3475 90.6858 28.4591C90.5105 28.5727 90.422 28.7315 90.3689 28.873C90.1866 28.8948 89.9299 28.9629 89.7545 29.2351C89.7143 29.2976 89.6909 29.3626 89.6704 29.4227L89.6446 29.4421C89.4897 29.5531 89.4108 29.6945 89.36 29.8237C89.2503 29.8497 89.1193 29.8974 88.9978 30.0047C88.7758 30.2018 88.7186 30.4525 88.7133 30.6062L88.7198 30.6256C88.6594 30.6572 88.5915 30.6874 88.5322 30.742C88.323 30.9348 88.2668 31.1756 88.2606 31.337L88.2671 31.3499C88.2324 31.3511 88.195 31.3376 88.1571 31.3434C87.9821 31.3709 87.7485 31.4769 87.588 31.7056C87.397 31.8574 87.2871 32.0704 87.2646 32.2877C87.2432 32.4968 87.3013 32.6634 87.3293 32.7339L87.3358 32.7404C87.212 32.8251 87.124 32.9399 87.0577 33.0767C86.9867 33.1283 86.9175 33.1946 86.8572 33.2836C86.7152 33.3205 86.5059 33.406 86.3592 33.6328C86.2844 33.7488 86.2573 33.8663 86.2428 33.9691C86.2368 33.976 86.2292 33.9814 86.2234 33.9885L85.9583 34.2278L85.9389 34.2537L85.913 34.286C85.8587 34.3627 85.8341 34.4443 85.8095 34.5188C85.6762 34.5618 85.4955 34.6475 85.3633 34.8487C85.2982 34.9481 85.2654 35.0475 85.2469 35.1397C85.1655 35.1802 85.0744 35.2321 84.9947 35.3208C84.8004 35.5371 84.7858 35.782 84.8006 35.9546C84.7084 36.0739 84.638 36.2123 84.6196 36.3685C84.6149 36.4093 84.6252 36.4479 84.626 36.4849L84.5355 36.5237L84.5032 36.5431L84.4708 36.5689C84.3394 36.6567 84.2091 36.7923 84.141 36.9828C84.1384 36.9901 84.1433 37.0014 84.141 37.0087C84.1181 37.0357 84.084 37.0606 84.0634 37.0928C83.9763 37.2301 83.946 37.3764 83.9405 37.5067C83.8625 37.586 83.785 37.6827 83.74 37.8106C83.7086 37.9 83.7037 37.9861 83.7012 38.0629C83.6842 38.1131 83.6881 38.1634 83.6818 38.2116C83.5361 38.2846 83.3533 38.4127 83.2615 38.6708C83.1819 38.8946 83.2226 39.0864 83.2679 39.2205L83.2615 39.2593V39.2981C83.2584 39.3291 83.268 39.3592 83.2679 39.3886L83.145 39.4598L83.1062 39.4856C82.9884 39.5492 82.8256 39.6744 82.7311 39.8931C82.6789 40.0145 82.665 40.1322 82.6665 40.2358C82.5876 40.421 82.5801 40.5979 82.6083 40.7338L82.6212 40.7791L82.6277 40.8179C82.6331 40.8438 82.6594 40.8649 82.6665 40.889C82.5528 40.9446 82.3919 41.054 82.2849 41.2641C82.2208 41.3041 82.1481 41.3517 82.0844 41.4258C81.9551 41.5771 81.9131 41.7574 81.9033 41.9302C81.8634 42.0395 81.8474 42.1383 81.8516 42.2342C81.8392 42.2536 81.8241 42.2709 81.8128 42.2924C81.6801 42.432 81.5848 42.6294 81.58 42.855C81.5759 43.0576 81.6483 43.2111 81.6964 43.2948C81.7122 43.3222 81.7441 43.3361 81.7611 43.3595C81.6862 43.481 81.6426 43.6216 81.6382 43.7798C81.5937 43.8133 81.5397 43.8451 81.4959 43.8963C81.3655 44.0492 81.322 44.244 81.3213 44.4395C81.2616 44.5418 81.2112 44.6646 81.2049 44.8211C81.198 45.0019 81.2557 45.146 81.3148 45.2544C81.2859 45.269 81.2479 45.2732 81.2178 45.2932C81.1366 45.3473 81.0238 45.449 80.9397 45.6101C80.8484 45.7855 80.8224 45.977 80.8557 46.1533L80.8686 46.2309C80.8726 46.252 80.8892 46.2694 80.8945 46.2891C80.8505 46.4222 80.8304 46.5593 80.8557 46.6965C80.8634 46.7382 80.8953 46.7708 80.9074 46.8065C80.8198 46.8895 80.7167 47.0172 80.6681 47.201C80.6499 47.2705 80.6626 47.3379 80.6616 47.4015C80.5798 47.495 80.4926 47.6236 80.4612 47.8024C80.4132 48.0801 80.5202 48.295 80.597 48.4104C80.5614 48.476 80.5246 48.5485 80.5064 48.6367C80.4769 48.782 80.4964 48.9101 80.5258 49.0183C80.4165 49.1615 80.3098 49.3615 80.3383 49.6262L80.3447 49.6585V49.6973L80.3577 49.7167C80.3491 49.7354 80.3264 49.7483 80.3189 49.7685C80.2241 50.0251 80.2898 50.2427 80.3642 50.4022C80.3523 50.4455 80.3239 50.4887 80.3189 50.5381C80.2893 50.8389 80.4183 51.0586 80.5064 51.1654H80.5129C80.4653 51.1907 80.4054 51.2168 80.3512 51.2624C80.2241 51.3697 79.9918 51.6446 80.0602 52.0514C80.0675 52.0938 80.0869 52.1305 80.099 52.1678L80.0731 52.2907V52.3424L80.0667 52.3941C80.0602 52.6299 80.1498 52.8615 80.3124 53.0344C80.3321 53.0552 80.3633 53.0618 80.3836 53.0797C80.4325 53.211 80.5015 53.3541 80.6616 53.4677C80.8444 53.5966 81.0306 53.6142 81.1337 53.6164C81.1464 53.6284 81.1521 53.6501 81.1661 53.6617C81.3866 53.8457 81.6458 53.8824 81.8451 53.8557L81.9357 53.8428C82.0681 53.8248 82.1768 53.7731 82.2655 53.7199C82.2804 53.7205 82.2953 53.7266 82.3108 53.7264C82.4215 53.7246 82.5173 53.6941 82.6018 53.6617C82.6697 53.6718 82.7414 53.6903 82.8217 53.6811L82.8346 53.6746C82.8981 53.689 82.966 53.7091 83.0416 53.707C83.222 53.7015 83.3779 53.6378 83.4943 53.5582C83.5341 53.5309 83.5603 53.4908 83.5913 53.4612C83.7044 53.5739 83.9969 53.8252 84.432 53.7005L84.4643 53.694L84.4967 53.6811C84.5262 53.6726 84.5477 53.6466 84.5743 53.6358C84.5954 53.6362 84.6168 53.6501 84.639 53.6488C84.6594 53.6476 84.6776 53.6319 84.6972 53.6294L84.7036 53.6423C84.8645 53.7508 85.1998 53.8818 85.5638 53.694C85.8078 53.5673 85.913 53.3624 85.9518 53.2737C86.0444 53.3333 86.1647 53.4001 86.3204 53.416C86.3656 53.4205 86.4085 53.4047 86.4498 53.403C86.557 53.4453 86.7005 53.484 86.8701 53.4612C87.0791 53.4329 87.2414 53.3338 87.3487 53.2284L87.3746 53.1961L87.4069 53.1702C87.4142 53.163 87.4194 53.1516 87.4263 53.1443C87.4417 53.1466 87.4554 53.1623 87.4716 53.1637C87.6782 53.1817 87.8501 53.1107 87.989 53.0215C88.0041 53.023 88.0184 53.0336 88.0342 53.0344C88.0934 53.0372 88.1488 53.0232 88.2024 53.015C88.3146 53.0453 88.4514 53.0719 88.6098 53.0344C88.7629 52.9981 88.878 52.9237 88.9655 52.8468C89.0483 52.8604 89.1405 52.8709 89.2436 52.8533C89.511 52.8075 89.6895 52.6492 89.7868 52.517L89.8127 52.4847L89.8386 52.4459L89.845 52.4394C89.8523 52.4365 89.8574 52.4295 89.8644 52.4265C90.0317 52.4867 90.278 52.5437 90.55 52.3941C90.6456 52.3411 90.7192 52.2722 90.7763 52.2066C90.8113 52.2027 90.8492 52.2157 90.8863 52.2066C90.9048 52.202 90.9205 52.1863 90.938 52.1807V52.1872C91.1131 52.2282 91.3428 52.22 91.5589 52.0967L91.5653 52.0902C91.6465 52.071 91.7332 52.039 91.8175 51.9867C92.0813 51.8223 92.1623 51.5726 92.1862 51.4887C92.188 51.4821 92.191 51.4759 92.1926 51.4693C92.2711 51.426 92.3356 51.3677 92.3931 51.3077C92.4814 51.3314 92.5885 51.3457 92.71 51.3335C92.8696 51.3173 93.0039 51.2518 93.1174 51.1718C93.1355 51.17 93.1517 51.1618 93.1692 51.1589C93.2167 51.1801 93.2616 51.2229 93.3244 51.2365C93.5516 51.2854 93.8548 51.2488 94.0875 51.0231C94.1093 51.002 94.1212 50.9735 94.1393 50.952C94.2005 50.9193 94.2634 50.8823 94.3203 50.8291C94.3871 50.7664 94.4262 50.6918 94.4626 50.6286C94.5508 50.6468 94.6516 50.6621 94.7601 50.6545H94.7989L94.8377 50.648C95.0241 50.6344 95.2115 50.5669 95.3616 50.4346C95.4405 50.3649 95.4942 50.2856 95.5362 50.2147H95.5426C95.5591 50.2058 95.5727 50.1919 95.5879 50.1824C95.6361 50.1821 95.6892 50.1926 95.7431 50.1824L95.7755 50.1759L95.8143 50.1694C96.017 50.131 96.1622 50.0149 96.2734 49.8913H96.2928L96.3316 49.8849L96.364 49.8719C96.5017 49.8367 96.6136 49.7803 96.7003 49.7103C96.8712 49.6538 96.9959 49.5657 97.0818 49.458C97.1402 49.4373 97.203 49.4131 97.2629 49.374L97.2694 49.3675C97.3752 49.3632 97.4995 49.3429 97.6251 49.277C97.8011 49.1839 97.8979 49.0466 97.9614 48.9277C97.9884 48.91 98.0214 48.9025 98.0454 48.8825C98.0657 48.8757 98.0894 48.8782 98.1101 48.8695C98.2983 48.7902 98.4167 48.6674 98.4917 48.5462C98.5062 48.5448 98.522 48.5548 98.5369 48.5526C98.6479 48.5366 98.7459 48.4936 98.8344 48.4427C98.8867 48.4314 98.9466 48.435 99.0026 48.4104C99.2897 48.2837 99.4242 48.044 99.4747 47.8736C99.4953 47.8035 99.4904 47.7355 99.4941 47.6796C99.5047 47.6615 99.5176 47.6456 99.5264 47.6278C99.5976 47.6251 99.6809 47.6306 99.7657 47.602C99.9597 47.536 100.087 47.3986 100.18 47.2592C100.226 47.2372 100.282 47.2287 100.328 47.1945C100.37 47.1635 100.393 47.1186 100.425 47.0846C100.495 47.0776 100.576 47.0657 100.658 47.0328C100.762 46.9907 100.845 46.9271 100.917 46.8582C100.949 46.8442 100.987 46.839 101.02 46.8194C101.04 46.8077 101.054 46.787 101.072 46.7742C101.09 46.7682 101.112 46.7687 101.13 46.7612C101.314 46.6856 101.461 46.5498 101.551 46.3861C101.558 46.3729 101.557 46.354 101.564 46.3409H101.602C101.834 46.3201 102.11 46.1947 102.275 45.9076C102.319 45.8308 102.335 45.7515 102.353 45.6812H102.372L102.411 45.6683L102.456 45.6618C102.597 45.6322 102.759 45.5564 102.896 45.4096C102.983 45.3164 103.037 45.2175 103.07 45.125C103.095 45.1058 103.13 45.0968 103.155 45.0733C103.233 44.997 103.285 44.9134 103.323 44.834C103.396 44.7793 103.467 44.7109 103.523 44.627C103.54 44.6022 103.549 44.5741 103.562 44.5494C103.579 44.5432 103.602 44.5508 103.62 44.543C103.818 44.4559 103.977 44.2932 104.06 44.0903C104.086 44.0252 104.096 43.9598 104.105 43.9027C104.111 43.8994 104.119 43.8998 104.125 43.8963C104.502 43.6641 104.521 43.3011 104.506 43.1073C104.577 43.0264 104.63 42.9464 104.661 42.8615C104.703 42.8388 104.743 42.8106 104.784 42.7774C104.819 42.7745 104.856 42.7858 104.894 42.7774C105 42.7539 105.149 42.6996 105.282 42.577C105.388 42.4794 105.454 42.3628 105.496 42.2471C105.601 42.1513 105.694 42.0295 105.741 41.872C105.743 41.8654 105.746 41.8591 105.748 41.8526C105.816 41.7677 105.871 41.6703 105.903 41.5616L105.91 41.5228L105.922 41.484C105.926 41.4712 105.926 41.4577 105.929 41.4452C106.048 41.3931 106.19 41.3174 106.298 41.1671C106.457 40.9441 106.47 40.7055 106.453 40.5527L106.44 40.4622L106.369 40.2488C106.375 40.2075 106.375 40.1701 106.375 40.1324C106.381 40.1276 106.382 40.118 106.388 40.113C106.424 40.1019 106.467 40.1044 106.505 40.0871C106.546 40.0679 106.585 40.0388 106.627 40.0095C106.734 39.9875 106.895 39.938 107.041 39.8025C107.102 39.7457 107.152 39.6849 107.19 39.6214C107.337 39.5458 107.51 39.4202 107.597 39.1752C107.693 39.1203 107.793 39.0393 107.876 38.9165C108.02 38.6995 108.022 38.4855 107.998 38.328C108.057 38.246 108.104 38.1684 108.128 38.0887C108.218 37.9955 108.301 37.881 108.341 37.733C108.395 37.5341 108.36 37.3633 108.328 37.2609C108.325 37.2499 108.319 37.2391 108.315 37.2286C108.365 37.209 108.429 37.2069 108.483 37.1704C108.629 37.0735 108.739 36.9121 108.8 36.7112L108.813 36.6983C108.877 36.612 108.911 36.5205 108.936 36.4331C109.056 36.3287 109.18 36.1842 109.221 35.961L109.227 35.9287L109.234 35.8899C109.255 35.7735 109.251 35.6673 109.234 35.573C109.291 35.5355 109.37 35.5101 109.428 35.4436C109.559 35.2908 109.628 35.0949 109.628 34.8939V34.8163C109.628 34.7508 109.607 34.6918 109.596 34.6352C109.628 34.583 109.664 34.5278 109.686 34.4606C109.692 34.444 109.695 34.4252 109.699 34.4089C109.832 34.277 109.964 34.0888 109.958 33.8139C109.954 33.6009 109.87 33.444 109.809 33.3547C109.854 33.1311 109.812 32.9401 109.758 32.8244C109.748 32.8054 109.735 32.7898 109.725 32.7727C109.759 32.7363 109.805 32.7048 109.835 32.6563C109.859 32.6188 109.864 32.5723 109.88 32.5334C109.902 32.519 109.936 32.5187 109.958 32.5011C110.039 32.435 110.121 32.3272 110.184 32.1842C110.249 32.1213 110.311 32.0396 110.359 31.932C110.47 31.8248 110.593 31.6667 110.618 31.4275C110.624 31.3652 110.61 31.3074 110.605 31.2529C110.728 31.0724 110.811 30.8528 110.753 30.6062C110.743 30.5622 110.717 30.527 110.702 30.4898C110.716 30.4518 110.75 30.4167 110.76 30.3734C110.77 30.3272 110.751 30.2807 110.753 30.2376C110.826 30.1625 110.902 30.0699 110.947 29.9401C110.978 29.8535 110.983 29.7708 110.986 29.6943C111.026 29.6022 111.063 29.4995 111.064 29.3774C111.065 29.2645 111.029 29.1693 110.999 29.0864C111.013 29.052 111.042 29.022 111.051 28.9829C111.105 28.7575 111.058 28.5706 110.993 28.4332C111.048 28.3226 111.096 28.1899 111.09 28.0322C111.081 27.7859 110.967 27.6141 110.896 27.5278C110.926 27.4547 110.952 27.371 110.96 27.2756C110.963 27.2444 110.954 27.2143 110.954 27.185C110.984 27.1627 111.028 27.1558 111.057 27.1268C111.133 27.0526 111.225 26.9323 111.277 26.7647C111.333 26.5851 111.329 26.3994 111.277 26.2408L111.264 26.202L111.251 26.1697L111.09 25.8916C111.176 25.7792 111.253 25.6202 111.258 25.4066C111.258 25.378 111.247 25.3492 111.245 25.3225C111.288 25.1685 111.303 24.9916 111.232 24.8051C111.213 24.7546 111.173 24.7162 111.148 24.6758C111.141 24.6373 111.14 24.6002 111.129 24.5658C111.138 24.5445 111.159 24.5244 111.167 24.5012L111.18 24.4688L111.193 24.43C111.252 24.2682 111.243 24.1206 111.219 23.9903C111.285 23.928 111.367 23.8506 111.42 23.738C111.495 23.5746 111.524 23.3718 111.471 23.1689C111.433 23.0245 111.359 22.9197 111.297 22.8456C111.322 22.7803 111.347 22.7085 111.355 22.6257C111.357 22.6043 111.348 22.5815 111.348 22.561C111.425 22.4373 111.49 22.2671 111.471 22.0501C111.452 21.8242 111.348 21.6642 111.251 21.5586C111.286 21.3481 111.237 21.1802 111.167 21.0477C111.169 21.0408 111.179 21.0353 111.18 21.0283C111.24 20.7775 111.181 20.5161 111.025 20.3169C110.986 20.2668 110.936 20.2346 110.896 20.2005C110.898 20.1679 110.924 20.1327 110.922 20.097C110.913 19.9686 110.868 19.7749 110.715 19.599C110.556 19.4175 110.356 19.3438 110.21 19.3209C110.137 19.3097 110.07 19.3224 110.01 19.3274C109.973 19.2831 109.944 19.2227 109.887 19.1787C109.689 19.0282 109.397 18.9479 109.104 19.0493ZM82.6277 53.0409L82.5242 53.0021L82.563 52.9891L82.6277 53.0409ZM82.272 53.0085L82.3819 53.0667L82.369 53.0732L82.2332 53.0215L82.272 53.0085ZM82.2332 53.0215L82.369 53.0732L82.3819 53.0667L82.272 53.0085L82.2332 53.0215ZM82.5242 53.0021L82.6277 53.0409L82.563 52.9891L82.5242 53.0021ZM81.8128 52.8921H81.8193H81.8128L81.8193 52.9439L81.7869 52.9503L81.7287 52.9374L81.7223 52.905L81.7675 52.8986L81.7611 52.8792L81.7999 52.8856H81.8128V52.8921ZM81.7675 52.918L81.774 52.9503H81.7869L81.8193 52.9439L81.8128 52.8921L81.7675 52.918ZM81.7352 52.9374L81.774 52.9503L81.7675 52.918L81.7352 52.9374ZM81.7675 52.8986L81.7223 52.905L81.7287 52.9374H81.7352L81.8128 52.8921V52.8856H81.7999L81.7611 52.8792L81.7675 52.8986ZM83.2097 52.8404L83.1709 52.8274V52.7757L83.2097 52.7822V52.8404ZM81.4894 52.7369L81.5347 52.808L81.3989 52.7692L81.4506 52.8533L81.373 52.8339L81.3213 52.7498L81.5347 52.808L81.4894 52.7369L81.373 52.6916L81.2696 52.6593L81.2631 52.6528L81.3536 52.6852L81.373 52.6916L81.4894 52.7369ZM81.373 52.8339L81.4506 52.8533L81.3989 52.7692L81.3213 52.7498L81.373 52.8339ZM83.1709 52.8274L83.2097 52.8404V52.7822L83.1709 52.7757V52.8274ZM82.0715 52.7628L82.0133 52.7757L82.0521 52.7563L82.0715 52.7628ZM82.0133 52.7757L82.0715 52.7628L82.0521 52.7563L82.0133 52.7757ZM84.044 52.7046L84.0116 52.7175L83.9728 52.6981L84.044 52.7046ZM84.0116 52.7175L84.044 52.7046L83.9728 52.6981L84.0116 52.7175ZM82.0974 52.6658L82.078 52.6722L82.0586 52.6593L82.0974 52.6658ZM82.1297 52.6464L82.175 52.6852L82.1103 52.6528L82.1297 52.6464ZM82.1103 52.6528L82.1556 52.6787H82.1685L82.1297 52.6464L82.1103 52.6528ZM82.078 52.6722L82.0974 52.6658L82.0586 52.6593L82.078 52.6722ZM81.5541 52.6334L81.483 52.6076L81.4765 52.5946L81.5541 52.6334ZM81.483 52.6076L81.5541 52.6334L81.4765 52.5946L81.483 52.6076ZM84.7877 52.6205L84.7683 52.627L84.6972 52.614L84.7877 52.6205ZM84.7683 52.627L84.7877 52.6205L84.6972 52.614L84.7683 52.627ZM81.0885 52.3941L81.1079 52.42H81.1273L81.1143 52.4071L81.1402 52.42H81.082L81.0885 52.3941L81.0367 52.3683H81.0173V52.3618L81.0885 52.3941ZM81.1273 52.42H81.1402L81.1143 52.4071L81.1273 52.42ZM81.082 52.42H81.1079L81.0885 52.3941L81.082 52.42ZM85.1563 52.3295H85.1499L85.0981 52.323L85.124 52.3165L85.1563 52.3295ZM85.0981 52.323L85.1499 52.3295H85.1563L85.124 52.3165L85.0981 52.323ZM81.1402 52.2195L81.1725 52.3036L81.1273 52.2777L81.1402 52.2195ZM81.1273 52.2777L81.1725 52.3036L81.1402 52.2195L81.1273 52.2777ZM81.1143 52.1355L81.0949 52.129L81.1014 52.1031L81.1143 52.1355ZM81.0949 52.129L81.1143 52.1355L81.1014 52.1031L81.0949 52.129ZM88.9978 51.825H88.9267L88.9138 51.8121L88.9526 51.7927L88.9978 51.825ZM88.9138 51.8121L88.9267 51.825H88.9978L88.9526 51.7927L88.9138 51.8121ZM108.904 21.2482C108.933 21.5756 109.132 21.768 109.227 21.8431L109.272 21.8755L109.305 21.9014C109.21 22.0226 109.094 22.2259 109.124 22.5028C109.125 22.512 109.135 22.5197 109.137 22.5287C109.119 22.6046 109.111 22.6831 109.117 22.768C109.112 22.7859 109.095 22.8007 109.091 22.8197C109.033 23.1171 109.145 23.3623 109.26 23.5052C109.295 23.5489 109.348 23.5657 109.382 23.5958C109.345 23.6721 109.31 23.7588 109.298 23.8609C109.162 24.0131 109.015 24.2587 109.098 24.6111L109.111 24.6499L109.117 24.6822C109.124 24.7124 109.147 24.7379 109.156 24.7663C109.084 24.8741 109.019 25.0144 109.014 25.1996L109.02 25.2061C108.983 25.2962 108.965 25.39 108.962 25.4971C108.941 25.5614 108.922 25.6319 108.917 25.7105C108.895 26.0455 109.069 26.2785 109.163 26.3766L109.195 26.409L109.234 26.4413C109.209 26.4969 109.176 26.5537 109.163 26.6224C109.161 26.6321 109.164 26.6452 109.163 26.6547C109.041 26.7464 108.809 26.9649 108.813 27.3403C108.815 27.4749 108.861 27.5835 108.904 27.6766C108.864 27.731 108.823 27.7932 108.794 27.8706C108.758 27.9657 108.737 28.0617 108.736 28.1551L108.787 28.4655L108.8 28.4979C108.824 28.5713 108.884 28.6198 108.917 28.6725C108.883 28.8041 108.874 28.9441 108.91 29.0864C108.937 29.1932 108.983 29.2788 109.027 29.3451C109.02 29.3567 109.007 29.3652 109.001 29.3774L108.962 29.4421C108.903 29.5537 108.88 29.6725 108.872 29.7849C108.865 29.7891 108.853 29.7932 108.846 29.7978C108.72 29.8805 108.497 30.0852 108.471 30.438C108.467 30.4916 108.491 30.5393 108.496 30.5868L108.49 30.5997C108.367 30.7996 108.339 31.0302 108.386 31.2335C108.383 31.2572 108.388 31.2811 108.386 31.3046C108.366 31.3523 108.34 31.3959 108.328 31.4469C108.21 31.5791 108.101 31.7601 108.102 32.0031C108.102 32.0474 108.122 32.0865 108.128 32.126C108.029 32.3071 107.995 32.5074 108.018 32.6951L108.024 32.7339V32.7727C108.027 32.7931 108.04 32.8113 108.044 32.8309C108.04 32.8508 108.033 32.8695 108.031 32.8891C108.025 32.901 108.024 32.9154 108.018 32.9279C107.918 33.0295 107.818 33.1697 107.785 33.3677C107.776 33.4222 107.797 33.474 107.798 33.5229C107.759 33.6257 107.73 33.7336 107.733 33.8462C107.735 33.9126 107.771 33.9672 107.785 34.0209C107.761 34.0277 107.732 34.0306 107.707 34.0403C107.625 34.0724 107.49 34.1397 107.371 34.2795C107.285 34.3809 107.24 34.5038 107.209 34.6288C107.102 34.7519 107.004 34.9061 106.99 35.1073C106.981 35.2272 107.009 35.3282 107.035 35.4113C106.995 35.4923 106.962 35.5799 106.951 35.6829C106.831 35.7324 106.661 35.8326 106.537 36.0322L106.517 36.0645L106.498 36.0904C106.366 36.3033 106.37 36.5128 106.395 36.6724C106.373 36.7505 106.342 36.8287 106.343 36.9117L106.349 36.9311L106.343 36.9634V36.9828C106.238 37.0311 106.107 37.1052 106.007 37.2415L105.884 37.4808L105.871 37.5196L105.864 37.5519C105.824 37.6777 105.822 37.7928 105.832 37.8947C105.756 37.9223 105.669 37.9571 105.586 38.0241C105.332 38.2308 105.28 38.5165 105.295 38.7354C105.247 38.7808 105.211 38.8366 105.172 38.8971L105.146 38.9165L105.114 38.9424C105.055 38.9849 104.999 39.0346 104.946 39.0911C104.768 39.1986 104.617 39.3721 104.558 39.602C104.538 39.6782 104.539 39.7511 104.538 39.8155C104.465 39.8507 104.385 39.8931 104.312 39.9642L104.26 40.0159C104.006 40.265 103.986 40.5717 104.008 40.7467C104.012 40.777 104.034 40.8034 104.041 40.8308C104.036 40.8384 104.026 40.8423 104.021 40.8502C103.995 40.8525 103.966 40.8447 103.937 40.8502C103.786 40.8791 103.569 40.971 103.413 41.193C103.337 41.2264 103.255 41.2672 103.18 41.3353L103.032 41.5163L103.012 41.5422L102.993 41.5745C102.887 41.7465 102.88 41.9167 102.883 42.0466L102.87 42.0531C102.851 42.0688 102.842 42.0948 102.825 42.1113C102.72 42.1352 102.594 42.1812 102.475 42.2795C102.315 42.4123 102.253 42.572 102.217 42.7128C102.148 42.7402 102.075 42.7698 102.01 42.8227L101.783 43.1137L101.764 43.1461L101.751 43.1784C101.723 43.2348 101.719 43.2939 101.706 43.3465L101.693 43.3595C101.65 43.3768 101.601 43.3899 101.557 43.4177C101.443 43.4893 101.361 43.5839 101.298 43.6828C101.186 43.7205 101.062 43.785 100.956 43.8963C100.908 43.9461 100.883 44.0062 100.852 44.0579C100.846 44.0631 100.838 44.0656 100.833 44.0709L100.632 44.349L100.613 44.3813L100.6 44.4201C100.594 44.4319 100.598 44.4472 100.594 44.4589C100.506 44.4808 100.41 44.5223 100.315 44.5882C100.27 44.6204 100.241 44.6679 100.205 44.7047C100.088 44.7665 99.9716 44.8499 99.8886 44.9763C99.861 45.0185 99.8481 45.0649 99.8304 45.1056C99.7843 45.1076 99.7325 45.0944 99.6816 45.1056C99.5283 45.1398 99.3785 45.2253 99.2548 45.3578C99.1381 45.3726 99.009 45.4086 98.8797 45.5001C98.7677 45.5797 98.6932 45.6733 98.6404 45.7653C98.5128 45.7887 98.3728 45.8466 98.2395 45.9658C98.0989 46.0916 98.0227 46.2318 97.9872 46.3538L97.9549 46.6189C97.9225 46.6222 97.8863 46.624 97.8514 46.6319C97.8113 46.6411 97.7788 46.6691 97.7415 46.6836C97.7129 46.6823 97.6815 46.6689 97.6509 46.6707L97.6121 46.6771H97.5733C97.4112 46.6865 97.2265 46.7472 97.0689 46.8841C97.0449 46.905 97.0308 46.9335 97.0107 46.9552C96.9203 46.9983 96.8452 47.0489 96.7843 47.1104C96.6018 47.087 96.3302 47.1039 96.0988 47.3239C96.0764 47.3453 96.0657 47.3794 96.0471 47.4015C95.9918 47.4217 95.9287 47.4297 95.8725 47.4661C95.7349 47.5557 95.6492 47.6688 95.5944 47.7701C95.4567 47.7708 95.2959 47.7977 95.1352 47.9059C94.9804 48.0112 94.8998 48.1477 94.8507 48.2551C94.842 48.2591 94.8335 48.2637 94.8248 48.2681C94.7417 48.3097 94.674 48.3623 94.6178 48.4168C94.5847 48.426 94.5486 48.4283 94.5144 48.4427C94.2797 48.5415 94.15 48.7045 94.0811 48.8501C94.0399 48.834 93.9998 48.8087 93.9517 48.7984C93.7937 48.7646 93.5659 48.7669 93.3438 48.8954C93.3263 48.9056 93.3146 48.9233 93.2985 48.9342C93.1684 48.9471 93.0298 48.9972 92.8911 49.1023C92.8403 49.0886 92.7849 49.0672 92.7229 49.0635C92.4061 49.0456 92.1368 49.2059 91.9857 49.4257C91.9548 49.471 91.9529 49.5255 91.9339 49.568C91.8901 49.578 91.8563 49.6111 91.8175 49.6262C91.8075 49.6267 91.7954 49.6253 91.7852 49.6262C91.5485 49.6479 91.3531 49.7621 91.2226 49.9107C91.2044 49.9315 91.199 49.9607 91.1838 49.9819C91.1752 49.9841 91.1665 49.9859 91.1579 49.9883C90.9946 50.0359 90.8753 50.1252 90.7893 50.2147C90.7592 50.1937 90.7344 50.1622 90.6987 50.1436L90.6534 50.1177L90.6082 50.0983L90.2266 49.9948C90.0677 49.9897 89.8863 50.0295 89.7092 50.1565C89.5872 50.2446 89.5088 50.3531 89.457 50.4475C89.3586 50.4083 89.2132 50.3815 89.0431 50.4022C88.9487 50.4138 88.8624 50.4424 88.7844 50.4799C88.6993 50.4569 88.5965 50.4421 88.4805 50.454C88.3689 50.4654 88.2699 50.4997 88.183 50.5445L87.9631 50.7062C87.7577 50.7274 87.6047 50.8074 87.4975 50.9067C87.4307 50.8817 87.3495 50.8676 87.2582 50.8614C87.1507 50.8544 87.0442 50.8633 86.9477 50.8938L86.6826 51.036L86.6632 51.049C86.6425 51.0536 86.6195 51.0554 86.5985 51.0619C86.4439 51.1099 86.3287 51.1943 86.2493 51.2753C86.2154 51.284 86.1834 51.2953 86.1523 51.3077C86.0972 51.299 86.0394 51.3044 85.9777 51.3077C85.9628 51.3037 85.9481 51.298 85.9324 51.2947C85.8731 51.2826 85.8136 51.2752 85.7578 51.2753H85.7449C85.5795 51.2119 85.3518 51.1833 85.124 51.2753C85.0295 51.3137 84.9583 51.3719 84.8976 51.4241C84.8434 51.4154 84.7857 51.4014 84.723 51.4047C84.5653 51.4133 84.4342 51.4749 84.3285 51.5405C84.1516 51.547 84.0119 51.6154 83.9017 51.6892C83.731 51.6397 83.5341 51.6524 83.3455 51.728H83.3261C83.2626 51.7335 83.2067 51.7565 83.1515 51.7733C83.0679 51.7383 82.9677 51.7188 82.854 51.7151C82.7705 51.7124 82.6965 51.731 82.6277 51.7474C82.5718 51.7417 82.5166 51.7288 82.4595 51.7345C82.4636 51.698 82.4538 51.6617 82.4531 51.6245C82.5134 51.3971 82.4698 51.1798 82.3819 51.0102C82.3859 50.9568 82.3879 50.9031 82.3819 50.8485C82.4091 50.8191 82.4471 50.7955 82.4725 50.7579C82.6382 50.5126 82.6542 50.2027 82.5371 49.9431C82.5053 49.8729 82.4653 49.8164 82.4272 49.7685C82.5042 49.6976 82.597 49.5991 82.6535 49.4516C82.6764 49.3917 82.6707 49.3283 82.6794 49.2705C82.7964 49.1332 82.8976 48.9252 82.8799 48.669V48.6496C82.899 48.5683 82.9121 48.4798 82.9058 48.3845L82.8993 48.3457V48.3133C82.8912 48.1927 82.8544 48.0922 82.8152 48.0094C82.8209 47.9717 82.8214 47.9329 82.8217 47.893C82.8631 47.8434 82.9053 47.7876 82.9381 47.7184C82.9865 47.6153 83.009 47.5135 83.0157 47.4209C83.0834 47.2729 83.1008 47.1289 83.0868 46.994C83.1166 46.9511 83.1601 46.9133 83.1838 46.8582C83.2942 46.6017 83.2536 46.3629 83.1838 46.1986C83.2922 46.0977 83.4119 45.9449 83.449 45.72C83.4823 45.5151 83.4316 45.346 83.3779 45.2285C83.3786 45.2197 83.3838 45.2113 83.3843 45.2026C83.5668 44.9208 83.537 44.6152 83.449 44.4136C83.4452 44.405 83.44 44.396 83.4361 44.3878C83.4864 44.3586 83.5472 44.3378 83.5977 44.2908C83.7158 44.1806 83.8246 44.0152 83.8564 43.7992C83.8741 43.6793 83.8711 43.5716 83.85 43.4824C83.9137 43.2606 83.863 43.0741 83.8112 42.9456C83.8865 42.7637 83.8827 42.5874 83.85 42.4411C83.8945 42.4279 83.9506 42.4328 83.9987 42.4088C84.111 42.3523 84.2903 42.2263 84.3932 41.9884C84.4555 41.8436 84.4681 41.7058 84.4579 41.5875C84.4628 41.5682 84.4735 41.5497 84.4773 41.5293C84.4889 41.4655 84.4727 41.4045 84.4708 41.3482C84.4757 41.3343 84.4862 41.3231 84.4902 41.3094C84.64 41.2112 84.8198 41.0486 84.8653 40.7532C84.8783 40.6687 84.8808 40.5907 84.8718 40.5204C84.9493 40.4062 84.9985 40.2862 85.0141 40.1518C85.0947 39.9604 85.0945 39.784 85.0658 39.6408C85.0922 39.6195 85.1243 39.6028 85.1499 39.5762L85.3245 39.2916C85.3991 39.2255 85.4768 39.1416 85.5314 39.0265C85.5425 39.003 85.5488 38.9784 85.5573 38.9553C85.6611 38.9015 85.782 38.823 85.8742 38.6837C85.9876 38.512 86.015 38.3401 86.01 38.1987C86.1137 38.0695 86.1664 37.9367 86.1846 37.8106C86.3285 37.6745 86.4402 37.507 86.4627 37.2933C86.547 37.26 86.6475 37.2247 86.7343 37.1445C86.9552 36.9393 86.9921 36.6942 86.9866 36.5043C87.0081 36.4903 87.036 36.4826 87.0577 36.4655C87.2483 36.3141 87.3483 36.0965 87.3681 35.8834C87.3718 35.8429 87.3569 35.8032 87.3552 35.767C87.4445 35.6926 87.5242 35.5949 87.5815 35.4566C87.6669 35.4379 87.7726 35.4052 87.879 35.3337L87.9437 35.2949C88.0994 35.1898 88.2157 35.0282 88.2735 34.8422C88.2872 34.798 88.2806 34.7534 88.2865 34.7129C88.4127 34.5672 88.4716 34.3894 88.4869 34.2213L88.4934 34.2084C88.5089 34.2038 88.5292 34.2142 88.5451 34.2084C88.7749 34.1253 88.9942 33.9315 89.0755 33.6393C89.0807 33.6201 89.0781 33.5997 89.0819 33.5811C89.1151 33.5266 89.1508 33.4674 89.1725 33.4C89.2091 33.2846 89.2168 33.1784 89.2113 33.0896C89.2393 33.0856 89.2725 33.0969 89.3018 33.0896C89.46 33.0497 89.6582 32.9505 89.7998 32.7404C89.8937 32.6006 89.9311 32.4602 89.9421 32.3459L89.955 32.3523C90.0886 32.3454 90.3359 32.2945 90.537 32.0807C90.6967 31.9102 90.7437 31.7186 90.7569 31.5763C90.7739 31.5594 90.7924 31.5438 90.8087 31.5245C90.9257 31.4564 91.0399 31.3646 91.1191 31.227C91.2144 31.06 91.2304 30.897 91.229 30.7937C91.266 30.7984 91.3037 30.8197 91.3454 30.8196C91.5386 30.8184 91.8777 30.7403 92.0827 30.4057L92.1215 30.341C92.204 30.2054 92.234 30.0717 92.2444 29.9659C92.3269 29.9145 92.4124 29.8444 92.4837 29.7461C92.4911 29.7357 92.4963 29.7241 92.5031 29.7137H92.516C92.5967 29.6871 92.6574 29.6306 92.7229 29.5844C92.8088 29.5803 92.9082 29.5717 93.014 29.5262C93.1701 29.4589 93.284 29.3594 93.3632 29.2481C93.4692 29.2184 93.5852 29.1736 93.693 29.0799C93.8395 28.9525 93.9077 28.8034 93.9452 28.6725C93.985 28.6553 94.0341 28.6532 94.0746 28.6272C94.2581 28.5091 94.3473 28.3439 94.3979 28.2069C94.571 28.2153 94.7984 28.1803 95.0059 27.987C95.1288 27.8716 95.1842 27.7391 95.2193 27.6313H95.2581C95.4244 27.6165 95.6176 27.5475 95.7755 27.392C95.8807 27.2881 95.9348 27.171 95.9695 27.0751C96.0313 27.0584 96.0982 27.0403 96.1635 27.004L96.2282 26.9652L96.2411 26.9587C96.3274 26.9498 96.4265 26.9426 96.5257 26.894C96.8242 26.7469 96.9361 26.4847 96.9719 26.3314C97.0858 26.2803 97.1983 26.2055 97.2888 26.0921L97.3082 26.0598L97.3341 26.0274C97.3431 26.016 97.3453 26.0001 97.3535 25.9886C97.3655 25.9811 97.3802 25.9776 97.3923 25.9692C97.4257 25.9745 97.4587 25.9939 97.4957 25.9951C97.6445 25.9995 97.8378 25.9643 98.0131 25.8399C98.126 25.7595 98.1944 25.6577 98.2459 25.5682C98.3607 25.5216 98.4532 25.4671 98.524 25.3936C98.6036 25.3582 98.687 25.3106 98.7633 25.2384C98.7827 25.2201 98.7984 25.1991 98.815 25.1802C98.9377 25.1323 99.0431 25.0606 99.1319 24.9603C99.2321 24.988 99.3656 25.0107 99.52 24.9797C99.7424 24.9348 99.8884 24.8041 99.9921 24.6758C100.141 24.7027 100.332 24.7012 100.535 24.5917C100.834 24.4294 100.918 24.1578 100.949 24.0097L100.956 24.0032C101.005 24.0022 101.057 24.0141 101.111 24.0032L101.15 23.9967L101.182 23.9903C101.353 23.9555 101.484 23.8743 101.583 23.7833C101.666 23.7671 101.745 23.7396 101.822 23.6992V23.7057C101.957 23.7374 102.154 23.7479 102.359 23.6604C102.423 23.6328 102.471 23.5873 102.521 23.5505C102.616 23.5514 102.725 23.543 102.838 23.4987C103.059 23.4112 103.178 23.2538 103.252 23.1237C103.276 23.1313 103.296 23.1567 103.323 23.1625L103.368 23.1754L103.407 23.1819C103.53 23.2079 103.694 23.21 103.866 23.1495C104.037 23.0883 104.165 22.983 104.247 22.8779C104.346 22.7529 104.382 22.6225 104.403 22.5351C104.463 22.5365 104.528 22.5499 104.597 22.5351C104.622 22.5297 104.644 22.5165 104.668 22.5093C104.803 22.5438 104.986 22.5687 105.185 22.4899C105.223 22.4749 105.25 22.4436 105.282 22.4252C105.292 22.4233 105.305 22.4275 105.315 22.4252C105.45 22.3919 105.558 22.3277 105.644 22.257C105.699 22.2478 105.76 22.2416 105.819 22.2182C105.982 22.1532 106.088 22.0479 106.162 21.9531C106.318 22.0148 106.538 22.0792 106.796 21.9854L106.834 21.9725L106.867 21.9596C107.014 21.9047 107.12 21.8175 107.197 21.7332C107.264 21.715 107.327 21.6937 107.384 21.6621C107.412 21.6737 107.436 21.6981 107.468 21.7073C107.733 21.7837 108.036 21.7278 108.264 21.5263C108.304 21.4903 108.331 21.4469 108.361 21.4098C108.529 21.4088 108.711 21.379 108.872 21.2546C108.887 21.2423 108.896 21.2221 108.91 21.2094C108.911 21.222 108.903 21.2352 108.904 21.2482ZM89.47 51.6957H89.4182L89.4635 51.6698L89.47 51.6957ZM89.4182 51.6957H89.47L89.4635 51.6698L89.4182 51.6957ZM81.3213 50.8485C81.3071 50.8519 81.2913 50.8469 81.2825 50.8485L81.3407 50.842C81.3325 50.8443 81.3261 50.8473 81.3213 50.8485ZM92.4578 50.1371L92.3608 50.15L92.3478 50.1371H92.4578ZM92.3478 50.1371L92.3608 50.15L92.4578 50.1371H92.3478ZM94.3268 49.956L94.3656 49.9883L94.3527 50.0336L94.3139 50.0013L94.3268 49.956ZM94.3139 50.0013L94.3527 50.0336L94.3656 49.9883L94.3333 49.9625H94.3268L94.3139 50.0013ZM81.3795 49.4192L81.3666 49.3546L81.386 49.3998L81.3795 49.4192ZM81.3795 49.4192L81.386 49.3998L81.3666 49.3546L81.3795 49.4192ZM94.6049 49.277L94.6114 49.2511H94.7407L94.7472 49.3093L94.7084 49.3028V49.2834H94.7472L94.7407 49.2511H94.6631L94.6696 49.2899L94.6049 49.277ZM94.7084 49.2834V49.3028L94.7472 49.3093V49.2834H94.7084ZM94.6631 49.2511L94.6566 49.2899H94.6696L94.6631 49.2511ZM94.6114 49.2511L94.6049 49.277L94.6566 49.2899L94.6631 49.2511H94.6114ZM94.6566 49.1153L94.6502 49.0765H94.6696L94.6566 49.1153ZM94.6954 49.1217L94.689 49.07H94.7084L94.6954 49.1217ZM94.689 49.07L94.6954 49.1217L94.7084 49.07H94.689ZM94.6502 49.0765L94.6566 49.1153L94.6696 49.0765H94.6502ZM96.0341 48.766L96.0406 48.7531L96.0471 48.766H96.1312L96.0924 48.7725L96.0859 48.766H96.0341ZM96.0341 48.766H96.0471L96.0406 48.7531L96.0341 48.766ZM81.4636 48.572L81.4506 48.6044L81.4442 48.5203L81.4636 48.572ZM81.4506 48.6044L81.4636 48.572L81.4442 48.5203L81.4506 48.6044ZM81.8581 48.4168V48.4298L81.8451 48.4168H81.8581ZM81.8451 48.4168L81.8581 48.4298V48.4168H81.8451ZM81.8516 48.3521L81.8581 48.3263L81.8645 48.3716L81.8516 48.3521ZM81.8581 48.3586L81.8645 48.3716L81.8581 48.3263V48.3586ZM81.8322 47.5114L81.8387 47.5179L81.8322 47.5049V47.5114ZM98.7892 47.1687H98.7633L98.7698 47.1169H98.8021L98.7892 47.1687ZM98.7633 47.1687H98.7892L98.8021 47.1169H98.7698L98.7633 47.1687ZM82.2202 46.2374L82.1879 46.1404L82.2202 46.0563V46.2374ZM99.9403 46.2438L99.9339 46.2568L99.9597 46.2762H99.9662V46.2826L99.9209 46.2438H99.9403ZM99.9209 46.2438L99.9339 46.2568L99.9403 46.2438H99.9209ZM82.1879 46.1404L82.2202 46.2374V46.0563L82.1879 46.1404ZM102.741 43.6893H102.728C102.711 43.6823 102.699 43.672 102.695 43.6699L102.741 43.6893ZM103.187 43.0361L103.135 43.1396L103.116 43.0749L103.187 43.0361ZM103.116 43.0749L103.135 43.1396L103.187 43.0361L103.116 43.0749ZM103.775 42.5317V42.4993H103.788L103.775 42.5317ZM103.775 42.4993V42.5317L103.788 42.4993H103.775ZM104.733 41.2124L104.745 41.2382L104.72 41.29L104.687 41.1994L104.733 41.2124ZM104.687 41.1994L104.72 41.29L104.745 41.2382L104.733 41.2124L104.687 41.1994ZM84.0504 40.4751V40.501L84.0634 40.5139H84.0504V40.501L84.031 40.4751H84.0504ZM83.7853 40.5269V40.5463L83.7788 40.5269H83.7853ZM83.7788 40.5269L83.7853 40.5463V40.5269H83.7788ZM84.0504 40.501V40.5139H84.0634L84.0504 40.501ZM83.9728 40.4751L83.9858 40.4686V40.488L83.9728 40.4751ZM84.031 40.4751L84.0504 40.501V40.4751H84.031ZM83.9728 40.4751L83.9858 40.488V40.4686L83.9728 40.4751ZM84.0957 39.9771L84.0763 40.0159L84.0828 39.9836L84.0957 39.9771ZM84.0828 39.9836L84.0763 40.0159L84.0957 39.9771L84.0828 39.9836ZM84.3867 39.3369L84.4967 39.3757H84.4449V39.408L84.3803 39.4016L84.3867 39.3369ZM84.3867 39.3369L84.3803 39.4016L84.4449 39.408L84.4385 39.3563L84.3867 39.3369ZM84.6196 39.3886H84.5937V39.3757L84.6196 39.3886ZM84.5937 39.3886H84.6196L84.5937 39.3757V39.3886ZM84.4385 39.3563L84.4449 39.3757H84.4967L84.4385 39.3563ZM84.4385 39.2787L84.4061 39.2658L84.4255 39.1235L84.4385 39.2787ZM84.4061 39.2658L84.4385 39.2787L84.4255 39.1235L84.4061 39.2658ZM84.6066 38.3215L84.6325 38.3474L84.6196 38.3603L84.6066 38.3215L84.5937 38.3086V38.2892L84.6066 38.3215ZM84.6196 38.3603L84.6325 38.3474L84.6066 38.3215L84.6196 38.3603ZM84.5937 38.3086L84.6066 38.3215L84.5937 38.2892V38.3086ZM107.41 37.1186L107.449 37.1251V37.1639H107.436V37.1251L107.41 37.1186L107.416 37.1574L107.378 37.151L107.371 37.1768V37.151L107.416 37.1574L107.41 37.1186ZM107.436 37.1639H107.449V37.1251H107.436V37.1639ZM107.287 37.138L107.209 37.1316L107.216 37.0928L107.281 37.0992L107.287 37.138ZM107.209 37.1316L107.287 37.138L107.281 37.0992L107.216 37.0928L107.209 37.1316ZM107.475 37.0734C107.475 37.0733 107.464 37.0679 107.455 37.0604C107.452 37.0577 107.448 37.0528 107.442 37.0475L107.475 37.0734ZM85.5638 36.8018L85.5573 36.7953L85.525 36.8147L85.5379 36.8341L85.5573 36.8212V36.86L85.525 36.8147L85.5638 36.7953V36.8018ZM85.5379 36.8341L85.5573 36.86V36.8212L85.5379 36.8341ZM107.966 35.8511H107.947V35.8123H107.973L107.966 35.8511ZM107.947 35.8511H107.966L107.973 35.8123H107.947V35.8511ZM108.095 35.7153L108.076 35.7476V35.7153H108.095ZM108.076 35.7476L108.089 35.7282V35.7153H108.076V35.7476ZM86.8443 34.8487L86.8184 34.7387L86.8766 34.6934L86.8443 34.8487ZM108.05 34.8163L108.044 34.8551H108.134L108.16 34.8163H108.05ZM86.8184 34.7387L86.8443 34.8487L86.8766 34.6934L86.8184 34.7387ZM108.16 34.8163H108.18L108.186 34.784L108.16 34.8163ZM87.5427 34.687L87.5298 34.674H87.5427V34.687ZM87.5427 34.687V34.674H87.5298L87.5427 34.687ZM108.244 34.6029V34.577H108.264L108.244 34.6029ZM108.244 34.577V34.6029L108.264 34.577H108.244ZM108.813 34.5059L108.768 34.5124L108.762 34.4736L108.813 34.4671V34.5059ZM108.762 34.4736L108.768 34.5124L108.813 34.5059V34.4671L108.762 34.4736ZM87.2452 34.2472L87.2323 34.299L87.1806 34.2213L87.1935 34.1696L87.2452 34.2472ZM87.1806 34.2213L87.2323 34.299L87.2452 34.2472L87.1935 34.1696L87.1806 34.2213ZM87.491 34.092H87.4522L87.4651 34.0467H87.491V34.092ZM87.4522 34.092H87.491V34.0467H87.4651L87.4522 34.092ZM109.214 32.611L109.195 32.6175V32.6239H109.214L109.221 32.6369L109.195 32.6239L109.214 32.6563L109.195 32.6628L109.072 32.5981L109.208 32.5851L109.214 32.611ZM88.3511 32.6498H88.3641V32.6692L88.3511 32.6498H88.3382V32.6239L88.3511 32.6498ZM88.3511 32.6498L88.3641 32.6692V32.6498H88.3511ZM109.13 32.5916L109.143 32.6369L109.195 32.6628L109.214 32.6563L109.175 32.5851L109.13 32.5916ZM109.266 32.5205H109.26L109.266 32.5399H109.272L109.292 32.5722H109.285L109.227 32.5463H109.214L109.234 32.5787H109.272L109.285 32.6175H109.253L109.214 32.5463H109.227L109.272 32.5657L109.26 32.5205L109.182 32.4817L109.208 32.5334L109.188 32.5269L109.175 32.4817L109.26 32.5205L109.253 32.4946L109.266 32.5205ZM88.3382 32.6498H88.3511L88.3382 32.6239V32.6498ZM109.195 32.6239L109.221 32.6369L109.214 32.6239H109.195ZM109.072 32.5981L109.137 32.6304H109.143L109.13 32.5916L109.072 32.5981ZM109.24 32.5981L109.253 32.6175H109.285L109.279 32.5851L109.24 32.5981ZM109.175 32.5851L109.195 32.6175L109.214 32.611L109.208 32.5851H109.175ZM109.234 32.5787L109.24 32.5981L109.279 32.5851L109.272 32.5787H109.234ZM109.266 32.5399L109.272 32.5657L109.285 32.5722H109.292L109.272 32.5399H109.266ZM109.188 32.5269L109.208 32.5334L109.182 32.4817H109.175L109.188 32.5269ZM109.434 31.2206L109.421 31.2464L109.408 31.1818L109.434 31.2206ZM109.421 31.2464L109.434 31.2206L109.408 31.1818L109.421 31.2464ZM109.447 31.0266L109.46 31.0524L109.415 31.1753L109.408 31.1171L109.447 31.0266ZM109.408 31.1171L109.415 31.1753L109.46 31.0524L109.447 31.0266L109.408 31.1171ZM109.887 29.6749H109.874L109.9 29.6684L109.887 29.6749ZM109.945 28.2133L109.939 28.1293L109.984 28.1163L109.945 28.2133ZM109.939 28.1293L109.945 28.2133L109.984 28.1163L109.939 28.1293ZM110.1 27.696L110.146 27.7154L110.133 27.7477L110.107 27.7348L110.1 27.696ZM110.107 27.7348L110.133 27.7477L110.146 27.7154L110.1 27.696L110.107 27.7348ZM110.249 26.3314L110.23 26.312V26.3055L110.243 26.3184L110.249 26.3314ZM110.23 26.312L110.249 26.3314L110.243 26.3184L110.23 26.3055V26.312ZM95.1093 26.118L95.0899 26.1244L95.0835 26.105L95.1093 26.118ZM95.0899 26.1244L95.1093 26.118L95.0835 26.105L95.0899 26.1244ZM109.822 25.8011L109.829 25.8075L109.861 25.8463V25.8528L109.79 25.7687H109.796L109.822 25.8011ZM110.178 25.4066L110.146 25.4389L110.165 25.3419L110.178 25.4066ZM96.1312 25.4583V25.4777L96.1247 25.4712V25.4583H96.1312ZM110.146 25.4389L110.178 25.4066L110.165 25.3419L110.146 25.4389ZM97.3017 24.9603L97.3146 24.9668H97.3017L97.2888 24.9603H97.3017ZM110.307 24.9345L110.294 24.8827L110.301 24.8633L110.307 24.9345ZM97.2888 24.9603L97.3017 24.9668H97.3146L97.3017 24.9603H97.2888ZM110.294 24.8827L110.307 24.9345L110.301 24.8633L110.294 24.8827ZM110.462 24.2942L110.443 24.3459L110.385 24.3783L110.333 24.3912L110.346 24.3589V24.3524L110.462 24.2942ZM110.462 24.2942L110.346 24.3524V24.3589L110.333 24.3912L110.385 24.3783L110.443 24.3459L110.462 24.2942ZM110.352 23.7768H110.359L110.314 23.8803V23.8738L110.352 23.7768L110.255 23.7704L110.275 23.738L110.365 23.7445L110.352 23.7768ZM110.314 23.8738V23.8803L110.359 23.7768H110.352L110.314 23.8738ZM110.275 23.738L110.262 23.7704L110.352 23.7768L110.365 23.7445L110.275 23.738ZM110.165 23.7316H110.126L110.113 23.751L110.094 23.6928H110.146L110.165 23.7316ZM110.113 23.751L110.126 23.7316H110.165L110.146 23.6928H110.094L110.113 23.751ZM99.4682 23.7316L99.4294 23.738L99.4424 23.7316H99.4682ZM99.4424 23.7316L99.4294 23.738L99.4682 23.7316H99.4424ZM110.217 23.641L110.243 23.6992H110.171L110.165 23.6863L110.217 23.641ZM110.165 23.6863L110.171 23.6992H110.243L110.217 23.641L110.165 23.6863ZM110.352 23.2142H110.346L110.34 23.1819H110.346L110.352 23.2142ZM110.34 23.1819L110.346 23.2142H110.352L110.346 23.1819H110.34ZM110.598 23.1754L110.521 23.1883L110.514 23.156L110.611 23.1431L110.598 23.1754ZM110.611 23.1431L110.514 23.156L110.521 23.1883L110.598 23.1754L110.611 23.1431ZM101.505 22.5869L101.37 22.6063V22.5869H101.505ZM101.37 22.5869V22.6063L101.505 22.5869H101.37ZM101.609 22.5804H101.551L101.596 22.5739L101.609 22.5804ZM101.551 22.5804H101.609L101.596 22.5739L101.551 22.5804ZM103.032 22.3735L103.038 22.3929L103.012 22.3735H103.032ZM103.012 22.3735L103.038 22.3929L103.032 22.3735H103.012ZM103.769 21.6233H103.743V21.5974L103.769 21.6233ZM103.743 21.6233H103.769L103.743 21.5974V21.6233ZM105.043 21.19C105.05 21.1999 105.055 21.2077 105.056 21.2094L105.043 21.177V21.19ZM106.472 20.9959L106.479 21.0024L106.459 20.9959H106.44L106.433 20.983L106.459 20.9959H106.472ZM106.44 20.9959H106.459L106.433 20.983L106.44 20.9959ZM106.918 20.7243L106.983 20.7696H106.912L106.854 20.7243H106.918ZM110.094 20.595L110.061 20.5562L110.094 20.5691V20.595ZM106.957 20.7696H106.983L106.97 20.7631L106.957 20.7696ZM106.854 20.7243L106.912 20.7696H106.957L106.97 20.7631L106.918 20.7243H106.854ZM110.094 20.595V20.5691L110.061 20.5562L110.094 20.595ZM107.656 20.5626H107.565L107.578 20.5562L107.656 20.5626ZM107.565 20.5626H107.656L107.578 20.5562L107.565 20.5626ZM109.932 20.2264L109.99 20.3104H109.945L109.952 20.3234L109.932 20.3104L109.939 20.291L109.926 20.2587L109.932 20.2264ZM107.947 20.2199L107.927 20.2393L107.895 20.2199H107.947ZM109.932 20.3104H109.945L109.939 20.291L109.932 20.3104ZM109.939 20.291L109.945 20.3104H109.99L109.952 20.2522L109.939 20.291ZM109.648 20.291L109.441 20.1617L109.518 20.1552L109.648 20.291ZM109.441 20.1617L109.648 20.291L109.518 20.1552L109.441 20.1617ZM109.926 20.2587L109.939 20.291L109.952 20.2522L109.932 20.2264L109.926 20.2587ZM107.927 20.2393L107.947 20.2199H107.895L107.927 20.2393ZM109.479 20.097L109.363 20.1035L109.376 20.1229L109.369 20.1164H109.376L109.363 20.1035L109.466 20.097L109.46 20.0905L109.479 20.097ZM108.18 34.8163H108.16L108.134 34.8551H108.044L108.05 34.8163H108.16L108.186 34.784L108.18 34.8163Z" fill="#27C467"/>
</svg>
